<svg width="155" height="122" viewBox="0 0 155 122" fill="none" xmlns="http://www.w3.org/2000/svg">
<path d="M39.5452 45.655C39.5452 45.655 34.6607 37.3128 33.6871 27.0067L23.8678 28.2152C23.8678 28.2152 23.0621 40.4852 17.9259 48.391C17.9259 48.391 16.8348 34.1404 20.7122 14.6696L4.38025 16.667C4.38025 16.667 6.83088 27.141 6.83088 37.8835C6.83088 52.7383 4.34668 63.6655 4.34668 63.6655L21.9375 61.5002C23.935 52.3858 28.5677 45.0004 28.5677 45.0004C28.5677 45.0004 32.5458 52.0669 34.4425 59.9728L51.9494 57.8242C51.9494 57.8242 49.7841 45.3529 49.7841 34.9461C49.7841 24.9085 52.0333 10.8426 52.0333 10.8426L37.1952 12.6721C40.4516 28.1313 39.5452 45.655 39.5452 45.655Z" fill="#F8A3BC"/>
<path d="M67.8268 55.8604C67.8268 55.8604 66.3665 51.1605 66.3665 45.0843C66.3665 38.5213 68.1961 34.7614 70.8649 34.7614C72.4259 34.7614 73.5673 35.7014 73.5673 38.0177C73.5673 41.8112 72.4595 44.7989 72.4595 51.0766C72.4595 61.903 78.0489 65.0251 78.0489 65.0251L88.0529 54.87C88.0529 54.87 83.4706 51.4962 83.4706 45.5375C83.4706 38.4373 84.5616 36.3224 84.5616 31.3037C84.5616 25.7981 81.2045 23.6664 77.109 23.6664C69.2367 23.6664 66.3665 31.8408 66.3665 31.8408C66.3665 20.5276 69.9081 8.61011 69.9081 8.61011L53.6433 10.6075C53.6433 10.6075 56.0268 19.8058 56.0268 32.915C56.0268 47.0985 53.5762 57.5892 53.5762 57.5892L67.8268 55.8604Z" fill="#F8A3BC"/>
<path d="M120.651 40.9048C120.651 40.9048 119.493 41.7105 117.949 41.7105C116.404 41.7105 115.246 40.7538 115.246 37.9507C115.246 31.5723 116.623 25.7814 116.623 18.3624C116.623 11.279 112.846 3.92712 101.214 3.92712C88.9606 3.92712 78.1846 13.1254 78.1846 13.1254L86.3757 25.1771C86.3757 25.1771 91.4616 14.6696 99.4682 14.6696C104.873 14.6696 105.477 20.3598 105.477 20.3598C99.0821 20.3598 85.889 24.5393 85.889 40.3174C85.889 49.7506 90.4545 54.1987 96.9168 54.1987C104.118 54.1987 106.736 47.7364 106.736 47.7364C106.736 47.7364 108.901 52.218 114.105 52.218C120.349 52.218 123.286 46.83 123.286 46.83L120.651 40.9048ZM100.576 43.8255C98.4946 43.8255 97.4707 41.7945 97.4707 39.797C97.4707 30.9177 105.494 28.9874 105.494 28.9874C105.494 37.3128 103.967 43.8255 100.576 43.8255Z" fill="#F8A3BC"/>
<path d="M142.556 36.4735C142.556 36.4735 140.995 38.4542 138.645 38.4542C136.648 38.4542 135.305 37.4639 135.305 33.4522C135.305 30.2966 135.405 27.1746 135.556 24.1868C138.494 23.8847 141.75 23.7 145.242 23.7C145.242 23.7 144.99 16.986 145.242 12.5715C145.242 12.5715 141.884 13.8471 136.245 14.9214C137.05 6.3106 138.108 0.25116 138.108 0.25116L122.598 2.14788C122.598 2.14788 123.622 8.82838 123.975 16.3146C122.447 16.3817 120.853 16.3985 119.208 16.3649C119.208 16.3649 119.241 21.1151 118.52 27.611C118.52 27.611 120.467 26.906 123.941 26.0835C123.74 30.0616 123.404 34.1236 123.404 37.5478C123.404 45.269 126.744 49.801 133.828 49.801C142.321 49.801 146.366 42.7176 146.366 42.7176L142.556 36.4735Z" fill="#F8A3BC"/>
<path d="M17.5909 66.9555L0 69.1208C0 69.1208 3.55845 79.0408 3.55845 94.2817C3.55845 109.523 0.201421 121.356 0.201421 121.356L17.8594 119.191C35.8195 116.992 38.7737 102.909 38.7737 89.8337C38.7905 75.9524 32.2443 65.1595 17.5909 66.9555ZM16.3152 110.614C16.3152 110.614 15.157 105.444 15.157 92.5193C15.157 81.139 16.3152 75.7006 16.3152 75.7006C16.3152 75.7006 25.2785 73.5856 25.2785 91.4283C25.2785 110.698 16.3152 110.614 16.3152 110.614Z" fill="#F7EDD8"/>
<path d="M63.3137 103.53C63.3137 103.53 59.9063 107.038 55.475 107.038C53.7294 107.038 52.2691 106.384 51.413 105.125C57.1703 104.353 64.1026 101.852 64.1026 94.7349C64.1026 89.884 60.3931 87.3327 55.5086 87.3327C48.8449 87.3327 39.5459 92.4522 39.5459 103.732C39.5459 112.024 45.0179 115.632 50.8423 115.632C60.3092 115.632 65.7811 107.844 65.7811 107.844L63.3137 103.53ZM55.2065 94.265C56.2807 94.265 57.12 94.9699 57.12 96.212C57.12 99.1159 54.1154 100.677 50.6241 101.298C50.9262 97.0681 53.2258 94.265 55.2065 94.265Z" fill="#F7EDD8"/>
<path d="M88.2576 87.9201L85.253 92.8214C85.253 92.8214 84.0445 91.2939 82.1478 91.2939C79.2607 91.2939 77.0115 94.5503 77.0115 98.6123C77.0115 102.271 79.0089 103.967 81.0567 103.967C83.2556 103.967 84.9677 101.936 84.9677 101.936L87.6533 105.897C87.6533 105.897 84.0949 112.51 76.5415 112.51C70.7506 112.51 65.7822 109.036 65.7822 100.308C65.7822 90.0854 73.2013 84.3449 80.4021 84.3449C85.723 84.3281 88.2576 87.9201 88.2576 87.9201Z" fill="#F7EDD8"/>
<path d="M121.775 73.5017L106.164 75.4152C106.164 75.4152 104.335 81.1558 100.776 86.0067C100.877 68.013 103.277 56.448 103.277 56.448L88.0195 58.3279C88.0195 58.3279 90.168 69.5404 90.168 84.5464C90.168 102.909 88.0195 110.58 88.0195 110.58L101.8 108.885C101.8 108.885 101.263 104.386 100.961 96.917C102.723 99.9551 104.721 103.849 106.433 108.314L120.683 106.569C111.485 96.1953 108.749 88.9776 108.749 88.9776C113.214 81.6257 121.775 73.5017 121.775 73.5017Z" fill="#F7EDD8"/>
<path d="M121.743 67.7277C121.743 63.6657 123.875 61.6011 126.426 61.6011C128.306 61.6011 129.901 62.9272 129.901 65.4282C129.901 71.8737 120.887 74.8614 120.887 88.1385C120.887 89.9513 121.172 91.8144 121.172 91.8144L132.485 90.4213C132.485 90.4213 132.015 88.5749 132.015 86.0403C132.015 77.3456 139.451 75.1803 139.451 63.7496C139.451 58.9827 135.977 51.9161 127.332 51.9161C115.767 51.9161 111.672 59.8891 111.672 67.4424C111.672 70.2959 112.041 72.1087 112.041 72.1087L122.012 70.8833C121.995 70.8833 121.743 69.5573 121.743 67.7277Z" fill="#F7EDD8"/>
<path d="M133.98 98.9816C133.98 103.53 129.868 106.384 126.528 106.384C123.154 106.384 120.687 103.866 120.687 100.593C120.687 96.0442 124.799 93.1907 128.139 93.1907C131.513 93.2075 133.98 95.7253 133.98 98.9816Z" fill="#F7EDD8"/>
<path d="M150.915 88.1384C150.915 68.5669 154.507 50.1367 154.507 50.1367L140.643 51.8488C140.643 51.8488 142.254 62.4067 142.254 89.2126L150.915 88.1384Z" fill="#F7EDD8"/>
<path d="M152.996 96.5142C152.996 101.063 148.884 103.916 145.543 103.916C142.17 103.916 139.702 101.399 139.702 98.1256C139.702 93.5768 143.815 90.7233 147.155 90.7233C150.529 90.7401 152.996 93.2579 152.996 96.5142Z" fill="#F7EDD8"/>
<path d="M84.8321 75.4991C84.8321 75.4991 82.7675 78.3526 79.8301 78.3526C78.823 78.3526 78.0844 77.9329 77.6648 77.144C83.4725 76.4894 86.1245 73.317 86.1245 70.0271C86.1245 68.0465 84.5132 65.8308 81.2904 65.8308C75.1806 65.8308 71.1354 70.3292 71.1354 76.4558C71.1354 76.9258 71.1689 77.379 71.2361 77.8154C70.4808 78.8393 69.6247 79.6282 68.8022 79.6282C68.0133 79.6282 67.7448 79.0911 67.7448 78.2686C67.7448 76.4894 68.9869 73.3338 68.9869 71.2692C68.9869 69.1039 67.8119 67.7611 65.932 67.7611C61.4 67.7611 58.899 72.1588 58.899 72.1588L59.839 68.1136C64.9584 67.5933 67.7112 64.8069 67.7112 61.7856C67.7112 59.3182 65.697 57.8747 63.2967 57.8747C61.0307 57.8747 56.5659 58.7978 55.307 64.2195L55.0216 65.4448C53.5949 65.3273 52.1346 65.1594 50.6575 64.9916L51.866 59.7378L49.6671 60.0064C48.8279 62.3899 47.0151 64.2698 44.447 64.2698C43.9098 64.2698 42.4495 64.0684 40.5696 64.0684C36.8097 64.0684 34.208 65.7637 34.208 68.785C34.208 72.1253 37.7329 72.9477 37.7329 72.9477C37.7329 72.9477 37.7329 72.8806 37.7329 72.7463C37.7329 71.8567 38.0518 68.1975 43.3391 68.1975H44.3966L41.476 80.8368C41.3249 81.5082 41.2242 82.2132 41.2242 82.9013C41.2242 84.9156 42.0635 86.7284 44.7155 86.7284C47.4683 86.7284 49.5497 84.8484 51.0603 82.6328L50.456 85.2848L56.0455 84.5966L56.3812 83.1363C57.1701 79.9304 59.3186 72.5449 62.2392 72.5449C62.7428 72.5449 63.0617 72.9142 63.0617 73.4009C63.0617 75.2137 61.7357 77.9665 61.7357 80.5682C61.7357 83.1531 63.196 84.1938 65.2606 84.1938C68.1644 84.1938 70.464 82.3474 72.1593 80.2829C73.116 81.7935 74.7945 82.7167 77.1613 82.7167C83.1536 82.7167 86.5945 77.1608 86.5945 77.1608L84.8321 75.4991ZM63.2631 60.7449C63.9345 60.7449 64.4885 61.2149 64.4885 61.9702C64.4885 63.1452 63.3974 65.0251 60.4264 65.5119L60.6446 64.5719C61.0978 62.6416 61.8532 60.7449 63.2631 60.7449ZM48.3075 82.146C46.9144 82.146 47.0319 80.6689 47.4347 78.9233L49.9021 68.2311H54.3838C52.6717 75.6334 50.7414 82.146 48.3075 82.146ZM80.8876 70.3125C81.6093 70.3125 81.945 70.7825 81.945 71.4539C81.945 72.7463 80.3504 74.6598 77.2452 75.1969C77.2955 72.4106 79.3769 70.3125 80.8876 70.3125Z" fill="#F7EDD8"/>
</svg>
