<svg width="256" height="256" viewBox="0 0 256 256" fill="none" xmlns="http://www.w3.org/2000/svg">
<g clip-path="url(#clip0_20_44)">
<rect width="256" height="256" fill="white"/>
<g clip-path="url(#clip1_20_44)">
<path d="M256 0H0V256H256V0Z" fill="#003DA5"/>
<path d="M38.485 107.245C41.1534 103.143 43.0386 98.2581 44.3666 93.6266C44.8209 85.0289 45.938 73.8455 48.4583 61.1887L42.6445 56.8082C36.8432 85.9351 38.485 107.245 38.485 107.245Z" fill="url(#paint0_linear_20_44)"/>
<path d="M70.988 94.3697C69.6098 90.0997 68.3848 85.0591 67.8802 79.6569L62.0664 75.2765C63.5098 90.7047 70.8173 103.178 70.8173 103.178C70.8173 103.178 70.9905 99.7894 70.988 94.3697Z" fill="#10069F"/>
<path d="M50.2806 131.238C52.2462 122.249 55.9313 114.382 58.2131 110.061C56.1472 105.299 54.3824 102.167 54.3824 102.167C54.3824 102.167 47.449 113.224 44.4668 126.855L50.2806 131.238Z" fill="url(#paint1_linear_20_44)"/>
<path d="M95.1369 125.59C94.8457 123.878 91.9212 106.301 91.9212 91.498C91.9212 76.6948 95.29 55.4377 95.29 55.4377L89.4762 51.0573C89.4762 51.0573 86.1074 72.116 86.1074 87.1175C86.1074 102.119 89.3457 121.345 89.3457 121.345L95.1369 125.593V125.59Z" fill="url(#paint2_linear_20_44)"/>
<path d="M117.677 73.3761C117.677 73.3761 117.672 73.3812 117.669 73.3812C119.193 61.6606 122.017 52.1567 122.017 52.1567L116.203 47.7762C116.203 47.7762 110.909 65.5842 110.909 82.5086C110.909 82.5086 112.842 76.9985 117.677 73.3761Z" fill="url(#paint3_linear_20_44)"/>
<path d="M149.176 121.323C149.176 121.323 149.145 121.3 149.135 121.292C148.576 120.866 142.312 115.89 142.312 107.368C142.312 96.7419 143.947 93.5864 143.947 86.0832C143.947 82.4583 142.97 79.81 141.354 77.98C140.959 77.5357 140.53 77.139 140.066 76.7901L134.252 72.4097C134.217 72.3846 134.182 72.3595 134.146 72.3344C136.579 74.1141 138.133 77.129 138.133 81.7027C138.133 89.2035 136.499 92.3589 136.499 102.985C136.499 111.904 143.362 116.94 143.362 116.94L149.176 121.323Z" fill="url(#paint4_linear_20_44)"/>
<path d="M118.916 122.811C118.916 122.811 116.732 115.782 116.732 106.695C116.732 98.4213 118.685 93.1171 121.688 91.6586C121.665 88.2471 119.958 86.8665 117.651 86.8665C113.667 86.8665 110.921 92.502 110.921 102.315C110.921 111.402 113.105 118.431 113.105 118.431L118.919 122.814L118.916 122.811Z" fill="url(#paint5_linear_20_44)"/>
<path d="M113.1 118.428L91.7705 121.049L97.5843 125.43L118.917 122.811L113.1 118.428Z" fill="#001A72"/>
<path d="M157.435 94.3974C157.435 97.3946 158.961 100.427 162.081 100.427C162.53 100.427 162.957 100.347 163.364 100.199C163.286 99.7317 163.248 99.2548 163.248 98.7778C163.248 92.2335 166.16 88.212 169.117 85.8147C169.333 83.4575 169.441 80.9046 169.441 78.2211C169.441 78.2211 157.437 81.1054 157.437 94.3948L157.435 94.3974Z" fill="url(#paint6_linear_20_44)"/>
<path d="M148.771 73.4389C148.724 73.4841 148.673 73.5268 148.626 73.572C151.603 68.9531 157.851 61.2038 166.256 61.2038C166.928 61.2038 167.551 61.2641 168.128 61.372C166.926 59.1504 164.664 56.8234 160.442 56.8234C148.47 56.8234 140.874 72.5478 140.874 72.5478L146.025 76.4287C146.013 76.4463 146 76.4613 145.987 76.4789C146.851 75.3669 147.787 74.3577 148.771 73.4389Z" fill="url(#paint7_linear_20_44)"/>
<path d="M186.077 62.356C186.077 73.464 184.028 82.117 184.028 91.6536C184.028 95.8633 185.748 97.2866 188.065 97.2866C188.728 97.2866 189.34 97.1862 189.88 97.0431C189.855 96.7268 189.845 96.3905 189.845 96.034C189.845 86.4974 191.893 77.842 191.893 66.7339C191.893 60.29 189.805 53.7031 184.262 49.5259L178.451 45.1455C178.451 45.1455 178.441 45.1354 178.436 45.1329C183.991 49.3075 186.084 55.9021 186.084 62.3535L186.077 62.356Z" fill="url(#paint8_linear_20_44)"/>
<path d="M196.108 104.963C196.108 104.963 191.717 113.019 182.369 113.019C174.58 113.019 171.339 106.309 171.339 106.309C171.339 106.309 167.41 115.968 156.641 115.968C152.728 115.968 149.284 114.876 146.567 112.645C146.718 112.768 146.869 112.888 147.022 113.004L152.833 117.384C155.474 119.375 158.755 120.349 162.452 120.349C170.97 120.349 175.207 114.306 176.608 111.779L180.835 114.964C182.587 116.284 185.007 117.399 188.18 117.399C197.529 117.399 201.919 109.344 201.919 109.344L196.105 104.961L196.108 104.963Z" fill="#001A72"/>
<path d="M234.681 74.7166C234.681 74.7166 234.294 64.6679 234.681 58.0784L228.867 53.698C228.481 60.2875 228.867 70.3337 228.867 70.3337L234.681 74.7141V74.7166Z" fill="#10069F"/>
<path d="M214.385 71.0616C214.152 75.545 214.009 80.2167 214.009 84.931C214.009 90.918 216.022 92.3991 219.004 92.3991C219.363 92.3991 219.71 92.3664 220.044 92.3112C219.9 91.4678 219.823 90.4737 219.823 89.3114C219.823 84.5971 219.966 79.9255 220.199 75.4421L214.385 71.0616Z" fill="#10069F"/>
<path d="M230.549 98.7777C230.549 98.7777 224.492 109.381 211.798 109.381C207.701 109.381 204.445 108.365 201.987 106.457C202.032 106.492 202.075 106.532 202.12 106.565L207.932 110.945C210.372 112.785 213.587 113.759 217.606 113.759C230.301 113.759 236.358 103.156 236.358 103.156L230.544 98.7727L230.549 98.7777Z" fill="#001A72"/>
<path d="M196.645 80.0912C196.768 78.0528 196.896 75.9843 196.999 73.9259C191.82 75.1409 188.898 76.1977 188.898 76.1977L194.712 80.5782C194.712 80.5782 195.383 80.3347 196.653 79.9481C196.65 79.9958 196.648 80.041 196.645 80.0887V80.0912Z" fill="#001A72"/>
<path d="M221.816 55.7942C222.253 51.843 222.697 48.434 223.069 45.7806C223.613 41.9022 224.005 39.6355 224.005 39.6355L218.191 35.255C218.191 35.255 216.625 44.3272 215.407 57.2024C217.842 56.7405 219.988 56.2535 221.816 55.7942Z" fill="url(#paint9_linear_20_44)"/>
<path d="M44.4667 126.855L18.1514 130.089L23.9627 134.472L50.2805 131.238L44.4667 126.855Z" fill="#001A72"/>
<path d="M89.3456 121.345L63.1709 124.561L68.9847 128.944C68.9847 128.944 95.1519 125.731 95.1369 125.593L89.3456 121.345Z" fill="#001A72"/>
<path d="M201.922 109.346L197.913 100.462L192.097 96.0792L196.108 104.963L201.922 109.346Z" fill="#10069F"/>
<path d="M236.363 103.161L230.664 93.82L224.851 89.437L230.549 98.7778L236.363 103.161Z" fill="#10069F"/>
<path d="M228.868 70.3362C223.644 70.3362 218.786 70.6198 214.386 71.0617L220.2 75.4421C224.603 75.0003 229.46 74.7166 234.681 74.7166L228.868 70.3362Z" fill="#001A72"/>
<path d="M143.359 116.94L128.396 132.124L134.212 136.507L149.176 121.323L143.359 116.94Z" fill="#001A72"/>
<path d="M36.0519 148.092C36.0519 148.092 34.3223 156.218 34.3223 173.24C34.3223 192.57 36.0519 200.311 36.0519 200.311C36.0519 200.311 38.3237 200.334 40.9971 198.353C40.5653 194 40.1386 187.248 40.1386 177.621C40.1386 160.599 41.8682 152.473 41.8682 152.473L36.0544 148.092H36.0519Z" fill="#10069F"/>
<path d="M63.8712 143.885H63.8686L58.0573 139.505H58.0548C57.9444 139.419 57.8339 139.339 57.7209 139.259C65.8744 145.168 69.6649 156.296 69.6649 169.209C69.6649 188.767 65.2618 209.82 38.3917 213.121L11.9785 216.365L17.7923 220.748L44.2081 217.502C71.0782 214.201 75.4812 193.147 75.4812 173.589C75.4812 160.855 71.7961 149.855 63.8737 143.885H63.8712Z" fill="url(#paint10_linear_20_44)"/>
<path d="M97.0973 178.773C97.0973 176.928 95.8472 175.869 94.2306 175.869C91.2609 175.869 87.8344 180.058 87.3926 186.367C92.5964 185.445 97.0973 183.108 97.0973 178.771V178.773Z" fill="url(#paint11_linear_20_44)"/>
<path d="M110.028 196.169C110.028 196.169 101.842 207.822 87.691 207.822C83.6219 207.822 79.6757 206.647 76.6182 204.137C76.7763 204.268 76.937 204.396 77.1027 204.521L82.914 208.902C85.8962 211.148 89.644 212.205 93.4998 212.205C107.65 212.205 115.836 200.55 115.836 200.55L110.023 196.169H110.028Z" fill="#001A72"/>
<path d="M115.844 200.552L112.164 194.108L106.351 189.728L110.028 196.169L115.844 200.552Z" fill="#10069F"/>
<path d="M106.35 189.728C106.35 189.728 101.264 194.967 94.6167 194.967C91.996 194.967 89.8171 193.99 88.5469 192.118C97.1647 190.968 107.53 187.21 107.53 176.569C107.53 172.753 105.988 169.889 103.465 168.029C103.496 168.052 103.526 168.072 103.556 168.094L109.37 172.475C111.84 174.337 113.341 177.179 113.341 180.949C113.341 185.591 111.37 188.922 108.431 191.299L106.345 189.728H106.35Z" fill="url(#paint12_linear_20_44)"/>
<path d="M149.477 170.763C149.477 170.763 148.694 169.658 147.095 168.453L141.281 164.073C141.258 164.055 141.231 164.038 141.208 164.02C142.857 165.248 143.663 166.382 143.663 166.382L149.477 170.763Z" fill="#10069F"/>
<path d="M139.17 173.712C139.17 173.712 137.355 171.43 134.523 171.43C130.195 171.43 126.834 176.31 126.834 182.37C126.834 187.853 129.826 190.378 132.891 190.378C132.989 190.378 133.085 190.376 133.18 190.371C132.841 189.351 132.648 188.149 132.648 186.753C132.648 180.693 136.009 175.813 140.337 175.813C141.687 175.813 143.035 176.469 143.987 177.184L145.051 177.987L139.17 173.715V173.712Z" fill="url(#paint13_linear_20_44)"/>
<path d="M142.749 193.262C142.749 193.262 137.435 203.143 126.119 203.143C122.348 203.143 118.819 202.161 116.027 199.98C116.09 200.03 116.153 200.078 116.216 200.126L122.027 204.506C124.786 206.585 128.245 207.523 131.93 207.523C143.246 207.523 148.561 197.643 148.561 197.643L142.747 193.262H142.749Z" fill="#001A72"/>
<path d="M148.563 197.643L144.549 191.729L138.735 187.348L142.749 193.262L148.563 197.643Z" fill="#10069F"/>
<path d="M168.663 152.247C169.68 134.461 171.914 123.675 171.914 123.675L166.1 119.294C166.1 119.294 162.518 136.593 162.362 163.505C165.211 159.625 167.32 155.37 168.663 152.247Z" fill="url(#paint14_linear_20_44)"/>
<path d="M169.712 202.094C169.712 202.094 169.273 198.451 168.864 192.08C166.805 187.383 164.621 183.234 162.641 179.805C163.087 190.976 163.898 197.711 163.898 197.711L169.712 202.094Z" fill="#10069F"/>
<path d="M163.899 197.711L143.279 200.244L149.091 204.624L169.713 202.094L163.899 197.711Z" fill="#001A72"/>
<path d="M174.291 167.944C174.291 167.944 178.38 178.738 192.144 194.241L197.958 198.624C184.194 183.118 180.105 172.324 180.105 172.324L174.291 167.944Z" fill="#10069F"/>
<path d="M192.144 194.241L170.834 196.86L176.648 201.24L197.958 198.624L192.144 194.241Z" fill="#001A72"/>
<path d="M215.611 174.488C215.611 174.488 214.905 171.722 214.905 167.939C214.905 154.925 226.031 151.695 226.031 134.61C226.031 130.048 223.905 124.084 218.987 120.379L213.176 115.998C213.176 115.998 213.171 115.993 213.168 115.991C218.094 119.696 220.222 125.663 220.222 130.229C220.222 147.314 209.097 150.545 209.097 163.558C209.097 167.341 209.802 170.108 209.802 170.108L215.616 174.488H215.611Z" fill="url(#paint15_linear_20_44)"/>
<path d="M214.511 180.405L208.697 176.022C208.697 176.022 208.677 176.009 208.669 176.002C210.76 177.563 212.046 180.056 212.046 182.935C212.046 189.728 205.89 194.016 200.892 194.016C198.771 194.016 196.888 193.343 195.42 192.203C195.45 192.226 195.48 192.251 195.51 192.276L201.322 196.656C202.778 197.753 204.625 198.396 206.704 198.396C211.704 198.396 217.857 194.106 217.857 187.313C217.857 184.449 216.582 181.964 214.508 180.4L214.511 180.405Z" fill="url(#paint16_linear_20_44)"/>
<path d="M243.166 171.102C243.166 141.837 248.528 114.269 248.528 114.269L242.714 109.888C242.714 109.888 237.354 137.456 237.354 166.719L243.168 171.099L243.166 171.102Z" fill="#10069F"/>
<path d="M242.937 176.712L237.124 172.329C237.124 172.329 237.109 172.319 237.101 172.314C239.187 173.875 240.472 176.368 240.472 179.242C240.472 186.035 234.317 190.323 229.319 190.323C227.198 190.323 225.315 189.65 223.847 188.513C223.877 188.536 223.904 188.561 223.937 188.586L229.748 192.966C231.204 194.063 233.052 194.706 235.13 194.706C240.131 194.706 246.284 190.416 246.284 183.623C246.284 180.759 245.008 178.273 242.935 176.71L242.937 176.712Z" fill="url(#paint17_linear_20_44)"/>
<path d="M41.8666 152.473C41.8666 152.473 43.3652 152.119 45.3609 152.644C41.4172 146.827 36.0527 148.092 36.0527 148.092L41.8666 152.473Z" fill="#001A72"/>
<path d="M199.552 140.556C199.552 134.873 202.346 131.803 205.828 131.432C205.341 128.542 203.212 127.013 200.744 127.013C196.931 127.013 193.738 130.101 193.738 136.178C193.738 138.935 194.112 140.915 194.112 140.915L199.911 145.283C199.911 145.283 199.552 143.127 199.552 140.559V140.556Z" fill="url(#paint18_linear_20_44)"/>
<path d="M194.115 140.91L179.206 142.74L185.02 147.121C185.02 147.121 197.649 145.569 199.913 145.278L194.115 140.91Z" fill="#001A72"/>
<path d="M180.105 172.324C186.792 161.339 199.587 149.189 199.587 149.189L193.773 144.809C193.773 144.809 180.976 156.959 174.291 167.944L180.105 172.324Z" fill="url(#paint19_linear_20_44)"/>
<path d="M209.797 170.105L192.875 172.184L197.788 175.886C199.552 174.849 201.508 174.282 203.315 174.282C204.995 174.282 206.523 174.704 207.816 175.444L215.613 174.488L209.799 170.108L209.797 170.105Z" fill="#001A72"/>
<path d="M237.352 166.721L224.387 168.313L228.26 171.232C229.422 170.815 230.61 170.592 231.739 170.592C233.539 170.592 235.163 171.077 236.514 171.92L243.166 171.104L237.352 166.724V166.721Z" fill="#001A72"/>
<path d="M145.049 177.985L149.477 170.763L143.663 166.382L139.17 173.712L145.049 177.985Z" fill="#001A72"/>
<path d="M134.23 141.751C134.23 140.73 133.718 140.039 132.641 140.039C130.367 140.039 127.254 143.187 127.209 147.354C131.833 146.559 134.228 143.679 134.228 141.754L134.23 141.751Z" fill="url(#paint20_linear_20_44)"/>
<path d="M141.108 150.362C141.108 150.362 135.974 158.673 127.01 158.673C124.623 158.673 122.715 158.043 121.284 156.941C121.304 156.956 121.322 156.974 121.342 156.986L127.156 161.367C128.582 162.441 130.472 163.051 132.826 163.051C141.791 163.051 146.924 154.74 146.924 154.74L141.11 150.359L141.108 150.362Z" fill="#001A72"/>
<path d="M142.806 151.017C145.213 148.896 146.285 146.177 146.285 143.629C146.285 142.155 145.487 140.426 143.89 139.223L138.076 134.843C138.064 134.833 138.049 134.823 138.034 134.813C139.655 136.015 140.471 137.76 140.471 139.246C140.471 143.953 136.809 149.252 127.824 150.256C128.457 151.418 129.559 152.056 131.057 152.056C135.455 152.056 138.541 147.796 138.541 147.796L142.808 151.012L142.806 151.017Z" fill="url(#paint21_linear_20_44)"/>
<path d="M108.128 127.576C108.128 126.459 107.285 125.746 106.288 125.746C104.177 125.746 103.05 128.575 102.379 131.477L102.056 132.882C106.511 132.144 108.131 129.338 108.131 127.576H108.128Z" fill="url(#paint22_linear_20_44)"/>
<path d="M146.922 154.745L144.349 152.182L138.535 147.801L141.108 150.362L146.922 154.745Z" fill="#10069F"/>
<path d="M121.342 156.989C121.322 156.974 121.304 156.959 121.284 156.944C121.299 156.956 121.319 156.966 121.334 156.979C120.622 156.439 120.022 155.786 119.54 155.033C117.014 158.133 113.555 160.887 109.225 160.887C107.744 160.887 106.474 160.521 105.55 159.717C105.62 159.778 105.688 159.843 105.763 159.898L111.577 164.279C112.478 164.959 113.671 165.268 115.039 165.268C119.196 165.268 122.552 162.73 125.047 159.783L121.342 156.989Z" fill="url(#paint23_linear_20_44)"/>
<path d="M118.046 149.245C118.046 146.626 118.543 144.206 119.465 142.085C119.276 141.864 119.065 141.666 118.837 141.493L113.023 137.112C113.011 137.105 113.001 137.097 112.988 137.087C114.173 137.961 114.851 139.492 114.851 141.505C114.851 146.014 110.847 154.007 114.562 154.007C115.797 154.007 117.072 152.812 118.197 151.288C118.096 150.635 118.046 149.952 118.046 149.242V149.245Z" fill="url(#paint24_linear_20_44)"/>
<path d="M101.267 165.85L104.091 153.623C104.335 151.805 104.872 149.998 105.306 148.356L105.798 146.227C105.891 145.703 105.952 145.206 105.952 144.749C105.952 144.003 105.47 143.458 104.717 143.458C100.351 143.458 97.143 154.496 95.9581 159.288L95.7447 160.212L95.4561 161.467L101.27 165.848L101.267 165.85Z" fill="url(#paint25_linear_20_44)"/>
<path d="M95.4534 161.47L87.0967 162.496L92.9105 166.877L101.267 165.85L95.4534 161.47Z" fill="#001A72"/>
<path d="M73.9284 148.411C73.9284 148.411 73.6095 144.779 76.7248 142.715L78.0578 136.942H76.4813C68.5865 136.942 68.1045 142.406 68.1045 143.739C68.1045 143.925 68.1145 144.031 68.1145 144.031L73.9284 148.411Z" fill="url(#paint26_linear_20_44)"/>
<path d="M86.3063 136.939L82.6112 152.927C82.3777 153.939 82.207 154.89 82.207 155.676C82.207 156.921 82.6313 157.752 83.904 157.752C87.0695 157.752 89.6701 150.392 91.972 141.207L86.3063 136.937V136.939Z" fill="#10069F"/>
<path d="M92.9966 136.939H86.3066L91.9724 141.209C92.3213 139.821 92.6627 138.393 92.9966 136.939Z" fill="#001A72"/>
<path d="M87.4209 132.112C89.6249 132.37 91.829 132.616 93.9527 132.792L94.3744 130.965C94.5627 130.149 94.8011 129.403 95.0798 128.718L95.0522 128.625L89.2384 124.245L87.4209 132.112Z" fill="#10069F"/>
<path d="M87.0974 162.496L88.0137 158.533C85.7594 161.859 82.6417 164.663 78.5348 164.663C77.0839 164.663 75.9969 164.299 75.2012 163.689C75.2087 163.696 75.2162 163.701 75.2238 163.709L81.0376 168.089C81.8308 168.687 82.9103 169.043 84.3487 169.043C87.1803 169.043 89.5399 167.71 91.4728 165.792L87.0974 162.496Z" fill="url(#paint27_linear_20_44)"/>
<path d="M68.1142 144.031C68.1142 144.031 66.6507 143.687 65.2676 142.632C65.2776 142.64 65.2902 142.65 65.3002 142.658L71.114 147.038C72.4872 148.072 73.9281 148.411 73.9281 148.411L68.1142 144.031Z" fill="#10069F"/>
<path d="M99.751 142.856C99.751 142.856 101.076 140.526 103.579 138.639L101.149 136.806L99.7535 142.856H99.751Z" fill="#10069F"/>
<path d="M116.545 127.227L110.731 122.846C112.067 123.853 112.915 125.382 112.915 127.34C112.915 131.851 108.801 136.015 101.149 136.804L103.579 138.636C105.284 137.348 107.533 136.266 110.282 136.266C111.366 136.266 112.29 136.565 113.021 137.115V137.112C113.021 137.112 113.841 137.732 114.868 138.503C117.406 136.721 118.729 134.276 118.729 131.72C118.729 129.762 117.878 128.231 116.545 127.227Z" fill="url(#paint28_linear_20_44)"/>
<path d="M125.506 158.548C125.506 158.548 125.521 158.548 125.526 158.55C125.518 158.55 125.511 158.55 125.506 158.548Z" fill="#001A72"/>
<path d="M123.601 158.071C123.601 158.071 123.621 158.078 123.631 158.081C123.621 158.078 123.611 158.073 123.601 158.071Z" fill="#001A72"/>
<path d="M121.986 157.262C121.986 157.262 122.009 157.277 122.021 157.285C122.009 157.277 121.999 157.27 121.986 157.262Z" fill="#001A72"/>
<path d="M123.041 157.842C123.041 157.842 123.056 157.847 123.061 157.852C123.053 157.85 123.046 157.847 123.041 157.842Z" fill="#001A72"/>
<path d="M37.9767 135.029L11.6689 138.257C11.6689 138.257 16.9857 153.098 16.9857 175.884C16.9857 198.67 11.9777 216.365 11.9777 216.365L38.3909 213.121C65.261 209.82 69.6641 188.767 69.6641 169.209C69.6641 148.474 59.8941 132.34 37.9767 135.029ZM36.0514 200.311C36.0514 200.311 34.3218 192.57 34.3218 173.24C34.3218 156.218 36.0514 148.092 36.0514 148.092C36.0514 148.092 49.4663 144.922 49.4663 171.604C49.4663 200.454 36.0514 200.309 36.0514 200.309V200.311Z" fill="#F7EDD8"/>
<path d="M106.35 189.728C106.35 189.728 101.264 194.967 94.6167 194.967C91.996 194.967 89.817 193.99 88.5468 192.118C97.1646 190.968 107.53 187.21 107.53 176.569C107.53 169.319 101.972 165.496 94.6644 165.496C84.7086 165.496 70.7891 173.14 70.7891 190.017C70.7891 202.42 78.9626 207.822 87.6883 207.822C101.839 207.822 110.025 196.169 110.025 196.169L106.347 189.726L106.35 189.728ZM94.2326 175.871C95.8467 175.871 97.0994 176.931 97.0994 178.776C97.0994 183.113 92.6009 185.45 87.3946 186.372C87.8364 180.063 91.263 175.874 94.2326 175.874V175.871Z" fill="#F7EDD8"/>
<path d="M143.663 166.382L139.169 173.712C139.169 173.712 137.354 171.431 134.523 171.431C130.195 171.431 126.834 176.311 126.834 182.37C126.834 187.853 129.826 190.378 132.891 190.378C136.172 190.378 138.735 187.348 138.735 187.348L142.749 193.262C142.749 193.262 137.435 203.143 126.118 203.143C117.445 203.143 110.027 197.949 110.027 184.896C110.027 169.606 121.133 161.023 131.882 161.023C139.865 161.023 143.663 166.382 143.663 166.382Z" fill="#F7EDD8"/>
<path d="M193.772 144.809L170.422 147.676C170.422 147.676 167.688 156.253 162.359 163.508C162.514 136.598 166.096 119.297 166.096 119.297L143.278 122.098C143.278 122.098 146.496 138.86 146.496 161.312C146.496 188.769 143.275 200.244 143.275 200.244L163.895 197.711C163.895 197.711 163.084 190.976 162.637 179.805C165.268 184.356 168.25 190.175 170.831 196.86L192.141 194.244C178.377 178.74 174.287 167.946 174.287 167.946C180.975 156.961 193.77 144.811 193.77 144.811L193.772 144.809Z" fill="#F7EDD8"/>
<path d="M193.738 136.176C193.738 130.099 196.931 127.011 200.744 127.011C203.56 127.011 205.933 128.997 205.933 132.725C205.933 142.354 192.457 146.837 192.457 166.686C192.457 169.392 192.874 172.184 192.874 172.184L209.796 170.105C209.796 170.105 209.091 167.339 209.091 163.556C209.091 150.543 220.216 147.312 220.216 130.227C220.216 123.095 215.02 112.539 202.084 112.539C184.778 112.539 178.653 124.456 178.653 135.764C178.653 140.019 179.206 142.743 179.206 142.743L194.114 140.913C194.114 140.913 193.74 138.932 193.74 136.176H193.738Z" fill="#F7EDD8"/>
<path d="M212.045 182.935C212.045 189.728 205.89 194.016 200.892 194.016C195.894 194.016 192.161 190.24 192.161 185.363C192.161 178.57 198.316 174.282 203.314 174.282C208.312 174.282 212.045 178.058 212.045 182.935Z" fill="#F7EDD8"/>
<path d="M237.35 166.721C237.35 137.459 242.712 109.891 242.712 109.891L221.989 112.436C221.989 112.436 224.387 128.221 224.387 168.315L237.352 166.724L237.35 166.721Z" fill="#F7EDD8"/>
<path d="M240.468 179.243C240.468 186.035 234.313 190.323 229.315 190.323C224.317 190.323 220.584 186.547 220.584 181.67C220.584 174.877 226.739 170.59 231.737 170.59C236.735 170.59 240.468 174.365 240.468 179.243Z" fill="#F7EDD8"/>
<path d="M138.534 147.801C138.534 147.801 135.449 152.061 131.051 152.061C129.552 152.061 128.45 151.424 127.818 150.261C136.804 149.257 140.464 143.958 140.464 139.251C140.464 136.688 138.05 133.359 133.24 133.359C124.105 133.359 118.043 140.092 118.043 149.25C118.043 149.958 118.093 150.64 118.193 151.293C117.069 152.817 115.793 154.014 114.558 154.014C113.323 154.014 112.979 153.211 112.979 151.971C112.979 149.297 114.847 144.591 114.847 141.513C114.847 138.267 113.092 136.271 110.278 136.271C103.498 136.271 99.7476 142.858 99.7476 142.858L101.143 136.809C108.795 136.02 112.909 131.856 112.909 127.345C112.909 123.657 109.892 121.486 106.309 121.486C102.727 121.486 96.2382 122.874 94.3681 130.97L93.9463 132.797C91.8226 132.619 89.6161 132.375 87.4146 132.117L89.232 124.25L85.936 124.654C84.0332 130.104 79.831 130.997 77.6772 130.997C76.8889 130.997 74.9284 130.751 72.3453 130.751C66.7248 130.751 62.8389 133.282 62.8389 137.808C62.8389 142.798 68.1054 144.036 68.1054 144.036C68.1054 144.036 68.0954 143.93 68.0954 143.745C68.0954 142.412 68.5774 136.947 76.4722 136.947H78.0487L73.6883 155.847C73.4574 156.848 73.3118 157.91 73.3118 158.939C73.3118 161.954 74.5594 164.67 78.5256 164.67C82.4919 164.67 85.7502 161.866 88.0045 158.54L87.0882 162.504L95.4475 161.477L95.9495 159.298C97.1369 154.506 100.343 143.468 104.708 143.468C105.461 143.468 105.943 144.013 105.943 144.759C105.943 147.482 103.947 151.582 103.947 155.47C103.947 159.359 106.131 160.892 109.216 160.892C113.547 160.892 117.008 158.139 119.531 155.038C120.975 157.3 123.462 158.681 127.002 158.681C135.966 158.681 141.1 150.369 141.1 150.369L138.527 147.806L138.534 147.801ZM106.287 125.746C107.283 125.746 108.127 126.459 108.127 127.576C108.127 129.338 106.508 132.145 102.052 132.883L102.376 131.477C103.046 128.577 104.173 125.746 106.284 125.746H106.287ZM83.9027 157.754C82.6325 157.754 82.2057 156.924 82.2057 155.678C82.2057 154.893 82.3764 153.941 82.6099 152.93L86.305 136.942H92.9949C90.4395 148.005 87.5476 157.757 83.9027 157.757V157.754ZM132.64 140.039C133.717 140.039 134.229 140.73 134.229 141.751C134.229 143.677 131.834 146.556 127.21 147.352C127.255 143.187 130.366 140.037 132.642 140.037L132.64 140.039Z" fill="#F7EDD8"/>
<path d="M70.8168 103.178C70.8168 103.178 63.5093 90.7047 62.0659 75.2765L47.3757 77.0814C47.3757 77.0814 46.1783 95.419 38.4843 107.248C38.4843 107.248 36.8425 85.9377 42.6438 56.8108L18.2137 59.8106C18.2137 59.8106 21.8662 75.4848 21.8662 91.5431C21.8662 113.757 18.1484 130.089 18.1484 130.089L44.4663 126.858C47.4485 113.227 54.3819 102.169 54.3819 102.169C54.3819 102.169 60.3338 112.732 63.1704 124.561L89.3452 121.345C89.3452 121.345 86.1069 102.696 86.1069 87.1175C86.1069 71.5387 89.4757 51.0573 89.4757 51.0573L67.2923 53.7809C72.1598 76.9559 70.8142 103.176 70.8142 103.176L70.8168 103.178Z" fill="#F8A3BC"/>
<path d="M113.102 118.428C113.102 118.428 110.919 111.4 110.919 102.312C110.919 92.5021 113.665 86.864 117.649 86.864C119.973 86.864 121.688 88.2597 121.688 91.7239C121.688 97.3896 120.028 101.878 120.028 111.251C120.028 127.438 128.395 132.122 128.395 132.122L143.359 116.937C143.359 116.937 136.496 111.902 136.496 102.983C136.496 92.3565 138.13 89.2011 138.13 81.7003C138.13 73.4791 133.112 70.281 126.972 70.281C115.194 70.281 110.906 82.5061 110.906 82.5061C110.906 65.5818 116.2 47.7738 116.2 47.7738L91.8705 50.761C91.8705 50.761 95.4326 64.5174 95.4326 84.1328C95.4326 105.337 91.7676 121.044 91.7676 121.044L113.097 118.426L113.102 118.428Z" fill="#F8A3BC"/>
<path d="M192.096 96.0792C192.096 96.0792 190.372 97.2866 188.062 97.2866C185.753 97.2866 184.026 95.8608 184.026 91.6535C184.026 82.117 186.074 73.4615 186.074 62.356C186.074 51.2505 180.419 40.765 163.04 40.765C144.717 40.765 128.611 54.5189 128.611 54.5189L140.874 72.5478C140.874 72.5478 148.47 56.8233 160.442 56.8233C168.52 56.8233 169.439 65.3432 169.439 65.3432C159.867 65.3432 140.151 71.5863 140.151 95.1956C140.151 109.306 146.969 115.968 156.641 115.968C167.41 115.968 171.339 106.309 171.339 106.309C171.339 106.309 174.58 113.019 182.369 113.019C191.717 113.019 196.108 104.963 196.108 104.963L192.099 96.0792H192.096ZM162.081 100.427C158.961 100.427 157.434 97.3921 157.434 94.3973C157.434 81.1078 169.439 78.2235 169.439 78.2235C169.439 90.7021 167.152 100.43 162.081 100.43V100.427Z" fill="#F8A3BC"/>
<path d="M224.85 89.437C224.85 89.437 222.516 92.3966 219.001 92.3966C216.019 92.3966 214.006 90.9155 214.006 84.9285C214.006 80.2142 214.149 75.5425 214.382 71.0592C218.783 70.6174 223.643 70.3337 228.864 70.3337C228.864 70.3337 228.478 60.285 228.864 53.698C228.864 53.698 223.846 55.5958 215.404 57.1999C216.619 44.3246 218.188 35.2524 218.188 35.2524L194.99 38.1016C194.99 38.1016 196.527 48.0951 197.051 59.2859C194.762 59.3763 192.38 59.4114 189.92 59.3688C189.92 59.3688 189.972 66.4603 188.896 76.1977C188.896 76.1977 191.817 75.1409 196.996 73.9259C196.692 79.8828 196.195 85.9427 196.195 91.0586C196.195 102.598 201.191 109.379 211.792 109.379C224.486 109.379 230.544 98.7752 230.544 98.7752L224.845 89.4345L224.85 89.437Z" fill="#F8A3BC"/>
</g>
</g>
<defs>
<linearGradient id="paint0_linear_20_44" x1="27.1159" y1="92.1606" x2="96.7638" y2="39.678" gradientUnits="userSpaceOnUse">
<stop offset="0.08" stop-color="#10069F"/>
<stop offset="0.81" stop-color="#001A72"/>
</linearGradient>
<linearGradient id="paint1_linear_20_44" x1="42.436" y1="124.162" x2="60.6255" y2="110.453" gradientUnits="userSpaceOnUse">
<stop offset="0.08" stop-color="#10069F"/>
<stop offset="1" stop-color="#001A72"/>
</linearGradient>
<linearGradient id="paint2_linear_20_44" x1="74.5476" y1="101.707" x2="145.83" y2="47.9922" gradientUnits="userSpaceOnUse">
<stop offset="0.08" stop-color="#10069F"/>
<stop offset="0.81" stop-color="#001A72"/>
</linearGradient>
<linearGradient id="paint3_linear_20_44" x1="103.521" y1="72.7034" x2="142.268" y2="43.5062" gradientUnits="userSpaceOnUse">
<stop offset="0.08" stop-color="#10069F"/>
<stop offset="0.81" stop-color="#001A72"/>
</linearGradient>
<linearGradient id="paint4_linear_20_44" x1="127.562" y1="107.453" x2="154.502" y2="87.1501" gradientUnits="userSpaceOnUse">
<stop offset="0.14" stop-color="#10069F"/>
<stop offset="0.45" stop-color="#001A72"/>
<stop offset="0.82" stop-color="#10069F"/>
</linearGradient>
<linearGradient id="paint5_linear_20_44" x1="108.197" y1="111.922" x2="127.579" y2="97.3168" gradientUnits="userSpaceOnUse">
<stop offset="0.41" stop-color="#10069F"/>
<stop offset="0.97" stop-color="#001A72"/>
</linearGradient>
<linearGradient id="paint6_linear_20_44" x1="150.265" y1="100.658" x2="177.04" y2="80.4829" gradientUnits="userSpaceOnUse">
<stop offset="0.23" stop-color="#10069F"/>
<stop offset="0.77" stop-color="#001A72"/>
</linearGradient>
<linearGradient id="paint7_linear_20_44" x1="133.142" y1="80.6811" x2="170.46" y2="52.5584" gradientUnits="userSpaceOnUse">
<stop offset="0.26" stop-color="#10069F"/>
<stop offset="0.75" stop-color="#001A72"/>
</linearGradient>
<linearGradient id="paint8_linear_20_44" x1="152.996" y1="94.5705" x2="198.568" y2="60.2273" gradientUnits="userSpaceOnUse">
<stop stop-color="#001A72"/>
<stop offset="0.24" stop-color="#021778"/>
<stop offset="0.56" stop-color="#080F89"/>
<stop offset="0.84" stop-color="#10069F"/>
</linearGradient>
<linearGradient id="paint9_linear_20_44" x1="211.461" y1="51.961" x2="240.229" y2="30.2821" gradientUnits="userSpaceOnUse">
<stop offset="0.26" stop-color="#10069F"/>
<stop offset="0.75" stop-color="#001A72"/>
</linearGradient>
<linearGradient id="paint10_linear_20_44" x1="9.24983" y1="213.214" x2="77.9011" y2="161.48" gradientUnits="userSpaceOnUse">
<stop offset="0.29" stop-color="#001A72"/>
<stop offset="0.93" stop-color="#10069F"/>
</linearGradient>
<linearGradient id="paint11_linear_20_44" x1="86.5064" y1="185.192" x2="96.8739" y2="177.377" gradientUnits="userSpaceOnUse">
<stop offset="0.37" stop-color="#10069F"/>
<stop offset="0.67" stop-color="#001A72"/>
</linearGradient>
<linearGradient id="paint12_linear_20_44" x1="88.8607" y1="192.545" x2="111.9" y2="175.183" gradientUnits="userSpaceOnUse">
<stop offset="0.51" stop-color="#001A72"/>
<stop offset="0.84" stop-color="#10069F"/>
</linearGradient>
<linearGradient id="paint13_linear_20_44" x1="124.09" y1="187.519" x2="147.428" y2="169.934" gradientUnits="userSpaceOnUse">
<stop offset="0.07" stop-color="#10069F"/>
<stop offset="0.44" stop-color="#001A72"/>
<stop offset="0.91" stop-color="#10069F"/>
</linearGradient>
<linearGradient id="paint14_linear_20_44" x1="152.414" y1="150.306" x2="208.416" y2="108.106" gradientUnits="userSpaceOnUse">
<stop offset="0.2" stop-color="#10069F"/>
<stop offset="0.73" stop-color="#001A72"/>
</linearGradient>
<linearGradient id="paint15_linear_20_44" x1="199.507" y1="156.452" x2="229.786" y2="133.636" gradientUnits="userSpaceOnUse">
<stop stop-color="#10069F"/>
<stop offset="0.45" stop-color="#001A72"/>
<stop offset="1" stop-color="#10069F"/>
</linearGradient>
<linearGradient id="paint16_linear_20_44" x1="198.098" y1="195.76" x2="216.203" y2="182.117" gradientUnits="userSpaceOnUse">
<stop offset="0.48" stop-color="#001A72"/>
<stop offset="0.84" stop-color="#10069F"/>
</linearGradient>
<linearGradient id="paint17_linear_20_44" x1="226.525" y1="192.073" x2="244.632" y2="178.429" gradientUnits="userSpaceOnUse">
<stop offset="0.48" stop-color="#001A72"/>
<stop offset="0.84" stop-color="#10069F"/>
</linearGradient>
<linearGradient id="paint18_linear_20_44" x1="193.681" y1="140.336" x2="206.25" y2="130.867" gradientUnits="userSpaceOnUse">
<stop offset="0.37" stop-color="#10069F"/>
<stop offset="0.67" stop-color="#001A72"/>
</linearGradient>
<linearGradient id="paint19_linear_20_44" x1="174.366" y1="168.042" x2="212.048" y2="139.645" gradientUnits="userSpaceOnUse">
<stop offset="0.21" stop-color="#001A72"/>
<stop offset="0.46" stop-color="#04147E"/>
<stop offset="0.92" stop-color="#0F069D"/>
<stop offset="0.93" stop-color="#10069F"/>
</linearGradient>
<linearGradient id="paint20_linear_20_44" x1="125.186" y1="147.65" x2="134.2" y2="140.86" gradientUnits="userSpaceOnUse">
<stop offset="0.37" stop-color="#10069F"/>
<stop offset="0.8" stop-color="#001A72"/>
</linearGradient>
<linearGradient id="paint21_linear_20_44" x1="128.59" y1="151.828" x2="146.272" y2="138.503" gradientUnits="userSpaceOnUse">
<stop offset="0.51" stop-color="#001A72"/>
<stop offset="0.9" stop-color="#10069F"/>
</linearGradient>
<linearGradient id="paint22_linear_20_44" x1="101.539" y1="131.703" x2="108.276" y2="126.627" gradientUnits="userSpaceOnUse">
<stop offset="0.27" stop-color="#10069F"/>
<stop offset="0.87" stop-color="#001A72"/>
</linearGradient>
<linearGradient id="paint23_linear_20_44" x1="108.904" y1="164.889" x2="125.745" y2="152.199" gradientUnits="userSpaceOnUse">
<stop offset="0.49" stop-color="#001A72"/>
<stop offset="0.95" stop-color="#10069F"/>
</linearGradient>
<linearGradient id="paint24_linear_20_44" x1="109.84" y1="148.823" x2="119.216" y2="141.756" gradientUnits="userSpaceOnUse">
<stop offset="0.3" stop-color="#001A72"/>
<stop offset="0.9" stop-color="#10069F"/>
</linearGradient>
<linearGradient id="paint25_linear_20_44" x1="93.6813" y1="161.307" x2="108.645" y2="150.03" gradientUnits="userSpaceOnUse">
<stop offset="0.3" stop-color="#10069F"/>
<stop offset="0.88" stop-color="#001A72"/>
</linearGradient>
<linearGradient id="paint26_linear_20_44" x1="63.0136" y1="150.452" x2="77.4327" y2="139.587" gradientUnits="userSpaceOnUse">
<stop offset="0.3" stop-color="#10069F"/>
<stop offset="0.83" stop-color="#001A72"/>
</linearGradient>
<linearGradient id="paint27_linear_20_44" x1="75.6831" y1="170.589" x2="89.1282" y2="160.458" gradientUnits="userSpaceOnUse">
<stop offset="0.49" stop-color="#001A72"/>
<stop offset="0.86" stop-color="#10069F"/>
</linearGradient>
<linearGradient id="paint28_linear_20_44" x1="102.455" y1="138.475" x2="118.091" y2="126.695" gradientUnits="userSpaceOnUse">
<stop offset="0.58" stop-color="#001A72"/>
<stop offset="0.95" stop-color="#10069F"/>
</linearGradient>
<clipPath id="clip0_20_44">
<rect width="256" height="256" fill="white"/>
</clipPath>
<clipPath id="clip1_20_44">
<rect width="256" height="256" fill="white"/>
</clipPath>
</defs>
</svg>
