<svg width="32" height="32" viewBox="0 0 32 32" fill="none" xmlns="http://www.w3.org/2000/svg">
<g clip-path="url(#clip0_20_43)">
<rect width="32" height="32" fill="white"/>
<g clip-path="url(#clip1_20_43)">
<rect width="32" height="32" fill="white"/>
<g clip-path="url(#clip2_20_43)">
<path d="M32 0H0V32H32V0Z" fill="#003DA5"/>
<path d="M4.80903 13.4059C5.14259 12.8932 5.37824 12.2825 5.54423 11.7036C5.60103 10.6289 5.74066 9.23098 6.0557 7.64887L5.32898 7.10132C4.60382 10.7422 4.80903 13.4059 4.80903 13.4059Z" fill="url(#paint0_linear_20_43)"/>
<path d="M8.87203 11.7964C8.69976 11.2627 8.54663 10.6326 8.48356 9.95735L7.75684 9.40979C7.93726 11.3383 8.85069 12.8975 8.85069 12.8975C8.85069 12.8975 8.87234 12.4739 8.87203 11.7964Z" fill="#10069F"/>
<path d="M6.28337 16.405C6.52906 15.2813 6.9897 14.2979 7.27493 13.7579C7.01669 13.1626 6.79609 12.771 6.79609 12.771C6.79609 12.771 5.92942 14.1532 5.55664 15.8571L6.28337 16.405Z" fill="url(#paint1_linear_20_43)"/>
<path d="M11.8904 15.6989C11.854 15.4849 11.4884 13.2878 11.4884 11.4374C11.4884 9.58702 11.9095 6.92988 11.9095 6.92988L11.1828 6.38232C11.1828 6.38232 10.7617 9.01467 10.7617 10.8899C10.7617 12.765 11.1665 15.1683 11.1665 15.1683L11.8904 15.6993V15.6989Z" fill="url(#paint2_linear_20_43)"/>
<path d="M14.7083 9.17228C14.7083 9.17228 14.7076 9.1729 14.7073 9.1729C14.8978 7.70784 15.2508 6.51985 15.2508 6.51985L14.5241 5.97229C14.5241 5.97229 13.8623 8.19829 13.8623 10.3138C13.8623 10.3138 14.1039 9.62507 14.7083 9.17228Z" fill="url(#paint3_linear_20_43)"/>
<path d="M18.6452 15.1655C18.6452 15.1655 18.6415 15.1627 18.6402 15.1618C18.5702 15.1084 17.7873 14.4865 17.7873 13.4212C17.7873 12.0929 17.9916 11.6985 17.9916 10.7606C17.9916 10.3075 17.8696 9.97645 17.6675 9.7477C17.6182 9.69216 17.5646 9.64258 17.5065 9.59896L16.7798 9.05141C16.7754 9.04827 16.771 9.04513 16.7666 9.04199C17.0707 9.26447 17.2649 9.64132 17.2649 10.213C17.2649 11.1506 17.0606 11.5451 17.0606 12.8733C17.0606 13.9882 17.9185 14.6177 17.9185 14.6177L18.6452 15.1655Z" fill="url(#paint4_linear_20_43)"/>
<path d="M14.8627 15.3516C14.8627 15.3516 14.5897 14.473 14.5897 13.3371C14.5897 12.3029 14.8338 11.6398 15.2091 11.4575C15.2063 11.0311 14.9929 10.8585 14.7045 10.8585C14.2066 10.8585 13.8633 11.563 13.8633 12.7896C13.8633 13.9255 14.1363 14.8041 14.1363 14.8041L14.863 15.3519L14.8627 15.3516Z" fill="url(#paint5_linear_20_43)"/>
<path d="M14.136 14.8037L11.4697 15.1313L12.1965 15.6789L14.863 15.3516L14.136 14.8037Z" fill="#001A72"/>
<path d="M19.6777 11.7999C19.6777 12.1745 19.8685 12.5536 20.2586 12.5536C20.3147 12.5536 20.3681 12.5435 20.4189 12.525C20.4092 12.4667 20.4045 12.407 20.4045 12.3474C20.4045 11.5294 20.7685 11.0267 21.1381 10.727C21.1651 10.4324 21.1786 10.1133 21.1786 9.77783C21.1786 9.77783 19.678 10.1384 19.678 11.7996L19.6777 11.7999Z" fill="url(#paint6_linear_20_43)"/>
<path d="M18.5946 9.1801C18.5886 9.18575 18.5824 9.19108 18.5764 9.19673C18.9485 8.61936 19.7296 7.65071 20.7801 7.65071C20.8642 7.65071 20.942 7.65824 21.0142 7.67173C20.8639 7.39403 20.5812 7.10315 20.0534 7.10315C18.5569 7.10315 17.6074 9.0687 17.6074 9.0687L18.2513 9.55382C18.2497 9.55601 18.2482 9.5579 18.2466 9.56009C18.3545 9.42109 18.4716 9.29494 18.5946 9.1801Z" fill="url(#paint7_linear_20_43)"/>
<path d="M23.2579 7.79473C23.2579 9.18323 23.0019 10.2649 23.0019 11.4569C23.0019 11.9831 23.2168 12.1611 23.5064 12.1611C23.5893 12.1611 23.6658 12.1485 23.7333 12.1306C23.7301 12.0911 23.7289 12.049 23.7289 12.0045C23.7289 10.8124 23.9849 9.73047 23.9849 8.34197C23.9849 7.53648 23.7239 6.71311 23.031 6.19097L22.3046 5.64341C22.3046 5.64341 22.3034 5.64216 22.3027 5.64185C22.9971 6.16367 23.2588 6.98799 23.2588 7.79442L23.2579 7.79473Z" fill="url(#paint8_linear_20_43)"/>
<path d="M24.5119 13.1207C24.5119 13.1207 23.9631 14.1276 22.7945 14.1276C21.8209 14.1276 21.4158 13.2889 21.4158 13.2889C21.4158 13.2889 20.9247 14.4963 19.5786 14.4963C19.0894 14.4963 18.6589 14.3598 18.3193 14.0809C18.3382 14.0962 18.357 14.1113 18.3761 14.1257L19.1025 14.6733C19.4326 14.9221 19.8428 15.0439 20.305 15.0439C21.3696 15.0439 21.8993 14.2886 22.0744 13.9726L22.6028 14.3708C22.8218 14.5359 23.1243 14.6752 23.521 14.6752C24.6895 14.6752 25.2383 13.6682 25.2383 13.6682L24.5116 13.1204L24.5119 13.1207Z" fill="#001A72"/>
<path d="M29.3341 9.33985C29.3341 9.33985 29.2858 8.08377 29.3341 7.26008L28.6074 6.71252C28.5591 7.53621 28.6074 8.79198 28.6074 8.79198L29.3341 9.33954V9.33985Z" fill="#10069F"/>
<path d="M26.7971 8.88293C26.7679 9.44336 26.75 10.0273 26.75 10.6166C26.75 11.365 27.0017 11.5501 27.3744 11.5501C27.4193 11.5501 27.4626 11.546 27.5043 11.5391C27.4865 11.4337 27.4767 11.3094 27.4767 11.1642C27.4767 10.5749 27.4946 9.99091 27.5238 9.43049L26.7971 8.88293Z" fill="#10069F"/>
<path d="M28.8173 12.3474C28.8173 12.3474 28.0602 13.6729 26.4733 13.6729C25.9612 13.6729 25.5543 13.5458 25.2471 13.3073C25.2527 13.3117 25.2581 13.3167 25.2637 13.3208L25.9901 13.8683C26.2951 14.0984 26.6971 14.2201 27.1994 14.2201C28.7863 14.2201 29.5434 12.8947 29.5434 12.8947L28.8167 12.3468L28.8173 12.3474Z" fill="#001A72"/>
<path d="M24.5797 10.0116C24.595 9.75683 24.6111 9.49827 24.6239 9.24097C23.9766 9.39284 23.6113 9.52494 23.6113 9.52494L24.3381 10.0725C24.3381 10.0725 24.4218 10.0421 24.5806 9.99374C24.5803 9.9997 24.58 10.0053 24.5797 10.0113V10.0116Z" fill="#001A72"/>
<path d="M27.7259 6.9745C27.7805 6.4806 27.836 6.05448 27.8825 5.72281C27.9506 5.23801 27.9995 4.95466 27.9995 4.95466L27.2728 4.4071C27.2728 4.4071 27.077 5.54113 26.9248 7.15053C27.2292 7.0928 27.4975 7.03192 27.7259 6.9745Z" fill="url(#paint9_linear_20_43)"/>
<path d="M5.55699 15.8572L2.26758 16.2613L2.99399 16.8092L6.28372 16.405L5.55699 15.8572Z" fill="#001A72"/>
<path d="M11.1664 15.1683L7.89453 15.5703L8.62126 16.1182C8.62126 16.1182 11.8922 15.7165 11.8903 15.6993L11.1664 15.1683Z" fill="#001A72"/>
<path d="M25.2389 13.6685L24.7378 12.558L24.0107 12.0101L24.5122 13.1206L25.2389 13.6685Z" fill="#10069F"/>
<path d="M29.5445 12.8953L28.8322 11.7277L28.1055 11.1798L28.8178 12.3474L29.5445 12.8953Z" fill="#10069F"/>
<path d="M28.6071 8.79224C27.9541 8.79224 27.3469 8.82769 26.7969 8.88292L27.5236 9.43048C28.074 9.37525 28.6812 9.33979 29.3338 9.33979L28.6071 8.79224Z" fill="#001A72"/>
<path d="M17.9183 14.6177L16.0479 16.5158L16.7749 17.0636L18.6454 15.1655L17.9183 14.6177Z" fill="#001A72"/>
<path d="M4.50526 18.5117C4.50526 18.5117 4.28906 19.5274 4.28906 21.6552C4.28906 24.0714 4.50526 25.0391 4.50526 25.0391C4.50526 25.0391 4.78924 25.0419 5.12342 24.7943C5.06945 24.2502 5.0161 23.4061 5.0161 22.2028C5.0161 20.075 5.2323 19.0593 5.2323 19.0593L4.50557 18.5117H4.50526Z" fill="#10069F"/>
<path d="M7.98267 17.9858H7.98236L7.25595 17.4382H7.25563C7.24183 17.4276 7.22802 17.4175 7.2139 17.4075C8.23307 18.1461 8.70689 19.5371 8.70689 21.1512C8.70689 23.596 8.15651 26.2277 4.79775 26.6403L1.49609 27.0457L2.22282 27.5936L5.52479 27.1879C8.88355 26.7752 9.43393 24.1435 9.43393 21.6988C9.43393 20.107 8.9733 18.732 7.98299 17.9858H7.98267Z" fill="url(#paint10_linear_20_43)"/>
<path d="M12.1359 22.3468C12.1359 22.1162 11.9797 21.9838 11.7776 21.9838C11.4064 21.9838 10.9781 22.5075 10.9229 23.296C11.5733 23.1809 12.1359 22.8887 12.1359 22.3465V22.3468Z" fill="url(#paint11_linear_20_43)"/>
<path d="M13.7523 24.5214C13.7523 24.5214 12.7291 25.978 10.9603 25.978C10.4516 25.978 9.95836 25.8311 9.57617 25.5173C9.59594 25.5336 9.61602 25.5496 9.63673 25.5653L10.3631 26.1129C10.7359 26.3937 11.2044 26.5258 11.6864 26.5258C13.4552 26.5258 14.4784 25.0689 14.4784 25.0689L13.7517 24.5214H13.7523Z" fill="#001A72"/>
<path d="M14.4797 25.0692L14.0197 24.2637L13.293 23.7162L13.7527 24.5214L14.4797 25.0692Z" fill="#10069F"/>
<path d="M13.2928 23.7161C13.2928 23.7161 12.657 24.371 11.8261 24.371C11.4985 24.371 11.2262 24.249 11.0674 24.0149C12.1446 23.8712 13.4402 23.4014 13.4402 22.0713C13.4402 21.5943 13.2476 21.2363 12.9322 21.0038C12.936 21.0066 12.9397 21.0091 12.9435 21.0119L13.6702 21.5595C13.979 21.7923 14.1666 22.1475 14.1666 22.6188C14.1666 23.199 13.9203 23.6154 13.5529 23.9126L13.2921 23.7161H13.2928Z" fill="url(#paint12_linear_20_43)"/>
<path d="M18.683 21.3455C18.683 21.3455 18.5851 21.2074 18.3852 21.0568L17.6585 20.5093C17.6557 20.5071 17.6522 20.5049 17.6494 20.5027C17.8556 20.6561 17.9563 20.798 17.9563 20.798L18.683 21.3455Z" fill="#10069F"/>
<path d="M17.3955 21.7142C17.3955 21.7142 17.1686 21.429 16.8146 21.429C16.2737 21.429 15.8535 22.039 15.8535 22.7964C15.8535 23.4817 16.2275 23.7974 16.6107 23.7974C16.6229 23.7974 16.6348 23.7971 16.6468 23.7965C16.6044 23.6691 16.5802 23.5188 16.5802 23.3443C16.5802 22.5868 17.0004 21.9768 17.5414 21.9768C17.7102 21.9768 17.8787 22.0587 17.9976 22.1482L18.1307 22.2486L17.3955 21.7145V21.7142Z" fill="url(#paint13_linear_20_43)"/>
<path d="M17.8422 24.158C17.8422 24.158 17.1779 25.393 15.7634 25.393C15.2921 25.393 14.8509 25.2703 14.502 24.9977C14.5098 25.0039 14.5176 25.0099 14.5255 25.0159L15.2519 25.5634C15.5968 25.8232 16.0291 25.9406 16.4898 25.9406C17.9043 25.9406 18.5686 24.7055 18.5686 24.7055L17.8419 24.158H17.8422Z" fill="#001A72"/>
<path d="M18.5693 24.7055L18.0675 23.9663L17.3408 23.4187L17.8426 24.158L18.5693 24.7055Z" fill="#10069F"/>
<path d="M21.0815 19.0311C21.2086 16.8079 21.4879 15.4595 21.4879 15.4595L20.7612 14.912C20.7612 14.912 20.3134 17.0743 20.2939 20.4384C20.6501 19.9533 20.9137 19.4214 21.0815 19.0311Z" fill="url(#paint14_linear_20_43)"/>
<path d="M21.213 25.2619C21.213 25.2619 21.1581 24.8066 21.107 24.0102C20.8497 23.4232 20.5767 22.9045 20.3291 22.4758C20.385 23.8722 20.4863 24.7141 20.4863 24.7141L21.213 25.2619Z" fill="#10069F"/>
<path d="M20.4856 24.714L17.9082 25.0306L18.6346 25.5782L21.2124 25.2619L20.4856 24.714Z" fill="#001A72"/>
<path d="M21.7852 20.9932C21.7852 20.9932 22.2963 22.3424 24.0168 24.2804L24.7435 24.8283C23.023 22.89 22.5119 21.5407 22.5119 21.5407L21.7852 20.9932Z" fill="#10069F"/>
<path d="M24.0172 24.2804L21.3535 24.6077L22.0802 25.1552L24.744 24.8283L24.0172 24.2804Z" fill="#001A72"/>
<path d="M26.95 21.8112C26.95 21.8112 26.8618 21.4654 26.8618 20.9925C26.8618 19.3658 28.2525 18.962 28.2525 16.8264C28.2525 16.2562 27.9868 15.5107 27.3721 15.0475L26.6456 14.5C26.6456 14.5 26.645 14.4993 26.6447 14.499C27.2603 14.9622 27.5264 15.708 27.5264 16.2788C27.5264 18.4144 26.1357 18.8183 26.1357 20.445C26.1357 20.9178 26.2239 21.2636 26.2239 21.2636L26.9506 21.8112H26.95Z" fill="url(#paint15_linear_20_43)"/>
<path d="M26.8121 22.5507L26.0854 22.0029C26.0854 22.0029 26.0829 22.0013 26.0819 22.0004C26.3433 22.1955 26.504 22.5071 26.504 22.867C26.504 23.7161 25.7346 24.2521 25.1098 24.2521C24.8447 24.2521 24.6093 24.168 24.4258 24.0255C24.4295 24.0284 24.4333 24.0315 24.4371 24.0346L25.1635 24.5822C25.3455 24.7193 25.5764 24.7996 25.8362 24.7996C26.4613 24.7996 27.2304 24.2634 27.2304 23.4143C27.2304 23.0563 27.071 22.7456 26.8118 22.5501L26.8121 22.5507Z" fill="url(#paint16_linear_20_43)"/>
<path d="M30.3944 21.3879C30.3944 17.7298 31.0646 14.2838 31.0646 14.2838L30.3379 13.7362C30.3379 13.7362 29.668 17.1822 29.668 20.84L30.3947 21.3876L30.3944 21.3879Z" fill="#10069F"/>
<path d="M30.3658 22.0892L29.6391 21.5413C29.6391 21.5413 29.6372 21.5401 29.6363 21.5394C29.897 21.7346 30.0577 22.0462 30.0577 22.4055C30.0577 23.2546 29.2883 23.7905 28.6635 23.7905C28.3984 23.7905 28.1631 23.7064 27.9795 23.5643C27.9833 23.5671 27.9867 23.5702 27.9908 23.5734L28.7172 24.1209C28.8992 24.2581 29.1301 24.3384 29.39 24.3384C30.015 24.3384 30.7841 23.8021 30.7841 22.953C30.7841 22.595 30.6247 22.2844 30.3655 22.0889L30.3658 22.0892Z" fill="url(#paint17_linear_20_43)"/>
<path d="M5.23259 19.0593C5.23259 19.0593 5.41992 19.015 5.66938 19.0806C5.17642 18.3536 4.50586 18.5117 4.50586 18.5117L5.23259 19.0593Z" fill="#001A72"/>
<path d="M24.9425 17.5697C24.9425 16.8593 25.2918 16.4755 25.727 16.4291C25.6661 16.0679 25.4 15.8768 25.0916 15.8768C24.615 15.8768 24.2158 16.2628 24.2158 17.0225C24.2158 17.367 24.2626 17.6146 24.2626 17.6146L24.9874 18.1606C24.9874 18.1606 24.9425 17.891 24.9425 17.57V17.5697Z" fill="url(#paint18_linear_20_43)"/>
<path d="M24.263 17.614L22.3994 17.8428L23.1261 18.3903C23.1261 18.3903 24.7048 18.1964 24.9878 18.16L24.263 17.614Z" fill="#001A72"/>
<path d="M22.5119 21.5407C23.3478 20.1676 24.9472 18.6489 24.9472 18.6489L24.2204 18.1013C24.2204 18.1013 22.6208 19.62 21.7852 20.9932L22.5119 21.5407Z" fill="url(#paint19_linear_20_43)"/>
<path d="M26.2236 21.2633L24.1084 21.5231L24.7225 21.986C24.9431 21.8564 25.1875 21.7854 25.4134 21.7854C25.6234 21.7854 25.8145 21.8382 25.9761 21.9307L26.9507 21.8112L26.2239 21.2636L26.2236 21.2633Z" fill="#001A72"/>
<path d="M29.6676 20.8403L28.0469 21.0393L28.531 21.4042C28.6763 21.3521 28.8248 21.3242 28.966 21.3242C29.1909 21.3242 29.394 21.3848 29.5628 21.4902L30.3943 21.3882L29.6676 20.8406V20.8403Z" fill="#001A72"/>
<path d="M18.1294 22.2483L18.6829 21.3455L17.9562 20.798L17.3945 21.7142L18.1294 22.2483Z" fill="#001A72"/>
<path d="M16.7781 17.7191C16.7781 17.5914 16.714 17.5051 16.5794 17.5051C16.2951 17.5051 15.906 17.8986 15.9004 18.4195C16.4784 18.32 16.7777 17.9601 16.7777 17.7194L16.7781 17.7191Z" fill="url(#paint20_linear_20_43)"/>
<path d="M17.6371 18.7954C17.6371 18.7954 16.9955 19.8343 15.8749 19.8343C15.5765 19.8343 15.338 19.7555 15.1592 19.6178C15.1617 19.6197 15.1639 19.6219 15.1664 19.6234L15.8931 20.171C16.0714 20.3053 16.3076 20.3815 16.602 20.3815C17.7225 20.3815 18.3642 19.3426 18.3642 19.3426L17.6375 18.795L17.6371 18.7954Z" fill="#001A72"/>
<path d="M17.8492 18.8773C18.1502 18.6121 18.2841 18.2723 18.2841 17.9538C18.2841 17.7696 18.1844 17.5534 17.9848 17.4031L17.2581 16.8556C17.2565 16.8543 17.2546 16.8531 17.2527 16.8518C17.4554 17.0021 17.5574 17.2202 17.5574 17.406C17.5574 17.9943 17.0996 18.6567 15.9766 18.7822C16.0556 18.9275 16.1934 19.0072 16.3807 19.0072C16.9305 19.0072 17.3161 18.4747 17.3161 18.4747L17.8495 18.8767L17.8492 18.8773Z" fill="url(#paint21_linear_20_43)"/>
<path d="M13.5149 15.9471C13.5149 15.8075 13.4095 15.7184 13.2849 15.7184C13.021 15.7184 12.8801 16.072 12.7963 16.4348L12.7559 16.6105C13.3128 16.5182 13.5152 16.1674 13.5152 15.9471H13.5149Z" fill="url(#paint22_linear_20_43)"/>
<path d="M18.3638 19.3433L18.0422 19.0229L17.3154 18.4753L17.6371 18.7954L18.3638 19.3433Z" fill="#10069F"/>
<path d="M15.1664 19.6237C15.1639 19.6218 15.1617 19.6199 15.1592 19.6181C15.1611 19.6196 15.1636 19.6209 15.1655 19.6225C15.0764 19.555 15.0014 19.4734 14.9411 19.3793C14.6254 19.7668 14.193 20.111 13.6518 20.111C13.4666 20.111 13.3079 20.0652 13.1924 19.9648C13.2012 19.9723 13.2096 19.9805 13.2191 19.9874L13.9458 20.5349C14.0584 20.62 14.2075 20.6586 14.3785 20.6586C14.8981 20.6586 15.3177 20.3413 15.6296 19.973L15.1664 19.6237Z" fill="url(#paint23_linear_20_43)"/>
<path d="M14.7541 18.6558C14.7541 18.3285 14.8162 18.026 14.9314 17.7609C14.9078 17.7332 14.8815 17.7085 14.8529 17.6868L14.1262 17.1392C14.1246 17.1383 14.1234 17.1374 14.1218 17.1361C14.2699 17.2453 14.3546 17.4367 14.3546 17.6884C14.3546 18.2519 13.8541 19.251 14.3185 19.251C14.4729 19.251 14.6323 19.1017 14.7729 18.9112C14.7603 18.8296 14.7541 18.7443 14.7541 18.6555V18.6558Z" fill="url(#paint24_linear_20_43)"/>
<path d="M12.6581 20.7315L13.0111 19.203C13.0415 18.9758 13.1087 18.7499 13.1629 18.5447L13.2244 18.2786C13.236 18.213 13.2436 18.1509 13.2436 18.0938C13.2436 18.0006 13.1833 17.9325 13.0892 17.9325C12.5435 17.9325 12.1425 19.3122 11.9944 19.9112L11.9677 20.0267L11.9316 20.1836L12.6584 20.7312L12.6581 20.7315Z" fill="url(#paint25_linear_20_43)"/>
<path d="M11.9313 20.184L10.8867 20.3123L11.6134 20.8599L12.658 20.7315L11.9313 20.184Z" fill="#001A72"/>
<path d="M9.2397 18.5516C9.2397 18.5516 9.19985 18.0976 9.58926 17.8396L9.75588 17.1179H9.55882C8.57197 17.1179 8.51172 17.801 8.51172 17.9677C8.51172 17.9909 8.51297 18.0041 8.51297 18.0041L9.2397 18.5516Z" fill="url(#paint26_linear_20_43)"/>
<path d="M10.7878 17.1176L10.3259 19.1161C10.2967 19.2426 10.2754 19.3615 10.2754 19.4597C10.2754 19.6154 10.3284 19.7192 10.4875 19.7192C10.8832 19.7192 11.2083 18.7992 11.496 17.6511L10.7878 17.1173V17.1176Z" fill="#10069F"/>
<path d="M11.6243 17.1177H10.7881L11.4963 17.6514C11.5399 17.4779 11.5826 17.2994 11.6243 17.1177Z" fill="#001A72"/>
<path d="M10.9268 16.5142C11.2023 16.5465 11.4778 16.5772 11.7432 16.5992L11.7959 16.3708C11.8195 16.2688 11.8493 16.1756 11.8841 16.0899L11.8807 16.0783L11.1539 15.5308L10.9268 16.5142Z" fill="#10069F"/>
<path d="M10.8855 20.3122L11 19.8168C10.7182 20.2325 10.3285 20.583 9.81514 20.583C9.63378 20.583 9.49791 20.5375 9.39844 20.4613C9.39938 20.4622 9.40032 20.4629 9.40126 20.4638L10.128 21.0114C10.2271 21.086 10.3621 21.1306 10.5419 21.1306C10.8958 21.1306 11.1908 20.964 11.4324 20.7242L10.8855 20.3122Z" fill="url(#paint27_linear_20_43)"/>
<path d="M8.51306 18.004C8.51306 18.004 8.33012 17.961 8.15723 17.8292C8.15848 17.8302 8.16005 17.8314 8.16131 17.8324L8.88803 18.3799C9.05967 18.5092 9.23979 18.5516 9.23979 18.5516L8.51306 18.004Z" fill="#10069F"/>
<path d="M12.4678 17.8571C12.4678 17.8571 12.6335 17.5659 12.9463 17.3299L12.6426 17.1008L12.4681 17.8571H12.4678Z" fill="#10069F"/>
<path d="M14.567 15.9035L13.8403 15.356C14.0072 15.4818 14.1133 15.6729 14.1133 15.9176C14.1133 16.4815 13.599 17.0021 12.6426 17.1006L12.9463 17.3297C13.1594 17.1687 13.4405 17.0335 13.7841 17.0335C13.9197 17.0335 14.0352 17.0708 14.1265 17.1395V17.1392C14.1265 17.1392 14.2291 17.2167 14.3574 17.313C14.6747 17.0903 14.84 16.7846 14.84 16.4652C14.84 16.2204 14.7336 16.029 14.567 15.9035Z" fill="url(#paint28_linear_20_43)"/>
<path d="M15.6875 19.8186C15.6875 19.8186 15.6897 19.8186 15.6905 19.819C15.6893 19.819 15.6882 19.819 15.6875 19.8186Z" fill="#001A72"/>
<path d="M15.4492 19.759C15.4492 19.759 15.4517 19.76 15.453 19.7603C15.4517 19.76 15.4505 19.7593 15.4492 19.759Z" fill="#001A72"/>
<path d="M15.2471 19.658C15.2471 19.658 15.2499 19.6598 15.2514 19.6608C15.2499 19.6598 15.2486 19.6589 15.2471 19.658Z" fill="#001A72"/>
<path d="M15.3789 19.7305C15.3789 19.7305 15.3811 19.7312 15.3819 19.7319C15.3808 19.7316 15.3796 19.7312 15.3789 19.7305Z" fill="#001A72"/>
<path d="M4.74551 16.8788L1.45703 17.2824C1.45703 17.2824 2.12163 19.1375 2.12163 21.9857C2.12163 24.8339 1.49563 27.0458 1.49563 27.0458L4.79728 26.6404C8.15604 26.2278 8.70642 23.5961 8.70642 21.1513C8.70642 18.5595 7.48517 16.5428 4.74551 16.8788ZM4.50483 25.0392C4.50483 25.0392 4.28863 24.0714 4.28863 21.6553C4.28863 19.5275 4.50483 18.5118 4.50483 18.5118C4.50483 18.5118 6.1817 18.1155 6.1817 21.4507C6.1817 25.057 4.50483 25.0388 4.50483 25.0388V25.0392Z" fill="#F7EDD8"/>
<path d="M13.2918 23.7162C13.2918 23.7162 12.656 24.3711 11.8251 24.3711C11.4975 24.3711 11.2252 24.249 11.0664 24.015C12.1436 23.8712 13.4392 23.4015 13.4392 22.0714C13.4392 21.1652 12.7445 20.6873 11.8311 20.6873C10.5866 20.6873 8.84668 21.6427 8.84668 23.7523C8.84668 25.3027 9.86837 25.978 10.9591 25.978C12.7279 25.978 13.7512 24.5214 13.7512 24.5214L13.2915 23.7159L13.2918 23.7162ZM11.7771 21.9841C11.9789 21.9841 12.1355 22.1166 12.1355 22.3472C12.1355 22.8894 11.5732 23.1815 10.9224 23.2967C10.9776 22.5082 11.4059 21.9844 11.7771 21.9844V21.9841Z" fill="#F7EDD8"/>
<path d="M17.9564 20.798L17.3947 21.7142C17.3947 21.7142 17.1678 21.429 16.8139 21.429C16.2729 21.429 15.8527 22.039 15.8527 22.7965C15.8527 23.4818 16.2268 23.7975 16.6099 23.7975C17.02 23.7975 17.3404 23.4187 17.3404 23.4187L17.8422 24.158C17.8422 24.158 17.1779 25.3931 15.7633 25.3931C14.6792 25.3931 13.752 24.7438 13.752 23.1122C13.752 21.2009 15.1401 20.1281 16.4838 20.1281C17.4816 20.1281 17.9564 20.798 17.9564 20.798Z" fill="#F7EDD8"/>
<path d="M24.2203 18.1014L21.3015 18.4597C21.3015 18.4597 20.9598 19.5319 20.2936 20.4387C20.3131 17.075 20.7608 14.9124 20.7608 14.9124L17.9085 15.2625C17.9085 15.2625 18.3108 17.3577 18.3108 20.1642C18.3108 23.5964 17.9082 25.0307 17.9082 25.0307L20.4856 24.7141C20.4856 24.7141 20.3843 23.8722 20.3284 22.4758C20.6573 23.0447 21.0301 23.7721 21.3526 24.6077L24.0164 24.2807C22.2959 22.3428 21.7847 20.9935 21.7847 20.9935C22.6206 19.6204 24.22 18.1017 24.22 18.1017L24.2203 18.1014Z" fill="#F7EDD8"/>
<path d="M24.2156 17.0222C24.2156 16.2626 24.6148 15.8766 25.0914 15.8766C25.4435 15.8766 25.74 16.1248 25.74 16.5908C25.74 17.7945 24.0556 18.3549 24.0556 20.836C24.0556 21.1742 24.1077 21.5232 24.1077 21.5232L26.2229 21.2634C26.2229 21.2634 26.1347 20.9176 26.1347 20.4447C26.1347 18.818 27.5254 18.4142 27.5254 16.2786C27.5254 15.3871 26.8759 14.0676 25.259 14.0676C23.0957 14.0676 22.3301 15.5572 22.3301 16.9708C22.3301 17.5026 22.3991 17.8431 22.3991 17.8431L24.2627 17.6143C24.2627 17.6143 24.2159 17.3668 24.2159 17.0222H24.2156Z" fill="#F7EDD8"/>
<path d="M26.5041 22.8671C26.5041 23.7162 25.7347 24.2522 25.1099 24.2522C24.4852 24.2522 24.0186 23.7803 24.0186 23.1706C24.0186 22.3215 24.788 21.7855 25.4127 21.7855C26.0375 21.7855 26.5041 22.2575 26.5041 22.8671Z" fill="#F7EDD8"/>
<path d="M29.6671 20.8404C29.6671 17.1826 30.3374 13.7366 30.3374 13.7366L27.7471 14.0548C27.7471 14.0548 28.0467 16.0278 28.0467 21.0396L29.6674 20.8407L29.6671 20.8404Z" fill="#F7EDD8"/>
<path d="M30.0568 22.4056C30.0568 23.2547 29.2874 23.7906 28.6626 23.7906C28.0379 23.7906 27.5713 23.3187 27.5713 22.709C27.5713 21.8599 28.3407 21.324 28.9654 21.324C29.5902 21.324 30.0568 21.7959 30.0568 22.4056Z" fill="#F7EDD8"/>
<path d="M17.3154 18.4753C17.3154 18.4753 16.9298 19.0078 16.38 19.0078C16.1927 19.0078 16.0549 18.9281 15.9759 18.7828C17.0992 18.6573 17.5567 17.9949 17.5567 17.4066C17.5567 17.0862 17.2549 16.6701 16.6536 16.6701C15.5118 16.6701 14.754 17.5117 14.754 18.6564C14.754 18.7449 14.7603 18.8302 14.7728 18.9118C14.6322 19.1023 14.4728 19.2519 14.3184 19.2519C14.1641 19.2519 14.1211 19.1515 14.1211 18.9965C14.1211 18.6623 14.3545 18.074 14.3545 17.6893C14.3545 17.2836 14.1352 17.0341 13.7834 17.0341C12.9359 17.0341 12.4671 17.8575 12.4671 17.8575L12.6416 17.1013C13.598 17.0027 14.1123 16.4822 14.1123 15.9183C14.1123 15.4573 13.7351 15.1859 13.2873 15.1859C12.8396 15.1859 12.0284 15.3594 11.7947 16.3714L11.7419 16.5998C11.4765 16.5776 11.2007 16.5471 10.9255 16.5148L11.1527 15.5314L10.7407 15.5819C10.5028 16.2631 9.97753 16.3748 9.7083 16.3748C9.60977 16.3748 9.36471 16.3441 9.04182 16.3441C8.33926 16.3441 7.85352 16.6604 7.85352 17.2261C7.85352 17.85 8.51184 18.0047 8.51184 18.0047C8.51184 18.0047 8.51058 17.9915 8.51058 17.9683C8.51058 17.8016 8.57083 17.1185 9.55769 17.1185H9.75474L9.2097 19.481C9.18083 19.6062 9.16263 19.7389 9.16263 19.8676C9.16263 20.2445 9.31858 20.584 9.81436 20.584C10.3101 20.584 10.7174 20.2335 10.9992 19.8177L10.8847 20.3132L11.9296 20.1848L11.9924 19.9125C12.1408 19.3135 12.5415 17.9337 13.0871 17.9337C13.1813 17.9337 13.2415 18.0018 13.2415 18.095C13.2415 18.4355 12.9921 18.9479 12.9921 19.4339C12.9921 19.92 13.2651 20.1117 13.6507 20.1117C14.192 20.1117 14.6247 19.7675 14.9401 19.38C15.1205 19.6627 15.4314 19.8353 15.8739 19.8353C16.9944 19.8353 17.6361 18.7963 17.6361 18.7963L17.3145 18.476L17.3154 18.4753ZM13.2845 15.7184C13.4091 15.7184 13.5145 15.8075 13.5145 15.9472C13.5145 16.1674 13.3121 16.5182 12.7552 16.6105L12.7956 16.4348C12.8794 16.0724 13.0203 15.7184 13.2842 15.7184H13.2845ZM10.4865 19.7195C10.3277 19.7195 10.2744 19.6156 10.2744 19.46C10.2744 19.3618 10.2957 19.2428 10.3249 19.1164L10.7868 17.1179H11.623C11.3036 18.5007 10.9421 19.7198 10.4865 19.7198V19.7195ZM16.5786 17.5051C16.7133 17.5051 16.7773 17.5914 16.7773 17.7191C16.7773 17.9598 16.4779 18.3197 15.8999 18.4192C15.9056 17.8986 16.2944 17.5048 16.579 17.5048L16.5786 17.5051Z" fill="#F7EDD8"/>
<path d="M8.85112 12.8976C8.85112 12.8976 7.93769 11.3384 7.75726 9.40985L5.92099 9.63546C5.92099 9.63546 5.77131 11.9277 4.80956 13.4062C4.80956 13.4062 4.60434 10.7425 5.3295 7.10164L2.27574 7.47662C2.27574 7.47662 2.7323 9.4359 2.7323 11.4432C2.7323 14.2199 2.26758 16.2614 2.26758 16.2614L5.55731 15.8575C5.93009 14.1537 6.79676 12.7714 6.79676 12.7714C6.79676 12.7714 7.54075 14.0918 7.89533 15.5704L11.1672 15.1684C11.1672 15.1684 10.7624 12.8373 10.7624 10.89C10.7624 8.94263 11.1835 6.38245 11.1835 6.38245L8.41056 6.7229C9.01899 9.61977 8.8508 12.8973 8.8508 12.8973L8.85112 12.8976Z" fill="#F8A3BC"/>
<path d="M14.1366 14.8037C14.1366 14.8037 13.8636 13.9251 13.8636 12.7892C13.8636 11.563 14.2069 10.8582 14.7049 10.8582C14.9954 10.8582 15.2097 11.0327 15.2097 11.4657C15.2097 12.1739 15.0023 12.7349 15.0023 13.9066C15.0023 15.9299 16.0482 16.5154 16.0482 16.5154L17.9187 14.6173C17.9187 14.6173 17.0608 13.9879 17.0608 12.873C17.0608 11.5448 17.265 11.1503 17.265 10.2127C17.265 9.18509 16.6378 8.78533 15.8703 8.78533C14.398 8.78533 13.862 10.3135 13.862 10.3135C13.862 8.19792 14.5238 5.97192 14.5238 5.97192L11.4826 6.34533C11.4826 6.34533 11.9279 8.06487 11.9279 10.5168C11.9279 13.1673 11.4697 15.1307 11.4697 15.1307L14.136 14.8034L14.1366 14.8037Z" fill="#F8A3BC"/>
<path d="M24.0108 12.0101C24.0108 12.0101 23.7953 12.161 23.5066 12.161C23.2179 12.161 23.002 11.9828 23.002 11.4569C23.002 10.2648 23.2581 9.18289 23.2581 7.7947C23.2581 6.40651 22.5511 5.09583 20.3788 5.09583C18.0884 5.09583 16.0752 6.81506 16.0752 6.81506L17.608 9.06867C17.608 9.06867 18.5576 7.10311 20.054 7.10311C21.0638 7.10311 21.1786 8.1681 21.1786 8.1681C19.9821 8.1681 17.5177 8.94849 17.5177 11.8996C17.5177 13.6634 18.3699 14.4962 19.5789 14.4962C20.9251 14.4962 21.4161 13.2888 21.4161 13.2888C21.4161 13.2888 21.8212 14.1275 22.7949 14.1275C23.9635 14.1275 24.5123 13.1206 24.5123 13.1206L24.0112 12.0101H24.0108ZM20.2589 12.5536C19.8689 12.5536 19.6781 12.1742 19.6781 11.7999C19.6781 10.1387 21.1786 9.77814 21.1786 9.77814C21.1786 11.338 20.8927 12.5539 20.2589 12.5539V12.5536Z" fill="#F8A3BC"/>
<path d="M28.1057 11.1798C28.1057 11.1798 27.8139 11.5498 27.3746 11.5498C27.0018 11.5498 26.7501 11.3646 26.7501 10.6162C26.7501 10.027 26.768 9.443 26.7972 8.88258C27.3473 8.82735 27.9548 8.79189 28.6074 8.79189C28.6074 8.79189 28.5591 7.53581 28.6074 6.71244C28.6074 6.71244 27.9802 6.94966 26.9249 7.15017C27.0768 5.54076 27.2729 4.40674 27.2729 4.40674L24.3732 4.76289C24.3732 4.76289 24.5652 6.01207 24.6308 7.41092C24.3446 7.42222 24.0469 7.42661 23.7394 7.42128C23.7394 7.42128 23.7459 8.30772 23.6113 9.5249C23.6113 9.5249 23.9766 9.3928 24.6239 9.24092C24.5859 9.98554 24.5238 10.743 24.5238 11.3825C24.5238 12.825 25.1483 13.6725 26.4734 13.6725C28.0602 13.6725 28.8173 12.3471 28.8173 12.3471L28.1051 11.1795L28.1057 11.1798Z" fill="#F8A3BC"/>
</g>
</g>
</g>
<defs>
<linearGradient id="paint0_linear_20_43" x1="3.3879" y1="11.5204" x2="12.0939" y2="4.96004" gradientUnits="userSpaceOnUse">
<stop offset="0.08" stop-color="#10069F"/>
<stop offset="0.81" stop-color="#001A72"/>
</linearGradient>
<linearGradient id="paint1_linear_20_43" x1="5.30279" y1="15.5204" x2="7.57648" y2="13.8068" gradientUnits="userSpaceOnUse">
<stop offset="0.08" stop-color="#10069F"/>
<stop offset="1" stop-color="#001A72"/>
</linearGradient>
<linearGradient id="paint2_linear_20_43" x1="9.31674" y1="12.7136" x2="18.227" y2="5.99919" gradientUnits="userSpaceOnUse">
<stop offset="0.08" stop-color="#10069F"/>
<stop offset="0.81" stop-color="#001A72"/>
</linearGradient>
<linearGradient id="paint3_linear_20_43" x1="12.9388" y1="9.08818" x2="17.7821" y2="5.43854" gradientUnits="userSpaceOnUse">
<stop offset="0.08" stop-color="#10069F"/>
<stop offset="0.81" stop-color="#001A72"/>
</linearGradient>
<linearGradient id="paint4_linear_20_43" x1="15.9435" y1="13.4319" x2="19.3111" y2="10.894" gradientUnits="userSpaceOnUse">
<stop offset="0.14" stop-color="#10069F"/>
<stop offset="0.45" stop-color="#001A72"/>
<stop offset="0.82" stop-color="#10069F"/>
</linearGradient>
<linearGradient id="paint5_linear_20_43" x1="13.5228" y1="13.9904" x2="15.9456" y2="12.1648" gradientUnits="userSpaceOnUse">
<stop offset="0.41" stop-color="#10069F"/>
<stop offset="0.97" stop-color="#001A72"/>
</linearGradient>
<linearGradient id="paint6_linear_20_43" x1="18.7816" y1="12.5824" x2="22.1284" y2="10.0606" gradientUnits="userSpaceOnUse">
<stop offset="0.23" stop-color="#10069F"/>
<stop offset="0.77" stop-color="#001A72"/>
</linearGradient>
<linearGradient id="paint7_linear_20_43" x1="16.641" y1="10.0854" x2="21.3057" y2="6.57003" gradientUnits="userSpaceOnUse">
<stop offset="0.26" stop-color="#10069F"/>
<stop offset="0.75" stop-color="#001A72"/>
</linearGradient>
<linearGradient id="paint8_linear_20_43" x1="19.1228" y1="11.8215" x2="24.8193" y2="7.52864" gradientUnits="userSpaceOnUse">
<stop stop-color="#001A72"/>
<stop offset="0.24" stop-color="#021778"/>
<stop offset="0.56" stop-color="#080F89"/>
<stop offset="0.84" stop-color="#10069F"/>
</linearGradient>
<linearGradient id="paint9_linear_20_43" x1="26.4315" y1="6.49535" x2="30.0275" y2="3.7855" gradientUnits="userSpaceOnUse">
<stop offset="0.26" stop-color="#10069F"/>
<stop offset="0.75" stop-color="#001A72"/>
</linearGradient>
<linearGradient id="paint10_linear_20_43" x1="1.15501" y1="26.6519" x2="9.73642" y2="20.1851" gradientUnits="userSpaceOnUse">
<stop offset="0.29" stop-color="#001A72"/>
<stop offset="0.93" stop-color="#10069F"/>
</linearGradient>
<linearGradient id="paint11_linear_20_43" x1="10.8121" y1="23.1492" x2="12.108" y2="22.1724" gradientUnits="userSpaceOnUse">
<stop offset="0.37" stop-color="#10069F"/>
<stop offset="0.67" stop-color="#001A72"/>
</linearGradient>
<linearGradient id="paint12_linear_20_43" x1="11.1066" y1="24.0682" x2="13.9865" y2="21.8981" gradientUnits="userSpaceOnUse">
<stop offset="0.51" stop-color="#001A72"/>
<stop offset="0.84" stop-color="#10069F"/>
</linearGradient>
<linearGradient id="paint13_linear_20_43" x1="15.5105" y1="23.44" x2="18.4278" y2="21.2419" gradientUnits="userSpaceOnUse">
<stop offset="0.07" stop-color="#10069F"/>
<stop offset="0.44" stop-color="#001A72"/>
<stop offset="0.91" stop-color="#10069F"/>
</linearGradient>
<linearGradient id="paint14_linear_20_43" x1="19.0504" y1="18.7885" x2="26.0507" y2="13.5134" gradientUnits="userSpaceOnUse">
<stop offset="0.2" stop-color="#10069F"/>
<stop offset="0.73" stop-color="#001A72"/>
</linearGradient>
<linearGradient id="paint15_linear_20_43" x1="24.9371" y1="19.5566" x2="28.722" y2="16.7046" gradientUnits="userSpaceOnUse">
<stop stop-color="#10069F"/>
<stop offset="0.45" stop-color="#001A72"/>
<stop offset="1" stop-color="#10069F"/>
</linearGradient>
<linearGradient id="paint16_linear_20_43" x1="24.7606" y1="24.4702" x2="27.0236" y2="22.7647" gradientUnits="userSpaceOnUse">
<stop offset="0.48" stop-color="#001A72"/>
<stop offset="0.84" stop-color="#10069F"/>
</linearGradient>
<linearGradient id="paint17_linear_20_43" x1="28.3143" y1="24.0092" x2="30.5776" y2="22.3038" gradientUnits="userSpaceOnUse">
<stop offset="0.48" stop-color="#001A72"/>
<stop offset="0.84" stop-color="#10069F"/>
</linearGradient>
<linearGradient id="paint18_linear_20_43" x1="24.2086" y1="17.5421" x2="25.7797" y2="16.3585" gradientUnits="userSpaceOnUse">
<stop offset="0.37" stop-color="#10069F"/>
<stop offset="0.67" stop-color="#001A72"/>
</linearGradient>
<linearGradient id="paint19_linear_20_43" x1="21.7946" y1="21.0054" x2="26.5048" y2="17.4559" gradientUnits="userSpaceOnUse">
<stop offset="0.21" stop-color="#001A72"/>
<stop offset="0.46" stop-color="#04147E"/>
<stop offset="0.92" stop-color="#0F069D"/>
<stop offset="0.93" stop-color="#10069F"/>
</linearGradient>
<linearGradient id="paint20_linear_20_43" x1="15.6475" y1="18.4565" x2="16.7743" y2="17.6077" gradientUnits="userSpaceOnUse">
<stop offset="0.37" stop-color="#10069F"/>
<stop offset="0.8" stop-color="#001A72"/>
</linearGradient>
<linearGradient id="paint21_linear_20_43" x1="16.0723" y1="18.9786" x2="18.2826" y2="17.3131" gradientUnits="userSpaceOnUse">
<stop offset="0.51" stop-color="#001A72"/>
<stop offset="0.9" stop-color="#10069F"/>
</linearGradient>
<linearGradient id="paint22_linear_20_43" x1="12.6912" y1="16.463" x2="13.5334" y2="15.8285" gradientUnits="userSpaceOnUse">
<stop offset="0.27" stop-color="#10069F"/>
<stop offset="0.87" stop-color="#001A72"/>
</linearGradient>
<linearGradient id="paint23_linear_20_43" x1="13.6116" y1="20.6112" x2="15.7168" y2="19.025" gradientUnits="userSpaceOnUse">
<stop offset="0.49" stop-color="#001A72"/>
<stop offset="0.95" stop-color="#10069F"/>
</linearGradient>
<linearGradient id="paint24_linear_20_43" x1="13.7283" y1="18.6031" x2="14.9003" y2="17.7197" gradientUnits="userSpaceOnUse">
<stop offset="0.3" stop-color="#001A72"/>
<stop offset="0.9" stop-color="#10069F"/>
</linearGradient>
<linearGradient id="paint25_linear_20_43" x1="11.7098" y1="20.1635" x2="13.5803" y2="18.754" gradientUnits="userSpaceOnUse">
<stop offset="0.3" stop-color="#10069F"/>
<stop offset="0.88" stop-color="#001A72"/>
</linearGradient>
<linearGradient id="paint26_linear_20_43" x1="7.87536" y1="18.8067" x2="9.67775" y2="17.4487" gradientUnits="userSpaceOnUse">
<stop offset="0.3" stop-color="#10069F"/>
<stop offset="0.83" stop-color="#001A72"/>
</linearGradient>
<linearGradient id="paint27_linear_20_43" x1="9.45868" y1="21.3239" x2="11.1393" y2="20.0574" gradientUnits="userSpaceOnUse">
<stop offset="0.49" stop-color="#001A72"/>
<stop offset="0.86" stop-color="#10069F"/>
</linearGradient>
<linearGradient id="paint28_linear_20_43" x1="12.8057" y1="17.3096" x2="14.7603" y2="15.837" gradientUnits="userSpaceOnUse">
<stop offset="0.58" stop-color="#001A72"/>
<stop offset="0.95" stop-color="#10069F"/>
</linearGradient>
<clipPath id="clip0_20_43">
<rect width="32" height="32" fill="white"/>
</clipPath>
<clipPath id="clip1_20_43">
<rect width="32" height="32" fill="white"/>
</clipPath>
<clipPath id="clip2_20_43">
<rect width="32" height="32" fill="white"/>
</clipPath>
</defs>
</svg>
