<svg width="60" height="58" viewBox="0 0 60 58" fill="none" xmlns="http://www.w3.org/2000/svg">
<path d="M27.6002 37.8H32.4002C37.0202 37.8 40.8002 34.02 40.8002 29.4V13.8C40.8002 9.18002 37.0202 5.40002 32.4002 5.40002H27.6002C22.9802 5.40002 19.2002 9.18002 19.2002 13.8V29.4C19.2002 34.02 22.9802 37.8 27.6002 37.8ZM21.6002 13.8C21.6002 10.5 24.3002 7.80002 27.6002 7.80002H32.4002C35.7002 7.80002 38.4002 10.5 38.4002 13.8V29.4C38.4002 32.7 35.7002 35.4 32.4002 35.4H27.6002C24.3002 35.4 21.6002 32.7 21.6002 29.4V13.8Z" fill="#EDC16E"/>
<path d="M29.9998 18C30.6598 18 31.1998 17.46 31.1998 16.8V13.2C31.1998 12.54 30.6598 12 29.9998 12C29.3398 12 28.7998 12.54 28.7998 13.2V16.8C28.7998 17.46 29.3398 18 29.9998 18Z" fill="#EDC16E"/>
<path d="M29.9998 41.4C29.3398 41.4 28.7998 41.94 28.7998 42.6V50.52L27.8398 49.56C27.3598 49.08 26.6398 49.08 26.1598 49.56C25.6798 50.04 25.6798 50.76 26.1598 51.24L29.1598 54.24C29.2198 54.3 29.2798 54.36 29.3398 54.36C29.3398 54.36 29.3998 54.42 29.4598 54.42C29.5198 54.42 29.5198 54.48 29.5798 54.48C29.6398 54.48 29.6398 54.48 29.6998 54.54C29.7598 54.54 29.7598 54.54 29.8198 54.6C29.8798 54.6 29.9998 54.6 30.0598 54.6C30.1198 54.6 30.2398 54.6 30.2998 54.6C30.3598 54.6 30.3598 54.6 30.4198 54.54C30.4798 54.54 30.4798 54.54 30.5398 54.48C30.5998 54.48 30.5998 54.42 30.6598 54.42C30.6598 54.42 30.7198 54.42 30.7198 54.36C30.7798 54.3 30.8398 54.24 30.8998 54.24L33.8998 51.24C34.3798 50.76 34.3798 50.04 33.8998 49.56C33.4198 49.08 32.6998 49.08 32.2198 49.56L31.1998 50.52V42.6C31.1998 41.94 30.6598 41.4 29.9998 41.4Z" fill="#EDC16E"/>
</svg>
