<svg width="48" height="48" viewBox="0 0 48 48" fill="none" xmlns="http://www.w3.org/2000/svg">
<circle cx="24.2764" cy="23.7236" r="23.7236" fill="black"/>
<path d="M33.5971 13.5564C34.065 13.5564 34.4443 13.9357 34.4443 14.4037L34.4443 24.5709C34.4443 25.0389 34.065 25.4182 33.5971 25.4182C33.1291 25.4182 32.7498 25.0389 32.7498 24.5709L32.7498 16.4492L15.5562 33.6428C15.2253 33.9737 14.6888 33.9737 14.358 33.6428C14.0271 33.3119 14.0271 32.7754 14.358 32.4446L31.5516 15.2509L23.4298 15.2509C22.9619 15.2509 22.5825 14.8716 22.5825 14.4037C22.5825 13.9357 22.9619 13.5564 23.4298 13.5564L33.5971 13.5564Z" fill="#F1ACE2"/>
</svg>
