<svg width="56" height="56" viewBox="0 0 56 56" fill="none" xmlns="http://www.w3.org/2000/svg">
<circle cx="27.8909" cy="27.8909" r="27.8909" fill="black"/>
<path d="M38.8486 15.9377C39.3988 15.9377 39.8447 16.3837 39.8447 16.9338L39.8447 28.8871C39.8447 29.4372 39.3988 29.8832 38.8486 29.8832C38.2985 29.8832 37.8525 29.4372 37.8525 28.8871L37.8525 19.3387L17.6387 39.5525C17.2497 39.9415 16.619 39.9415 16.23 39.5525C15.841 39.1635 15.841 38.5328 16.23 38.1438L36.4438 17.93L26.8954 17.93C26.3452 17.93 25.8993 17.484 25.8993 16.9338C25.8993 16.3837 26.3452 15.9377 26.8954 15.9377L38.8486 15.9377Z" fill="#FCD76C"/>
</svg>
