<svg width="520" height="18" viewBox="0 0 520 18" fill="none" xmlns="http://www.w3.org/2000/svg">
<path d="M9.71946 7.25355H7.86009C7.80706 6.94863 7.70928 6.6785 7.56676 6.44318C7.42424 6.20455 7.24692 6.00237 7.0348 5.83665C6.82268 5.67093 6.58073 5.54664 6.30895 5.46378C6.04048 5.3776 5.75047 5.33452 5.43892 5.33452C4.88542 5.33452 4.39489 5.47372 3.96733 5.75213C3.53977 6.02722 3.20502 6.43158 2.96307 6.9652C2.72112 7.4955 2.60014 8.14347 2.60014 8.90909C2.60014 9.68797 2.72112 10.3442 2.96307 10.8778C3.20833 11.4081 3.54309 11.8092 3.96733 12.081C4.39489 12.3494 4.88376 12.4837 5.43395 12.4837C5.73887 12.4837 6.02391 12.4439 6.28906 12.3643C6.55753 12.2815 6.79782 12.1605 7.00994 12.0014C7.22538 11.8423 7.40601 11.6468 7.55185 11.4148C7.70099 11.1828 7.80374 10.9176 7.86009 10.6193L9.71946 10.6293C9.64986 11.1132 9.49905 11.5672 9.26705 11.9915C9.03835 12.4157 8.7384 12.7902 8.36719 13.1151C7.99598 13.4366 7.56179 13.6884 7.06463 13.8707C6.56747 14.0497 6.01563 14.1392 5.40909 14.1392C4.5142 14.1392 3.71544 13.9321 3.01278 13.5178C2.31013 13.1035 1.75663 12.5052 1.35227 11.723C0.947917 10.9408 0.745739 10.0028 0.745739 8.90909C0.745739 7.81203 0.949574 6.87405 1.35724 6.09517C1.76491 5.31297 2.32008 4.71473 3.02273 4.30043C3.72538 3.88613 4.52083 3.67898 5.40909 3.67898C5.97585 3.67898 6.50284 3.75852 6.99006 3.91761C7.47727 4.0767 7.91146 4.31037 8.29261 4.61861C8.67377 4.92353 8.98698 5.29806 9.23224 5.74219C9.48082 6.183 9.64323 6.68679 9.71946 7.25355ZM14.24 14.1491C13.4942 14.1491 12.8479 13.9851 12.3011 13.657C11.7542 13.3288 11.3299 12.8698 11.0283 12.2798C10.73 11.6899 10.5809 11.0005 10.5809 10.2116C10.5809 9.42282 10.73 8.73177 11.0283 8.13849C11.3299 7.54522 11.7542 7.08452 12.3011 6.75639C12.8479 6.42827 13.4942 6.2642 14.24 6.2642C14.9857 6.2642 15.632 6.42827 16.1789 6.75639C16.7258 7.08452 17.1484 7.54522 17.4467 8.13849C17.7483 8.73177 17.8991 9.42282 17.8991 10.2116C17.8991 11.0005 17.7483 11.6899 17.4467 12.2798C17.1484 12.8698 16.7258 13.3288 16.1789 13.657C15.632 13.9851 14.9857 14.1491 14.24 14.1491ZM14.2499 12.7074C14.6543 12.7074 14.9923 12.5964 15.2641 12.3743C15.5359 12.1489 15.7381 11.8473 15.8707 11.4695C16.0066 11.0916 16.0745 10.6707 16.0745 10.2067C16.0745 9.73935 16.0066 9.31676 15.8707 8.93892C15.7381 8.55777 15.5359 8.2545 15.2641 8.02912C14.9923 7.80374 14.6543 7.69105 14.2499 7.69105C13.8356 7.69105 13.4909 7.80374 13.2158 8.02912C12.9441 8.2545 12.7402 8.55777 12.6043 8.93892C12.4717 9.31676 12.4055 9.73935 12.4055 10.2067C12.4055 10.6707 12.4717 11.0916 12.6043 11.4695C12.7402 11.8473 12.9441 12.1489 13.2158 12.3743C13.4909 12.5964 13.8356 12.7074 14.2499 12.7074ZM20.8063 9.52557V14H19.0066V6.36364H20.7268V7.66122H20.8162C20.9919 7.23366 21.272 6.89394 21.6564 6.64205C22.0442 6.39015 22.5232 6.2642 23.0932 6.2642C23.6202 6.2642 24.0793 6.37689 24.4704 6.60227C24.8648 6.82765 25.1697 7.15412 25.3851 7.58168C25.6039 8.00923 25.7116 8.52794 25.7083 9.13778V14H23.9086V9.41619C23.9086 8.90578 23.776 8.50639 23.5109 8.21804C23.249 7.92969 22.8861 7.78551 22.4221 7.78551C22.1072 7.78551 21.8271 7.85511 21.5819 7.99432C21.3399 8.13021 21.1493 8.32741 21.0101 8.58594C20.8743 8.84446 20.8063 9.15767 20.8063 9.52557ZM30.9311 6.36364V7.75568H26.5411V6.36364H30.9311ZM27.6249 4.53409H29.4247V11.7031C29.4247 11.9451 29.4611 12.1307 29.534 12.2599C29.6103 12.3859 29.7097 12.4721 29.8323 12.5185C29.955 12.5649 30.0909 12.5881 30.24 12.5881C30.3527 12.5881 30.4554 12.5798 30.5482 12.5632C30.6444 12.5466 30.7173 12.5317 30.767 12.5185L31.0703 13.9254C30.9741 13.9586 30.8366 13.995 30.6576 14.0348C30.482 14.0746 30.2665 14.0978 30.0113 14.1044C29.5605 14.1177 29.1545 14.0497 28.7933 13.9006C28.432 13.7481 28.1453 13.5128 27.9332 13.1946C27.7244 12.8764 27.6216 12.4787 27.6249 12.0014V4.53409ZM34.2136 14.1541C33.7297 14.1541 33.2939 14.0679 32.9061 13.8956C32.5216 13.7199 32.2167 13.4614 31.9913 13.12C31.7693 12.7786 31.6582 12.3577 31.6582 11.8572C31.6582 11.4264 31.7378 11.0701 31.8969 10.7884C32.056 10.5066 32.2731 10.2812 32.5482 10.1122C32.8233 9.94318 33.1332 9.81558 33.4778 9.7294C33.8259 9.63991 34.1855 9.57528 34.5567 9.53551C35.0041 9.48911 35.3671 9.44768 35.6455 9.41122C35.9239 9.37145 36.126 9.31179 36.252 9.23224C36.3813 9.14938 36.4459 9.02178 36.4459 8.84943V8.8196C36.4459 8.44508 36.3349 8.15507 36.1128 7.94957C35.8907 7.74408 35.5709 7.64134 35.1533 7.64134C34.7125 7.64134 34.3628 7.73745 34.1043 7.92969C33.8491 8.12192 33.6767 8.34896 33.5872 8.6108L31.9068 8.37216C32.0394 7.90814 32.2582 7.52036 32.5631 7.20881C32.868 6.89394 33.2409 6.65862 33.6817 6.50284C34.1225 6.34375 34.6097 6.2642 35.1433 6.2642C35.5112 6.2642 35.8775 6.30729 36.2421 6.39347C36.6066 6.47964 36.9397 6.62216 37.2413 6.82102C37.543 7.01657 37.7849 7.28338 37.9672 7.62145C38.1528 7.95952 38.2456 8.3821 38.2456 8.8892V14H36.5155V12.951H36.4558C36.3465 13.1631 36.1923 13.362 35.9935 13.5476C35.7979 13.7299 35.551 13.8774 35.2527 13.9901C34.9577 14.0994 34.6114 14.1541 34.2136 14.1541ZM34.681 12.8317C35.0422 12.8317 35.3555 12.7604 35.6206 12.6179C35.8858 12.4721 36.0896 12.2798 36.2321 12.0412C36.3779 11.8026 36.4509 11.5424 36.4509 11.2607V10.3608C36.3945 10.4072 36.2984 10.4503 36.1625 10.4901C36.0299 10.5298 35.8808 10.5646 35.7151 10.5945C35.5493 10.6243 35.3853 10.6508 35.2229 10.674C35.0605 10.6972 34.9196 10.7171 34.8003 10.7337C34.5318 10.7701 34.2915 10.8298 34.0794 10.9126C33.8673 10.9955 33.6999 11.1115 33.5773 11.2607C33.4546 11.4065 33.3933 11.5954 33.3933 11.8274C33.3933 12.1589 33.5143 12.4091 33.7563 12.5781C33.9982 12.7472 34.3064 12.8317 34.681 12.8317ZM42.9662 14.1491C42.2039 14.1491 41.5493 13.9818 41.0025 13.647C40.4589 13.3123 40.0396 12.8499 39.7446 12.2599C39.453 11.6667 39.3071 10.9839 39.3071 10.2116C39.3071 9.43608 39.4563 8.75166 39.7546 8.15838C40.0529 7.56179 40.4738 7.09777 41.0174 6.76633C41.5642 6.43158 42.2105 6.2642 42.9563 6.2642C43.5761 6.2642 44.1246 6.37855 44.6019 6.60724C45.0825 6.83262 45.4653 7.15246 45.7503 7.56676C46.0354 7.97775 46.1978 8.45833 46.2375 9.00852L44.5174 9.00852C44.4478 8.64062 44.282 8.33404 44.0202 8.08878C43.7617 7.8402 43.4153 7.71591 42.9811 7.71591C42.6132 7.71591 42.2901 7.81534 42.0117 8.0142C41.7333 8.20975 41.5162 8.49148 41.3604 8.85937C41.2079 9.22727 41.1317 9.66809 41.1317 10.1818C41.1317 10.7022 41.2079 11.1496 41.3604 11.5241C41.5129 11.8954 41.7266 12.1821 42.0017 12.3842C42.2802 12.5831 42.6066 12.6825 42.9811 12.6825C43.2463 12.6825 43.4833 12.6328 43.6921 12.5334C43.9042 12.4306 44.0815 12.2831 44.224 12.0909C44.3666 11.8987 44.4643 11.665 44.5174 11.3899L46.2375 11.3899C46.1944 11.9302 46.0354 12.4091 45.7603 12.8267C45.4852 13.241 45.1106 13.5658 44.6367 13.8011C44.1627 14.0331 43.6059 14.1491 42.9662 14.1491ZM51.1086 6.36364V7.75568H46.7186V6.36364H51.1086ZM47.8024 4.53409H49.6022V11.7031C49.6022 11.9451 49.6386 12.1307 49.7115 12.2599C49.7878 12.3859 49.8872 12.4721 50.0098 12.5185C50.1325 12.5649 50.2684 12.5881 50.4175 12.5881C50.5302 12.5881 50.6329 12.5798 50.7257 12.5632C50.8219 12.5466 50.8948 12.5317 50.9445 12.5185L51.2478 13.9254C51.1516 13.9586 51.0141 13.995 50.8351 14.0348C50.6595 14.0746 50.444 14.0978 50.1888 14.1044C49.738 14.1177 49.332 14.0497 48.9708 13.9006C48.6095 13.7481 48.3228 13.5128 48.1107 13.1946C47.9019 12.8764 47.7991 12.4787 47.8024 12.0014V4.53409ZM60.1135 10.7884V6.36364H61.9133V14H60.1682V12.6428H60.0887C59.9163 13.0703 59.633 13.42 59.2385 13.6918C58.8474 13.9635 58.3652 14.0994 57.7918 14.0994C57.2913 14.0994 56.8489 13.9884 56.4644 13.7663C56.0832 13.541 55.7849 13.2145 55.5695 12.7869C55.3541 12.3561 55.2464 11.8357 55.2464 11.2259V6.36364H57.0461V10.9474C57.0461 11.4313 57.1786 11.8158 57.4438 12.1009C57.709 12.3859 58.057 12.5284 58.4878 12.5284C58.753 12.5284 59.0099 12.4638 59.2584 12.3345C59.507 12.2053 59.7108 12.013 59.8699 11.7578C60.0323 11.4993 60.1135 11.1761 60.1135 10.7884ZM69.3794 8.3821L67.7388 8.56108C67.6924 8.39536 67.6112 8.23958 67.4952 8.09375C67.3825 7.94792 67.2301 7.83026 67.0378 7.74077C66.8456 7.65128 66.6103 7.60653 66.3319 7.60653C65.9573 7.60653 65.6425 7.68774 65.3873 7.85014C65.1354 8.01255 65.0111 8.22301 65.0144 8.48153C65.0111 8.7036 65.0923 8.88423 65.258 9.02344C65.427 9.16264 65.7054 9.27699 66.0932 9.36648L67.3958 9.64489C68.1183 9.80066 68.6553 10.0476 69.0066 10.3857C69.3612 10.7237 69.5402 11.1662 69.5435 11.7131C69.5402 12.1937 69.3993 12.6179 69.1209 12.9858C68.8458 13.3504 68.463 13.6354 67.9725 13.8409C67.482 14.0464 66.9185 14.1491 66.2821 14.1491C65.3475 14.1491 64.5951 13.9536 64.025 13.5625C63.455 13.1681 63.1152 12.6196 63.0059 11.9169L64.7608 11.7479C64.8404 12.0926 65.0094 12.3527 65.2679 12.5284C65.5265 12.7041 65.8629 12.7919 66.2772 12.7919C66.7047 12.7919 67.0478 12.7041 67.3063 12.5284C67.5681 12.3527 67.699 12.1357 67.699 11.8771C67.699 11.6584 67.6145 11.4777 67.4455 11.3352C67.2798 11.1927 67.0213 11.0833 66.6699 11.0071L65.3674 10.7337C64.6349 10.5812 64.093 10.3243 63.7417 9.96307C63.3903 9.59848 63.2163 9.13778 63.2196 8.58097C63.2163 8.11032 63.3439 7.70265 63.6025 7.35795C63.8643 7.00994 64.2272 6.74148 64.6912 6.55256C65.1586 6.36032 65.6972 6.2642 66.307 6.2642C67.2019 6.2642 67.9062 6.45478 68.4199 6.83594C68.937 7.21709 69.2568 7.73248 69.3794 8.3821ZM75.4599 9.52557V14L73.6602 14V6.36364H75.3804V7.66122H75.4698C75.6455 7.23366 75.9256 6.89394 76.31 6.64205C76.6978 6.39015 77.1768 6.2642 77.7468 6.2642C78.2738 6.2642 78.7329 6.37689 79.124 6.60227C79.5184 6.82765 79.8233 7.15412 80.0387 7.58168C80.2575 8.00923 80.3652 8.52794 80.3619 9.13778V14H78.5622V9.41619C78.5622 8.90578 78.4296 8.50639 78.1644 8.21804C77.9026 7.92969 77.5397 7.78551 77.0757 7.78551C76.7608 7.78551 76.4807 7.85511 76.2355 7.99432C75.9935 8.13021 75.8029 8.32741 75.6637 8.58594C75.5278 8.84446 75.4599 9.15767 75.4599 9.52557ZM85.1024 14.1491C84.3567 14.1491 83.7104 13.9851 83.1635 13.657C82.6166 13.3288 82.1924 12.8698 81.8908 12.2798C81.5925 11.6899 81.4433 11.0005 81.4433 10.2116C81.4433 9.42282 81.5925 8.73177 81.8908 8.13849C82.1924 7.54522 82.6166 7.08452 83.1635 6.75639C83.7104 6.42827 84.3567 6.2642 85.1024 6.2642C85.8481 6.2642 86.4944 6.42827 87.0413 6.75639C87.5882 7.08452 88.0108 7.54522 88.3091 8.13849C88.6107 8.73177 88.7615 9.42282 88.7615 10.2116C88.7615 11.0005 88.6107 11.6899 88.3091 12.2798C88.0108 12.8698 87.5882 13.3288 87.0413 13.657C86.4944 13.9851 85.8481 14.1491 85.1024 14.1491ZM85.1123 12.7074C85.5167 12.7074 85.8548 12.5964 86.1265 12.3743C86.3983 12.1489 86.6005 11.8473 86.7331 11.4695C86.869 11.0916 86.9369 10.6707 86.9369 10.2067C86.9369 9.73935 86.869 9.31676 86.7331 8.93892C86.6005 8.55777 86.3983 8.2545 86.1265 8.02912C85.8548 7.80374 85.5167 7.69105 85.1123 7.69105C84.698 7.69105 84.3533 7.80374 84.0783 8.02912C83.8065 8.2545 83.6026 8.55777 83.4667 8.93892C83.3342 9.31676 83.2679 9.73935 83.2679 10.2067C83.2679 10.6707 83.3342 11.0916 83.4667 11.4695C83.6026 11.8473 83.8065 12.1489 84.0783 12.3743C84.3533 12.5964 84.698 12.7074 85.1123 12.7074ZM91.2263 14L89.0686 6.36364H90.9031L92.2454 11.733H92.315L93.6872 6.36364H95.5018L96.874 11.7031H96.9486L98.271 6.36364H100.11L97.9478 14H96.0736L94.6417 8.83949H94.5373L93.1055 14H91.2263ZM103.149 3.81818L102.985 11.0071H101.385L101.225 3.81818H103.149ZM102.185 14.1094C101.883 14.1094 101.625 14.0033 101.409 13.7912C101.197 13.5791 101.091 13.3205 101.091 13.0156C101.091 12.7173 101.197 12.4621 101.409 12.25C101.625 12.0379 101.883 11.9318 102.185 11.9318C102.48 11.9318 102.735 12.0379 102.951 12.25C103.169 12.4621 103.279 12.7173 103.279 13.0156C103.279 13.2178 103.227 13.4018 103.125 13.5675C103.025 13.7332 102.893 13.8658 102.727 13.9652C102.564 14.0613 102.384 14.1094 102.185 14.1094ZM138.695 5.17045L135.791 8.07386L132.848 5.17045L135.791 2.22727L138.695 5.17045ZM142.433 8.90909L139.53 11.8523L136.627 8.90909L139.53 6.00568L142.433 8.90909ZM134.956 8.90909L132.013 11.8523L129.07 8.90909L132.013 6.00568L134.956 8.90909ZM138.695 12.6875L135.791 15.5909L132.848 12.6875L135.791 9.74432L138.695 12.6875ZM176.871 7.25355H175.012C174.959 6.94863 174.861 6.6785 174.719 6.44318C174.576 6.20455 174.399 6.00237 174.187 5.83665C173.974 5.67093 173.733 5.54664 173.461 5.46378C173.192 5.3776 172.902 5.33452 172.591 5.33452C172.037 5.33452 171.547 5.47372 171.119 5.75213C170.692 6.02722 170.357 6.43158 170.115 6.9652C169.873 7.4955 169.752 8.14347 169.752 8.90909C169.752 9.68797 169.873 10.3442 170.115 10.8778C170.36 11.4081 170.695 11.8092 171.119 12.081C171.547 12.3494 172.036 12.4837 172.586 12.4837C172.891 12.4837 173.176 12.4439 173.441 12.3643C173.709 12.2815 173.95 12.1605 174.162 12.0014C174.377 11.8423 174.558 11.6468 174.704 11.4148C174.853 11.1828 174.956 10.9176 175.012 10.6193L176.871 10.6293C176.802 11.1132 176.651 11.5672 176.419 11.9915C176.19 12.4157 175.89 12.7902 175.519 13.1151C175.148 13.4366 174.714 13.6884 174.216 13.8707C173.719 14.0497 173.167 14.1392 172.561 14.1392C171.666 14.1392 170.867 13.9321 170.165 13.5178C169.462 13.1035 168.908 12.5052 168.504 11.723C168.1 10.9408 167.898 10.0028 167.898 8.90909C167.898 7.81203 168.101 6.87405 168.509 6.09517C168.917 5.31297 169.472 4.71473 170.175 4.30043C170.877 3.88613 171.673 3.67898 172.561 3.67898C173.128 3.67898 173.655 3.75852 174.142 3.91761C174.629 4.0767 175.063 4.31037 175.444 4.61861C175.826 4.92353 176.139 5.29806 176.384 5.74219C176.633 6.183 176.795 6.68679 176.871 7.25355ZM181.392 14.1491C180.646 14.1491 180 13.9851 179.453 13.657C178.906 13.3288 178.482 12.8698 178.18 12.2798C177.882 11.6899 177.733 11.0005 177.733 10.2116C177.733 9.42282 177.882 8.73177 178.18 8.13849C178.482 7.54522 178.906 7.08452 179.453 6.75639C180 6.42827 180.646 6.2642 181.392 6.2642C182.138 6.2642 182.784 6.42827 183.331 6.75639C183.878 7.08452 184.3 7.54522 184.598 8.13849C184.9 8.73177 185.051 9.42282 185.051 10.2116C185.051 11.0005 184.9 11.6899 184.598 12.2798C184.3 12.8698 183.878 13.3288 183.331 13.657C182.784 13.9851 182.138 14.1491 181.392 14.1491ZM181.402 12.7074C181.806 12.7074 182.144 12.5964 182.416 12.3743C182.688 12.1489 182.89 11.8473 183.022 11.4695C183.158 11.0916 183.226 10.6707 183.226 10.2067C183.226 9.73935 183.158 9.31676 183.022 8.93892C182.89 8.55777 182.688 8.2545 182.416 8.02912C182.144 7.80374 181.806 7.69105 181.402 7.69105C180.987 7.69105 180.643 7.80374 180.368 8.02912C180.096 8.2545 179.892 8.55777 179.756 8.93892C179.624 9.31676 179.557 9.73935 179.557 10.2067C179.557 10.6707 179.624 11.0916 179.756 11.4695C179.892 11.8473 180.096 12.1489 180.368 12.3743C180.643 12.5964 180.987 12.7074 181.402 12.7074ZM187.958 9.52557V14H186.158V6.36364H187.879V7.66122H187.968C188.144 7.23366 188.424 6.89394 188.808 6.64205C189.196 6.39015 189.675 6.2642 190.245 6.2642C190.772 6.2642 191.231 6.37689 191.622 6.60227C192.017 6.82765 192.322 7.15412 192.537 7.58168C192.756 8.00923 192.863 8.52794 192.86 9.13778V14H191.06V9.41619C191.06 8.90578 190.928 8.50639 190.663 8.21804C190.401 7.92969 190.038 7.78551 189.574 7.78551C189.259 7.78551 188.979 7.85511 188.734 7.99432C188.492 8.13021 188.301 8.32741 188.162 8.58594C188.026 8.84446 187.958 9.15767 187.958 9.52557ZM198.083 6.36364V7.75568H193.693V6.36364H198.083ZM194.777 4.53409H196.576V11.7031C196.576 11.9451 196.613 12.1307 196.686 12.2599C196.762 12.3859 196.861 12.4721 196.984 12.5185C197.107 12.5649 197.243 12.5881 197.392 12.5881C197.504 12.5881 197.607 12.5798 197.7 12.5632C197.796 12.5466 197.869 12.5317 197.919 12.5185L198.222 13.9254C198.126 13.9586 197.988 13.995 197.809 14.0348C197.634 14.0746 197.418 14.0978 197.163 14.1044C196.712 14.1177 196.306 14.0497 195.945 13.9006C195.584 13.7481 195.297 13.5128 195.085 13.1946C194.876 12.8764 194.773 12.4787 194.777 12.0014V4.53409ZM201.365 14.1541C200.882 14.1541 200.446 14.0679 200.058 13.8956C199.673 13.7199 199.369 13.4614 199.143 13.12C198.921 12.7786 198.81 12.3577 198.81 11.8572C198.81 11.4264 198.89 11.0701 199.049 10.7884C199.208 10.5066 199.425 10.2812 199.7 10.1122C199.975 9.94318 200.285 9.81558 200.63 9.7294C200.978 9.63991 201.337 9.57528 201.708 9.53551C202.156 9.48911 202.519 9.44768 202.797 9.41122C203.076 9.37145 203.278 9.31179 203.404 9.23224C203.533 9.14938 203.598 9.02178 203.598 8.84943V8.8196C203.598 8.44508 203.487 8.15507 203.265 7.94957C203.043 7.74408 202.723 7.64134 202.305 7.64134C201.864 7.64134 201.515 7.73745 201.256 7.92969C201.001 8.12192 200.829 8.34896 200.739 8.6108L199.059 8.37216C199.191 7.90814 199.41 7.52036 199.715 7.20881C200.02 6.89394 200.393 6.65862 200.833 6.50284C201.274 6.34375 201.762 6.2642 202.295 6.2642C202.663 6.2642 203.029 6.30729 203.394 6.39347C203.758 6.47964 204.092 6.62216 204.393 6.82102C204.695 7.01657 204.937 7.28338 205.119 7.62145C205.305 7.95952 205.397 8.3821 205.397 8.8892V14H203.667V12.951H203.608C203.498 13.1631 203.344 13.362 203.145 13.5476C202.95 13.7299 202.703 13.8774 202.405 13.9901C202.11 14.0994 201.763 14.1541 201.365 14.1541ZM201.833 12.8317C202.194 12.8317 202.507 12.7604 202.772 12.6179C203.038 12.4721 203.241 12.2798 203.384 12.0412C203.53 11.8026 203.603 11.5424 203.603 11.2607V10.3608C203.546 10.4072 203.45 10.4503 203.314 10.4901C203.182 10.5298 203.033 10.5646 202.867 10.5945C202.701 10.6243 202.537 10.6508 202.375 10.674C202.212 10.6972 202.071 10.7171 201.952 10.7337C201.684 10.7701 201.443 10.8298 201.231 10.9126C201.019 10.9955 200.852 11.1115 200.729 11.2607C200.606 11.4065 200.545 11.5954 200.545 11.8274C200.545 12.1589 200.666 12.4091 200.908 12.5781C201.15 12.7472 201.458 12.8317 201.833 12.8317ZM210.118 14.1491C209.356 14.1491 208.701 13.9818 208.154 13.647C207.611 13.3123 207.191 12.8499 206.896 12.2599C206.605 11.6667 206.459 10.9839 206.459 10.2116C206.459 9.43608 206.608 8.75166 206.906 8.15838C207.205 7.56179 207.626 7.09777 208.169 6.76633C208.716 6.43158 209.362 6.2642 210.108 6.2642C210.728 6.2642 211.276 6.37855 211.754 6.60724C212.234 6.83262 212.617 7.15246 212.902 7.56676C213.187 7.97775 213.35 8.45833 213.389 9.00852H211.669C211.6 8.64062 211.434 8.33404 211.172 8.08878C210.913 7.8402 210.567 7.71591 210.133 7.71591C209.765 7.71591 209.442 7.81534 209.163 8.0142C208.885 8.20975 208.668 8.49148 208.512 8.85937C208.36 9.22727 208.284 9.66809 208.284 10.1818C208.284 10.7022 208.36 11.1496 208.512 11.5241C208.665 11.8954 208.878 12.1821 209.154 12.3842C209.432 12.5831 209.758 12.6825 210.133 12.6825C210.398 12.6825 210.635 12.6328 210.844 12.5334C211.056 12.4306 211.233 12.2831 211.376 12.0909C211.518 11.8987 211.616 11.665 211.669 11.3899H213.389C213.346 11.9302 213.187 12.4091 212.912 12.8267C212.637 13.241 212.262 13.5658 211.788 13.8011C211.315 14.0331 210.758 14.1491 210.118 14.1491ZM218.26 6.36364V7.75568L213.87 7.75568V6.36364L218.26 6.36364ZM214.954 4.53409L216.754 4.53409V11.7031C216.754 11.9451 216.79 12.1307 216.863 12.2599C216.94 12.3859 217.039 12.4721 217.162 12.5185C217.284 12.5649 217.42 12.5881 217.569 12.5881C217.682 12.5881 217.785 12.5798 217.878 12.5632C217.974 12.5466 218.047 12.5317 218.096 12.5185L218.4 13.9254C218.303 13.9586 218.166 13.995 217.987 14.0348C217.811 14.0746 217.596 14.0978 217.341 14.1044C216.89 14.1177 216.484 14.0497 216.123 13.9006C215.761 13.7481 215.475 13.5128 215.262 13.1946C215.054 12.8764 214.951 12.4787 214.954 12.0014V4.53409ZM227.265 10.7884V6.36364H229.065V14H227.32V12.6428H227.24C227.068 13.0703 226.785 13.42 226.39 13.6918C225.999 13.9635 225.517 14.0994 224.944 14.0994C224.443 14.0994 224.001 13.9884 223.616 13.7663C223.235 13.541 222.937 13.2145 222.721 12.7869C222.506 12.3561 222.398 11.8357 222.398 11.2259V6.36364H224.198V10.9474C224.198 11.4313 224.33 11.8158 224.596 12.1009C224.861 12.3859 225.209 12.5284 225.64 12.5284C225.905 12.5284 226.162 12.4638 226.41 12.3345C226.659 12.2053 226.863 12.013 227.022 11.7578C227.184 11.4993 227.265 11.1761 227.265 10.7884ZM236.531 8.3821L234.891 8.56108C234.844 8.39536 234.763 8.23958 234.647 8.09375C234.534 7.94792 234.382 7.83026 234.19 7.74077C233.997 7.65128 233.762 7.60653 233.484 7.60653C233.109 7.60653 232.794 7.68774 232.539 7.85014C232.287 8.01255 232.163 8.22301 232.166 8.48153C232.163 8.7036 232.244 8.88423 232.41 9.02344C232.579 9.16264 232.857 9.27699 233.245 9.36648L234.548 9.64489C235.27 9.80066 235.807 10.0476 236.158 10.3857C236.513 10.7237 236.692 11.1662 236.695 11.7131C236.692 12.1937 236.551 12.6179 236.273 12.9858C235.998 13.3504 235.615 13.6354 235.124 13.8409C234.634 14.0464 234.07 14.1491 233.434 14.1491C232.499 14.1491 231.747 13.9536 231.177 13.5625C230.607 13.1681 230.267 12.6196 230.158 11.9169L231.913 11.7479C231.992 12.0926 232.161 12.3527 232.42 12.5284C232.678 12.7041 233.015 12.7919 233.429 12.7919C233.857 12.7919 234.2 12.7041 234.458 12.5284C234.72 12.3527 234.851 12.1357 234.851 11.8771C234.851 11.6584 234.766 11.4777 234.597 11.3352C234.432 11.1927 234.173 11.0833 233.822 11.0071L232.519 10.7337C231.787 10.5812 231.245 10.3243 230.893 9.96307C230.542 9.59848 230.368 9.13778 230.371 8.58097C230.368 8.11032 230.496 7.70265 230.754 7.35795C231.016 7.00994 231.379 6.74148 231.843 6.55256C232.31 6.36032 232.849 6.2642 233.459 6.2642C234.354 6.2642 235.058 6.45478 235.572 6.83594C236.089 7.21709 236.409 7.73248 236.531 8.3821ZM242.612 9.52557V14H240.812V6.36364H242.532V7.66122H242.622C242.797 7.23366 243.077 6.89394 243.462 6.64205C243.85 6.39015 244.329 6.2642 244.899 6.2642C245.426 6.2642 245.885 6.37689 246.276 6.60227C246.67 6.82765 246.975 7.15412 247.191 7.58168C247.409 8.00923 247.517 8.52794 247.514 9.13778V14H245.714V9.41619C245.714 8.90578 245.581 8.50639 245.316 8.21804C245.054 7.92969 244.691 7.78551 244.227 7.78551C243.913 7.78551 243.633 7.85511 243.387 7.99432C243.145 8.13021 242.955 8.32741 242.816 8.58594C242.68 8.84446 242.612 9.15767 242.612 9.52557ZM252.254 14.1491C251.508 14.1491 250.862 13.9851 250.315 13.657C249.768 13.3288 249.344 12.8698 249.043 12.2798C248.744 11.6899 248.595 11.0005 248.595 10.2116C248.595 9.42282 248.744 8.73177 249.043 8.13849C249.344 7.54522 249.768 7.08452 250.315 6.75639C250.862 6.42827 251.508 6.2642 252.254 6.2642C253 6.2642 253.646 6.42827 254.193 6.75639C254.74 7.08452 255.163 7.54522 255.461 8.13849C255.762 8.73177 255.913 9.42282 255.913 10.2116C255.913 11.0005 255.762 11.6899 255.461 12.2798C255.163 12.8698 254.74 13.3288 254.193 13.657C253.646 13.9851 253 14.1491 252.254 14.1491ZM252.264 12.7074C252.669 12.7074 253.007 12.5964 253.278 12.3743C253.55 12.1489 253.752 11.8473 253.885 11.4695C254.021 11.0916 254.089 10.6707 254.089 10.2067C254.089 9.73935 254.021 9.31676 253.885 8.93892C253.752 8.55777 253.55 8.2545 253.278 8.02912C253.007 7.80374 252.669 7.69105 252.264 7.69105C251.85 7.69105 251.505 7.80374 251.23 8.02912C250.958 8.2545 250.754 8.55777 250.619 8.93892C250.486 9.31676 250.42 9.73935 250.42 10.2067C250.42 10.6707 250.486 11.0916 250.619 11.4695C250.754 11.8473 250.958 12.1489 251.23 12.3743C251.505 12.5964 251.85 12.7074 252.264 12.7074ZM258.378 14L256.22 6.36364H258.055L259.397 11.733H259.467L260.839 6.36364H262.654L264.026 11.7031H264.1L265.423 6.36364H267.262L265.1 14H263.225L261.794 8.83949H261.689L260.257 14H258.378ZM270.301 3.81818L270.137 11.0071H268.536L268.377 3.81818H270.301ZM269.337 14.1094C269.035 14.1094 268.777 14.0033 268.561 13.7912C268.349 13.5791 268.243 13.3205 268.243 13.0156C268.243 12.7173 268.349 12.4621 268.561 12.25C268.777 12.0379 269.035 11.9318 269.337 11.9318C269.632 11.9318 269.887 12.0379 270.102 12.25C270.321 12.4621 270.431 12.7173 270.431 13.0156C270.431 13.2178 270.379 13.4018 270.276 13.5675C270.177 13.7332 270.044 13.8658 269.879 13.9652C269.716 14.0613 269.536 14.1094 269.337 14.1094ZM305.847 5.17045L302.943 8.07386L300 5.17045L302.943 2.22727L305.847 5.17045ZM309.585 8.90909L306.682 11.8523L303.778 8.90909L306.682 6.00568L309.585 8.90909ZM302.108 8.90909L299.165 11.8523L296.222 8.90909L299.165 6.00568L302.108 8.90909ZM305.847 12.6875L302.943 15.5909L300 12.6875L302.943 9.74432L305.847 12.6875ZM344.023 7.25355H342.164C342.111 6.94863 342.013 6.6785 341.87 6.44318C341.728 6.20455 341.551 6.00237 341.338 5.83665C341.126 5.67093 340.884 5.54664 340.613 5.46378C340.344 5.3776 340.054 5.33452 339.743 5.33452C339.189 5.33452 338.698 5.47372 338.271 5.75213C337.843 6.02722 337.509 6.43158 337.267 6.9652C337.025 7.4955 336.904 8.14347 336.904 8.90909C336.904 9.68797 337.025 10.3442 337.267 10.8778C337.512 11.4081 337.847 11.8092 338.271 12.081C338.698 12.3494 339.187 12.4837 339.738 12.4837C340.042 12.4837 340.328 12.4439 340.593 12.3643C340.861 12.2815 341.101 12.1605 341.314 12.0014C341.529 11.8423 341.71 11.6468 341.855 11.4148C342.005 11.1828 342.107 10.9176 342.164 10.6193L344.023 10.6293C343.953 11.1132 343.803 11.5672 343.571 11.9915C343.342 12.4157 343.042 12.7902 342.671 13.1151C342.3 13.4366 341.865 13.6884 341.368 13.8707C340.871 14.0497 340.319 14.1392 339.713 14.1392C338.818 14.1392 338.019 13.9321 337.316 13.5178C336.614 13.1035 336.06 12.5052 335.656 11.723C335.252 10.9408 335.049 10.0028 335.049 8.90909C335.049 7.81203 335.253 6.87405 335.661 6.09517C336.069 5.31297 336.624 4.71473 337.326 4.30043C338.029 3.88613 338.824 3.67898 339.713 3.67898C340.279 3.67898 340.806 3.75852 341.294 3.91761C341.781 4.0767 342.215 4.31037 342.596 4.61861C342.977 4.92353 343.291 5.29806 343.536 5.74219C343.784 6.183 343.947 6.68679 344.023 7.25355ZM348.544 14.1491C347.798 14.1491 347.152 13.9851 346.605 13.657C346.058 13.3288 345.634 12.8698 345.332 12.2798C345.034 11.6899 344.884 11.0005 344.884 10.2116C344.884 9.42282 345.034 8.73177 345.332 8.13849C345.634 7.54522 346.058 7.08452 346.605 6.75639C347.152 6.42827 347.798 6.2642 348.544 6.2642C349.289 6.2642 349.936 6.42827 350.483 6.75639C351.029 7.08452 351.452 7.54522 351.75 8.13849C352.052 8.73177 352.203 9.42282 352.203 10.2116C352.203 11.0005 352.052 11.6899 351.75 12.2798C351.452 12.8698 351.029 13.3288 350.483 13.657C349.936 13.9851 349.289 14.1491 348.544 14.1491ZM348.554 12.7074C348.958 12.7074 349.296 12.5964 349.568 12.3743C349.84 12.1489 350.042 11.8473 350.174 11.4695C350.31 11.0916 350.378 10.6707 350.378 10.2067C350.378 9.73935 350.31 9.31676 350.174 8.93892C350.042 8.55777 349.84 8.2545 349.568 8.02912C349.296 7.80374 348.958 7.69105 348.554 7.69105C348.139 7.69105 347.795 7.80374 347.519 8.02912C347.248 8.2545 347.044 8.55777 346.908 8.93892C346.775 9.31676 346.709 9.73935 346.709 10.2067C346.709 10.6707 346.775 11.0916 346.908 11.4695C347.044 11.8473 347.248 12.1489 347.519 12.3743C347.795 12.5964 348.139 12.7074 348.554 12.7074ZM355.11 9.52557V14H353.31V6.36364H355.03V7.66122H355.12C355.296 7.23366 355.576 6.89394 355.96 6.64205C356.348 6.39015 356.827 6.2642 357.397 6.2642C357.924 6.2642 358.383 6.37689 358.774 6.60227C359.168 6.82765 359.473 7.15412 359.689 7.58168C359.907 8.00923 360.015 8.52794 360.012 9.13778V14H358.212V9.41619C358.212 8.90578 358.08 8.50639 357.814 8.21804C357.553 7.92969 357.19 7.78551 356.726 7.78551C356.411 7.78551 356.131 7.85511 355.885 7.99432C355.644 8.13021 355.453 8.32741 355.314 8.58594C355.178 8.84446 355.11 9.15767 355.11 9.52557ZM365.235 6.36364V7.75568L360.845 7.75568V6.36364L365.235 6.36364ZM361.929 4.53409H363.728V11.7031C363.728 11.9451 363.765 12.1307 363.838 12.2599C363.914 12.3859 364.013 12.4721 364.136 12.5185C364.259 12.5649 364.394 12.5881 364.544 12.5881C364.656 12.5881 364.759 12.5798 364.852 12.5632C364.948 12.5466 365.021 12.5317 365.071 12.5185L365.374 13.9254C365.278 13.9586 365.14 13.995 364.961 14.0348C364.786 14.0746 364.57 14.0978 364.315 14.1044C363.864 14.1177 363.458 14.0497 363.097 13.9006C362.736 13.7481 362.449 13.5128 362.237 13.1946C362.028 12.8764 361.925 12.4787 361.929 12.0014V4.53409ZM368.517 14.1541C368.033 14.1541 367.597 14.0679 367.21 13.8956C366.825 13.7199 366.52 13.4614 366.295 13.12C366.073 12.7786 365.962 12.3577 365.962 11.8572C365.962 11.4264 366.041 11.0701 366.2 10.7884C366.36 10.5066 366.577 10.2812 366.852 10.1122C367.127 9.94318 367.437 9.81558 367.781 9.7294C368.129 9.63991 368.489 9.57528 368.86 9.53551C369.308 9.48911 369.671 9.44768 369.949 9.41122C370.227 9.37145 370.43 9.31179 370.556 9.23224C370.685 9.14938 370.749 9.02178 370.749 8.84943V8.8196C370.749 8.44508 370.638 8.15507 370.416 7.94957C370.194 7.74408 369.874 7.64134 369.457 7.64134C369.016 7.64134 368.666 7.73745 368.408 7.92969C368.153 8.12192 367.98 8.34896 367.891 8.6108L366.21 8.37216C366.343 7.90814 366.562 7.52036 366.867 7.20881C367.172 6.89394 367.544 6.65862 367.985 6.50284C368.426 6.34375 368.913 6.2642 369.447 6.2642C369.815 6.2642 370.181 6.30729 370.546 6.39347C370.91 6.47964 371.243 6.62216 371.545 6.82102C371.847 7.01657 372.088 7.28338 372.271 7.62145C372.456 7.95952 372.549 8.3821 372.549 8.8892V14L370.819 14V12.951H370.759C370.65 13.1631 370.496 13.362 370.297 13.5476C370.102 13.7299 369.855 13.8774 369.556 13.9901C369.261 14.0994 368.915 14.1541 368.517 14.1541ZM368.985 12.8317C369.346 12.8317 369.659 12.7604 369.924 12.6179C370.189 12.4721 370.393 12.2798 370.536 12.0412C370.682 11.8026 370.754 11.5424 370.754 11.2607V10.3608C370.698 10.4072 370.602 10.4503 370.466 10.4901C370.334 10.5298 370.184 10.5646 370.019 10.5945C369.853 10.6243 369.689 10.6508 369.526 10.674C369.364 10.6972 369.223 10.7171 369.104 10.7337C368.835 10.7701 368.595 10.8298 368.383 10.9126C368.171 10.9955 368.004 11.1115 367.881 11.2607C367.758 11.4065 367.697 11.5954 367.697 11.8274C367.697 12.1589 367.818 12.4091 368.06 12.5781C368.302 12.7472 368.61 12.8317 368.985 12.8317ZM377.27 14.1491C376.508 14.1491 375.853 13.9818 375.306 13.647C374.762 13.3123 374.343 12.8499 374.048 12.2599C373.757 11.6667 373.611 10.9839 373.611 10.2116C373.611 9.43608 373.76 8.75166 374.058 8.15838C374.356 7.56179 374.777 7.09777 375.321 6.76633C375.868 6.43158 376.514 6.2642 377.26 6.2642C377.88 6.2642 378.428 6.37855 378.905 6.60724C379.386 6.83262 379.769 7.15246 380.054 7.56676C380.339 7.97775 380.501 8.45833 380.541 9.00852H378.821C378.751 8.64062 378.586 8.33404 378.324 8.08878C378.065 7.8402 377.719 7.71591 377.285 7.71591C376.917 7.71591 376.594 7.81534 376.315 8.0142C376.037 8.20975 375.82 8.49148 375.664 8.85937C375.512 9.22727 375.435 9.66809 375.435 10.1818C375.435 10.7022 375.512 11.1496 375.664 11.5241C375.816 11.8954 376.03 12.1821 376.305 12.3842C376.584 12.5831 376.91 12.6825 377.285 12.6825C377.55 12.6825 377.787 12.6328 377.996 12.5334C378.208 12.4306 378.385 12.2831 378.528 12.0909C378.67 11.8987 378.768 11.665 378.821 11.3899H380.541C380.498 11.9302 380.339 12.4091 380.064 12.8267C379.789 13.241 379.414 13.5658 378.94 13.8011C378.466 14.0331 377.909 14.1491 377.27 14.1491ZM385.412 6.36364V7.75568H381.022V6.36364H385.412ZM382.106 4.53409H383.906V11.7031C383.906 11.9451 383.942 12.1307 384.015 12.2599C384.091 12.3859 384.191 12.4721 384.313 12.5185C384.436 12.5649 384.572 12.5881 384.721 12.5881C384.834 12.5881 384.937 12.5798 385.029 12.5632C385.125 12.5466 385.198 12.5317 385.248 12.5185L385.551 13.9254C385.455 13.9586 385.318 13.995 385.139 14.0348C384.963 14.0746 384.748 14.0978 384.492 14.1044C384.042 14.1177 383.636 14.0497 383.274 13.9006C382.913 13.7481 382.626 13.5128 382.414 13.1946C382.205 12.8764 382.103 12.4787 382.106 12.0014V4.53409ZM394.417 10.7884V6.36364H396.217V14H394.472V12.6428H394.392C394.22 13.0703 393.937 13.42 393.542 13.6918C393.151 13.9635 392.669 14.0994 392.095 14.0994C391.595 14.0994 391.152 13.9884 390.768 13.7663C390.387 13.541 390.089 13.2145 389.873 12.7869C389.658 12.3561 389.55 11.8357 389.55 11.2259V6.36364H391.35V10.9474C391.35 11.4313 391.482 11.8158 391.747 12.1009C392.013 12.3859 392.361 12.5284 392.791 12.5284C393.057 12.5284 393.313 12.4638 393.562 12.3345C393.811 12.2053 394.014 12.013 394.174 11.7578C394.336 11.4993 394.417 11.1761 394.417 10.7884ZM403.683 8.3821L402.042 8.56108C401.996 8.39536 401.915 8.23958 401.799 8.09375C401.686 7.94792 401.534 7.83026 401.341 7.74077C401.149 7.65128 400.914 7.60653 400.635 7.60653C400.261 7.60653 399.946 7.68774 399.691 7.85014C399.439 8.01255 399.315 8.22301 399.318 8.48153C399.315 8.7036 399.396 8.88423 399.562 9.02344C399.731 9.16264 400.009 9.27699 400.397 9.36648L401.699 9.64489C402.422 9.80066 402.959 10.0476 403.31 10.3857C403.665 10.7237 403.844 11.1662 403.847 11.7131C403.844 12.1937 403.703 12.6179 403.425 12.9858C403.149 13.3504 402.767 13.6354 402.276 13.8409C401.786 14.0464 401.222 14.1491 400.586 14.1491C399.651 14.1491 398.899 13.9536 398.329 13.5625C397.759 13.1681 397.419 12.6196 397.309 11.9169L399.064 11.7479C399.144 12.0926 399.313 12.3527 399.572 12.5284C399.83 12.7041 400.166 12.7919 400.581 12.7919C401.008 12.7919 401.351 12.7041 401.61 12.5284C401.872 12.3527 402.003 12.1357 402.003 11.8771C402.003 11.6584 401.918 11.4777 401.749 11.3352C401.583 11.1927 401.325 11.0833 400.974 11.0071L399.671 10.7337C398.938 10.5812 398.397 10.3243 398.045 9.96307C397.694 9.59848 397.52 9.13778 397.523 8.58097C397.52 8.11032 397.648 7.70265 397.906 7.35795C398.168 7.00994 398.531 6.74148 398.995 6.55256C399.462 6.36032 400.001 6.2642 400.611 6.2642C401.505 6.2642 402.21 6.45478 402.724 6.83594C403.241 7.21709 403.56 7.73248 403.683 8.3821ZM409.763 9.52557V14H407.964V6.36364L409.684 6.36364V7.66122H409.773C409.949 7.23366 410.229 6.89394 410.614 6.64205C411.001 6.39015 411.48 6.2642 412.05 6.2642C412.577 6.2642 413.036 6.37689 413.428 6.60227C413.822 6.82765 414.127 7.15412 414.342 7.58168C414.561 8.00923 414.669 8.52794 414.665 9.13778V14H412.866V9.41619C412.866 8.90578 412.733 8.50639 412.468 8.21804C412.206 7.92969 411.843 7.78551 411.379 7.78551C411.064 7.78551 410.784 7.85511 410.539 7.99432C410.297 8.13021 410.107 8.32741 409.967 8.58594C409.831 8.84446 409.763 9.15767 409.763 9.52557ZM419.406 14.1491C418.66 14.1491 418.014 13.9851 417.467 13.657C416.92 13.3288 416.496 12.8698 416.194 12.2798C415.896 11.6899 415.747 11.0005 415.747 10.2116C415.747 9.42282 415.896 8.73177 416.194 8.13849C416.496 7.54522 416.92 7.08452 417.467 6.75639C418.014 6.42827 418.66 6.2642 419.406 6.2642C420.152 6.2642 420.798 6.42827 421.345 6.75639C421.892 7.08452 422.314 7.54522 422.613 8.13849C422.914 8.73177 423.065 9.42282 423.065 10.2116C423.065 11.0005 422.914 11.6899 422.613 12.2798C422.314 12.8698 421.892 13.3288 421.345 13.657C420.798 13.9851 420.152 14.1491 419.406 14.1491ZM419.416 12.7074C419.82 12.7074 420.158 12.5964 420.43 12.3743C420.702 12.1489 420.904 11.8473 421.037 11.4695C421.173 11.0916 421.24 10.6707 421.24 10.2067C421.24 9.73935 421.173 9.31676 421.037 8.93892C420.904 8.55777 420.702 8.2545 420.43 8.02912C420.158 7.80374 419.82 7.69105 419.416 7.69105C419.002 7.69105 418.657 7.80374 418.382 8.02912C418.11 8.2545 417.906 8.55777 417.77 8.93892C417.638 9.31676 417.571 9.73935 417.571 10.2067C417.571 10.6707 417.638 11.0916 417.77 11.4695C417.906 11.8473 418.11 12.1489 418.382 12.3743C418.657 12.5964 419.002 12.7074 419.416 12.7074ZM425.53 14L423.372 6.36364L425.207 6.36364L426.549 11.733H426.619L427.991 6.36364H429.805L431.178 11.7031L431.252 11.7031L432.575 6.36364H434.414L432.251 14L430.377 14L428.945 8.83949H428.841L427.409 14H425.53ZM437.453 3.81818L437.289 11.0071H435.688L435.529 3.81818H437.453ZM436.489 14.1094C436.187 14.1094 435.928 14.0033 435.713 13.7912C435.501 13.5791 435.395 13.3205 435.395 13.0156C435.395 12.7173 435.501 12.4621 435.713 12.25C435.928 12.0379 436.187 11.9318 436.489 11.9318C436.784 11.9318 437.039 12.0379 437.254 12.25C437.473 12.4621 437.582 12.7173 437.582 13.0156C437.582 13.2178 437.531 13.4018 437.428 13.5675C437.329 13.7332 437.196 13.8658 437.03 13.9652C436.868 14.0613 436.687 14.1094 436.489 14.1094ZM476.051 5.17045L473.148 8.07386L470.204 5.17045L473.148 2.22727L476.051 5.17045ZM479.79 8.90909L476.886 11.8523L473.983 8.90909L476.886 6.00568L479.79 8.90909ZM472.312 8.90909L469.369 11.8523L466.426 8.90909L469.369 6.00568L472.312 8.90909ZM476.051 12.6875L473.148 15.5909L470.204 12.6875L473.148 9.74432L476.051 12.6875Z" fill="black"/>
</svg>
