<svg width="22" height="1049" viewBox="0 0 22 1049" fill="none" xmlns="http://www.w3.org/2000/svg">
<path d="M6.15431 1006.29L9.72069 1009.85L6.15431 1013.47L2.53908 1009.85L6.15431 1006.29ZM10.7466 1001.7L14.3619 1005.26L10.7466 1008.83L7.18026 1005.26L10.7466 1001.7ZM10.7466 1010.88L14.3619 1014.5L10.7466 1018.11L7.18026 1014.5L10.7466 1010.88ZM15.3878 1006.29L18.9542 1009.85L15.3878 1013.47L11.7726 1009.85L15.3878 1006.29ZM8.71306 959.394L8.71306 961.678C8.33851 961.743 8.00671 961.863 7.71766 962.039C7.42453 962.214 7.17619 962.431 6.97262 962.692C6.76906 962.953 6.61639 963.25 6.51461 963.584C6.40876 963.913 6.35584 964.27 6.35584 964.652C6.35584 965.332 6.52683 965.935 6.86881 966.46C7.20672 966.985 7.70341 967.396 8.35887 967.693C9.01026 967.991 9.80618 968.139 10.7466 968.139C11.7034 968.139 12.5095 967.991 13.1649 967.693C13.8163 967.392 14.3089 966.981 14.6428 966.46C14.9725 965.935 15.1374 965.334 15.1374 964.658C15.1374 964.284 15.0886 963.934 14.9909 963.608C14.8891 963.278 14.7405 962.983 14.5451 962.722C14.3496 962.458 14.1094 962.236 13.8245 962.057C13.5395 961.874 13.2138 961.747 12.8474 961.678L12.8596 959.394C13.454 959.48 14.0117 959.665 14.5329 959.95C15.054 960.231 15.514 960.599 15.913 961.055C16.3079 961.511 16.6173 962.045 16.8412 962.655C17.0611 963.266 17.171 963.944 17.171 964.689C17.171 965.788 16.9165 966.769 16.4076 967.632C15.8987 968.495 15.1639 969.175 14.2031 969.672C13.2423 970.169 12.0901 970.417 10.7466 970.417C9.39906 970.417 8.24691 970.167 7.29018 969.666C6.32938 969.165 5.59452 968.483 5.08562 967.62C4.57672 966.757 4.32227 965.78 4.32227 964.689C4.32227 963.993 4.41998 963.345 4.6154 962.747C4.81082 962.148 5.09784 961.615 5.47646 961.147C5.85101 960.679 6.31105 960.294 6.8566 959.993C7.39807 959.687 8.01689 959.488 8.71306 959.394ZM17.1832 953.842C17.1832 954.758 16.9817 955.551 16.5786 956.223C16.1756 956.895 15.6117 957.416 14.887 957.787C14.1624 958.153 13.3156 958.336 12.3466 958.336C11.3777 958.336 10.5288 958.153 9.80008 957.787C9.07133 957.416 8.50543 956.895 8.10238 956.223C7.69934 955.551 7.49781 954.758 7.49781 953.842C7.49781 952.926 7.69934 952.132 8.10238 951.46C8.50543 950.788 9.07133 950.269 9.80008 949.903C10.5288 949.532 11.3777 949.347 12.3466 949.347C13.3156 949.347 14.1624 949.532 14.887 949.903C15.6117 950.269 16.1756 950.788 16.5786 951.46C16.9817 952.132 17.1832 952.926 17.1832 953.842ZM15.4122 953.829C15.4122 953.333 15.2758 952.917 15.0031 952.584C14.7262 952.25 14.3558 952.001 13.8916 951.839C13.4275 951.672 12.9105 951.588 12.3405 951.588C11.7665 951.588 11.2474 951.672 10.7833 951.839C10.3151 952.001 9.94257 952.25 9.66573 952.584C9.38888 952.917 9.25046 953.333 9.25046 953.829C9.25046 954.338 9.38888 954.762 9.66573 955.1C9.94257 955.433 10.3151 955.684 10.7833 955.851C11.2474 956.014 11.7665 956.095 12.3405 956.095C12.9105 956.095 13.4275 956.014 13.8916 955.851C14.3558 955.684 14.7262 955.433 15.0031 955.1C15.2758 954.762 15.4122 954.338 15.4122 953.829ZM11.5039 945.776L17 945.776L17 947.987L7.61995 947.987L7.61995 945.874L9.21382 945.874L9.21382 945.764C8.68864 945.548 8.27134 945.204 7.96193 944.732C7.65252 944.255 7.49781 943.667 7.49781 942.967C7.49781 942.319 7.63623 941.756 7.91307 941.275C8.18992 940.791 8.59093 940.416 9.11611 940.151C9.6413 939.883 10.2784 939.75 11.0275 939.755L17 939.755L17 941.965L11.3695 941.965C10.7426 941.965 10.252 942.128 9.89779 942.454C9.54359 942.775 9.36649 943.221 9.36649 943.791C9.36649 944.178 9.45199 944.522 9.62298 944.823C9.7899 945.12 10.0321 945.354 10.3497 945.525C10.6672 945.692 11.052 945.776 11.5039 945.776ZM7.61995 933.339L9.32985 933.339L9.32985 938.732L7.61995 938.732L7.61995 933.339ZM5.37264 937.4L5.37264 935.19L14.1787 935.19C14.4759 935.19 14.7038 935.145 14.8626 935.055C15.0173 934.962 15.1232 934.839 15.1802 934.689C15.2372 934.538 15.2657 934.371 15.2657 934.188C15.2657 934.05 15.2555 933.923 15.2351 933.809C15.2148 933.691 15.1965 933.602 15.1802 933.541L16.9084 933.168C16.9491 933.286 16.9939 933.455 17.0427 933.675C17.0916 933.891 17.1201 934.156 17.1282 934.469C17.1445 935.023 17.0611 935.521 16.8779 935.965C16.6906 936.409 16.4015 936.761 16.0107 937.022C15.6199 937.278 15.1313 937.404 14.5451 937.4L5.37264 937.4ZM17.1893 929.307C17.1893 929.901 17.0835 930.437 16.8718 930.913C16.656 931.385 16.3384 931.76 15.9191 932.037C15.4998 932.31 14.9827 932.446 14.368 932.446C13.8387 932.446 13.4011 932.348 13.055 932.153C12.709 931.957 12.4321 931.691 12.2245 931.353C12.0168 931.015 11.8601 930.634 11.7543 930.211C11.6443 929.783 11.5649 929.342 11.5161 928.886C11.4591 928.336 11.4082 927.89 11.3634 927.548C11.3146 927.206 11.2413 926.958 11.1436 926.803C11.0418 926.645 10.8851 926.565 10.6733 926.565L10.6367 926.565C10.1767 926.565 9.82043 926.702 9.56802 926.974C9.3156 927.247 9.1894 927.64 9.1894 928.153C9.1894 928.694 9.30746 929.124 9.54359 929.441C9.77972 929.755 10.0586 929.967 10.3802 930.077L10.0871 932.141C9.51713 931.978 9.0408 931.709 8.6581 931.335C8.27134 930.96 7.98228 930.502 7.79094 929.961C7.59552 929.419 7.49781 928.821 7.49781 928.165C7.49781 927.713 7.55074 927.263 7.65659 926.816C7.76244 926.368 7.9375 925.959 8.18177 925.588C8.42197 925.218 8.74971 924.92 9.16497 924.696C9.58023 924.468 10.0993 924.354 10.7222 924.354L17 924.354L17 926.48L15.7115 926.48L15.7115 926.553C15.972 926.687 16.2163 926.877 16.4443 927.121C16.6682 927.361 16.8494 927.664 16.9878 928.031C17.1221 928.393 17.1893 928.819 17.1893 929.307ZM15.5649 928.733C15.5649 928.289 15.4774 927.905 15.3023 927.579C15.1232 927.253 14.887 927.003 14.5939 926.828C14.3008 926.649 13.9812 926.559 13.6352 926.559L12.5298 926.559C12.5868 926.628 12.6397 926.746 12.6886 926.913C12.7375 927.076 12.7802 927.259 12.8168 927.463C12.8535 927.666 12.886 927.868 12.9145 928.067C12.943 928.267 12.9675 928.44 12.9878 928.586C13.0326 928.916 13.1059 929.211 13.2077 929.472C13.3095 929.733 13.4519 929.938 13.6352 930.089C13.8143 930.239 14.0463 930.315 14.3313 930.315C14.7384 930.315 15.0458 930.166 15.2535 929.869C15.4611 929.572 15.5649 929.193 15.5649 928.733ZM17.1832 918.556C17.1832 919.492 16.9776 920.296 16.5664 920.968C16.1552 921.636 15.5873 922.151 14.8626 922.513C14.1339 922.871 13.2952 923.051 12.3466 923.051C11.394 923.051 10.5532 922.867 9.8245 922.501C9.09169 922.135 8.52172 921.617 8.1146 920.95C7.70341 920.278 7.49781 919.484 7.49781 918.568C7.49781 917.807 7.63827 917.133 7.91918 916.547C8.19602 915.956 8.58889 915.486 9.09779 915.136C9.60262 914.786 10.1929 914.587 10.8688 914.538L10.8688 916.651C10.4169 916.736 10.0403 916.94 9.73901 917.261C9.43367 917.579 9.281 918.004 9.281 918.538C9.281 918.99 9.40313 919.386 9.64741 919.728C9.88761 920.07 10.2337 920.337 10.6856 920.528C11.1375 920.716 11.6789 920.809 12.31 920.809C12.9492 920.809 13.4988 920.716 13.9588 920.528C14.4148 920.341 14.7669 920.079 15.0153 919.741C15.2596 919.399 15.3817 918.998 15.3817 918.538C15.3817 918.212 15.3206 917.921 15.1985 917.664C15.0723 917.404 14.8911 917.186 14.655 917.011C14.4189 916.836 14.1318 916.716 13.7939 916.651L13.7939 914.538C14.4575 914.591 15.0458 914.786 15.5588 915.124C16.0677 915.462 16.4667 915.922 16.7557 916.504C17.0407 917.086 17.1832 917.77 17.1832 918.556ZM7.61995 908.554L9.32985 908.554L9.32985 913.947L7.61995 913.947L7.61995 908.554ZM5.37264 912.615L5.37264 910.405L14.1787 910.405C14.4759 910.405 14.7038 910.36 14.8626 910.27C15.0173 910.177 15.1232 910.055 15.1802 909.904C15.2372 909.753 15.2657 909.586 15.2657 909.403C15.2657 909.265 15.2555 909.139 15.2351 909.025C15.2148 908.907 15.1965 908.817 15.1802 908.756L16.9084 908.383C16.9491 908.501 16.9939 908.67 17.0427 908.89C17.0916 909.106 17.1201 909.371 17.1282 909.684C17.1445 910.238 17.0611 910.737 16.8779 911.18C16.6906 911.624 16.4015 911.976 16.0107 912.237C15.6199 912.493 15.1313 912.619 14.5451 912.615L5.37264 912.615ZM13.055 897.493L7.61995 897.493L7.61995 895.283L17 895.283L17 897.426L15.3328 897.426L15.3328 897.524C15.858 897.735 16.2875 898.084 16.6214 898.568C16.9552 899.048 17.1221 899.641 17.1221 900.345C17.1221 900.96 16.9858 901.503 16.713 901.976C16.4361 902.444 16.0351 902.81 15.5099 903.075C14.9807 903.339 14.3415 903.472 13.5924 903.472L7.61995 903.472L7.61995 901.261L13.2504 901.261C13.8448 901.261 14.3171 901.098 14.6672 900.773C15.0173 900.447 15.1924 900.019 15.1924 899.49C15.1924 899.164 15.113 898.849 14.9542 898.544C14.7954 898.238 14.5593 897.988 14.2458 897.792C13.9283 897.593 13.5313 897.493 13.055 897.493ZM10.0993 886.112L10.3192 888.127C10.1156 888.184 9.92425 888.284 9.74512 888.426C9.56598 888.564 9.42146 888.752 9.31153 888.988C9.20161 889.224 9.14665 889.513 9.14665 889.855C9.14665 890.315 9.24639 890.702 9.44588 891.015C9.64537 891.325 9.90389 891.477 10.2214 891.473C10.4942 891.477 10.7161 891.378 10.8871 891.174C11.0581 890.966 11.1985 890.624 11.3085 890.148L11.6504 888.548C11.8418 887.661 12.1451 887.001 12.5604 886.57C12.9756 886.134 13.5191 885.914 14.1909 885.91C14.7812 885.914 15.3023 886.087 15.7542 886.429C16.202 886.767 16.5522 887.237 16.8046 887.84C17.057 888.442 17.1832 889.134 17.1832 889.916C17.1832 891.064 16.943 891.988 16.4626 892.689C15.9781 893.389 15.3043 893.806 14.4412 893.94L14.2336 891.785C14.657 891.687 14.9766 891.479 15.1924 891.162C15.4082 890.844 15.516 890.431 15.516 889.922C15.516 889.397 15.4082 888.976 15.1924 888.658C14.9766 888.336 14.7099 888.176 14.3924 888.176C14.1237 888.176 13.9018 888.279 13.7268 888.487C13.5517 888.691 13.4173 889.008 13.3237 889.44L12.9878 891.04C12.8006 891.939 12.485 892.605 12.0413 893.037C11.5934 893.468 11.0275 893.682 10.3436 893.678C9.76547 893.682 9.26471 893.525 8.84131 893.208C8.41383 892.886 8.08406 892.44 7.85201 891.87C7.61588 891.296 7.49781 890.635 7.49781 889.886C7.49781 888.786 7.73191 887.921 8.20009 887.29C8.66828 886.655 9.30136 886.262 10.0993 886.112ZM11.5039 878.643L17 878.643L17 880.853L7.61995 880.853L7.61995 878.74L9.21382 878.74L9.21382 878.63C8.68864 878.415 8.27134 878.071 7.96193 877.598C7.65252 877.122 7.49781 876.534 7.49781 875.834C7.49781 875.186 7.63623 874.622 7.91307 874.142C8.18992 873.657 8.59093 873.283 9.11612 873.018C9.6413 872.75 10.2784 872.617 11.0275 872.621L17 872.621L17 874.832L11.3695 874.832C10.7426 874.832 10.252 874.995 9.89779 875.321C9.54359 875.642 9.36649 876.088 9.36649 876.658C9.36649 877.045 9.45199 877.389 9.62298 877.69C9.7899 877.987 10.0321 878.221 10.3497 878.392C10.6672 878.559 11.052 878.643 11.5039 878.643ZM17.1832 866.798C17.1832 867.714 16.9817 868.508 16.5786 869.18C16.1756 869.852 15.6117 870.373 14.887 870.743C14.1624 871.11 13.3156 871.293 12.3466 871.293C11.3777 871.293 10.5288 871.11 9.80008 870.743C9.07133 870.373 8.50543 869.852 8.10239 869.18C7.69934 868.508 7.49781 867.714 7.49781 866.798C7.49781 865.882 7.69934 865.088 8.10239 864.417C8.50543 863.745 9.07133 863.226 9.80008 862.859C10.5288 862.489 11.3777 862.304 12.3466 862.304C13.3156 862.304 14.1624 862.489 14.887 862.859C15.6117 863.226 16.1756 863.745 16.5786 864.417C16.9817 865.088 17.1832 865.882 17.1832 866.798ZM15.4122 866.786C15.4122 866.289 15.2758 865.874 15.0031 865.54C14.7262 865.207 14.3558 864.958 13.8916 864.795C13.4275 864.628 12.9105 864.545 12.3405 864.545C11.7665 864.545 11.2474 864.628 10.7833 864.795C10.3151 864.958 9.94257 865.207 9.66573 865.54C9.38889 865.874 9.25047 866.289 9.25047 866.786C9.25047 867.295 9.38889 867.718 9.66573 868.056C9.94257 868.39 10.3151 868.641 10.7833 868.808C11.2474 868.97 11.7665 869.052 12.3405 869.052C12.9105 869.052 13.4275 868.97 13.8916 868.808C14.3558 868.641 14.7262 868.39 15.0031 868.056C15.2758 867.718 15.4122 867.295 15.4122 866.786ZM17 859.276L7.61995 861.927L7.61995 859.673L14.2153 858.024L14.2153 857.939L7.61995 856.253L7.61995 854.024L14.1787 852.339L14.1787 852.247L7.61995 850.623L7.61995 848.363L17 851.02L17 853.322L10.6611 855.081L10.6611 855.209L17 856.968L17 859.276ZM4.49326 844.63L13.3237 844.832L13.3237 846.798L4.49326 846.994L4.49326 844.63ZM17.1344 845.815C17.1344 846.186 17.0041 846.503 16.7435 846.768C16.483 847.028 16.1654 847.159 15.7909 847.159C15.4244 847.159 15.111 847.028 14.8504 846.768C14.5898 846.503 14.4596 846.186 14.4596 845.815C14.4596 845.453 14.5898 845.139 14.8504 844.875C15.111 844.606 15.4244 844.472 15.7909 844.472C16.0392 844.472 16.2652 844.535 16.4687 844.661C16.6723 844.783 16.8351 844.946 16.9573 845.15C17.0753 845.349 17.1344 845.571 17.1344 845.815ZM6.15432 800.969L9.72069 804.535L6.15432 808.15L2.53909 804.535L6.15432 800.969ZM10.7466 796.376L14.3619 799.943L10.7466 803.509L7.18026 799.943L10.7466 796.376ZM10.7466 805.561L14.3619 809.176L10.7466 812.791L7.18026 809.176L10.7466 805.561ZM15.3878 800.969L18.9542 804.535L15.3878 808.15L11.7726 804.535L15.3878 800.969ZM8.71307 754.075L8.71307 756.359C8.33852 756.424 8.00671 756.544 7.71766 756.719C7.42453 756.894 7.17619 757.112 6.97263 757.373C6.76907 757.633 6.6164 757.93 6.51462 758.264C6.40877 758.594 6.35584 758.95 6.35584 759.333C6.35584 760.013 6.52683 760.615 6.86881 761.141C7.20672 761.666 7.70341 762.077 8.35887 762.374C9.01027 762.671 9.80619 762.82 10.7466 762.82C11.7034 762.82 12.5095 762.671 13.1649 762.374C13.8163 762.073 14.3089 761.662 14.6428 761.141C14.9725 760.615 15.1374 760.015 15.1374 759.339C15.1374 758.965 15.0886 758.614 14.9909 758.289C14.8891 757.959 14.7405 757.664 14.5451 757.403C14.3496 757.139 14.1094 756.917 13.8245 756.738C13.5395 756.554 13.2138 756.428 12.8474 756.359L12.8596 754.075C13.454 754.16 14.0117 754.346 14.5329 754.631C15.054 754.912 15.514 755.28 15.913 755.736C16.3079 756.192 16.6173 756.725 16.8412 757.336C17.0611 757.947 17.171 758.625 17.171 759.37C17.171 760.469 16.9165 761.45 16.4076 762.313C15.8987 763.176 15.1639 763.856 14.2031 764.353C13.2423 764.849 12.0901 765.098 10.7466 765.098C9.39907 765.098 8.24691 764.847 7.29018 764.347C6.32938 763.846 5.59453 763.164 5.08562 762.301C4.57672 761.438 4.32227 760.461 4.32227 759.37C4.32227 758.673 4.41998 758.026 4.6154 757.428C4.81082 756.829 5.09784 756.296 5.47646 755.828C5.85101 755.359 6.31106 754.975 6.8566 754.673C7.39807 754.368 8.01689 754.169 8.71307 754.075ZM17.1832 748.522C17.1832 749.438 16.9817 750.232 16.5786 750.904C16.1756 751.576 15.6117 752.097 14.887 752.467C14.1624 752.834 13.3156 753.017 12.3466 753.017C11.3777 753.017 10.5288 752.834 9.80008 752.467C9.07133 752.097 8.50544 751.576 8.10239 750.904C7.69934 750.232 7.49781 749.438 7.49781 748.522C7.49781 747.606 7.69934 746.812 8.10239 746.141C8.50544 745.469 9.07133 744.95 9.80008 744.583C10.5288 744.213 11.3777 744.028 12.3466 744.028C13.3156 744.028 14.1624 744.213 14.887 744.583C15.6117 744.95 16.1756 745.469 16.5786 746.141C16.9817 746.812 17.1832 747.606 17.1832 748.522ZM15.4122 748.51C15.4122 748.013 15.2758 747.598 15.0031 747.264C14.7262 746.93 14.3558 746.682 13.8916 746.519C13.4275 746.352 12.9105 746.269 12.3405 746.269C11.7665 746.269 11.2474 746.352 10.7833 746.519C10.3151 746.682 9.94257 746.93 9.66573 747.264C9.38889 747.598 9.25047 748.013 9.25047 748.51C9.25047 749.019 9.38889 749.442 9.66573 749.78C9.94257 750.114 10.3151 750.364 10.7833 750.531C11.2474 750.694 11.7665 750.776 12.3405 750.776C12.9105 750.776 13.4275 750.694 13.8916 750.531C14.3558 750.364 14.7262 750.114 15.0031 749.78C15.2758 749.442 15.4122 749.019 15.4122 748.51ZM11.5039 740.457L17 740.457L17 742.667L7.61995 742.667L7.61995 740.554L9.21383 740.554L9.21383 740.444C8.68864 740.229 8.27134 739.885 7.96193 739.412C7.65252 738.936 7.49781 738.348 7.49781 737.647C7.49781 737 7.63623 736.436 7.91308 735.956C8.18992 735.471 8.59093 735.097 9.11612 734.832C9.6413 734.564 10.2784 734.431 11.0275 734.435L17 734.435L17 736.646L11.3695 736.646C10.7426 736.646 10.252 736.809 9.89779 737.134C9.54359 737.456 9.3665 737.902 9.3665 738.472C9.3665 738.859 9.45199 739.203 9.62298 739.504C9.7899 739.801 10.0321 740.035 10.3497 740.206C10.6672 740.373 11.052 740.457 11.5039 740.457ZM7.61995 728.02L9.32986 728.02L9.32985 733.412L7.61995 733.412L7.61995 728.02ZM5.37264 732.081L5.37264 729.87L14.1787 729.87C14.4759 729.87 14.7038 729.826 14.8626 729.736C15.0173 729.642 15.1232 729.52 15.1802 729.37C15.2372 729.219 15.2657 729.052 15.2657 728.869C15.2657 728.73 15.2555 728.604 15.2351 728.49C15.2148 728.372 15.1965 728.283 15.1802 728.221L16.9084 727.849C16.9491 727.967 16.9939 728.136 17.0428 728.356C17.0916 728.572 17.1201 728.836 17.1282 729.15C17.1445 729.703 17.0611 730.202 16.8779 730.646C16.6906 731.09 16.4015 731.442 16.0107 731.702C15.6199 731.959 15.1313 732.085 14.5451 732.081L5.37264 732.081ZM17.1893 723.988C17.1893 724.582 17.0835 725.118 16.8718 725.594C16.656 726.066 16.3384 726.441 15.9191 726.718C15.4998 726.99 14.9827 727.127 14.368 727.127C13.8387 727.127 13.4011 727.029 13.055 726.834C12.709 726.638 12.4321 726.371 12.2245 726.034C12.0169 725.696 11.8601 725.315 11.7543 724.892C11.6443 724.464 11.5649 724.022 11.5161 723.566C11.4591 723.017 11.4082 722.571 11.3634 722.229C11.3146 721.887 11.2413 721.639 11.1436 721.484C11.0418 721.325 10.8851 721.246 10.6734 721.246L10.6367 721.246C10.1767 721.246 9.82044 721.382 9.56802 721.655C9.31561 721.928 9.1894 722.321 9.1894 722.834C9.1894 723.375 9.30746 723.805 9.54359 724.122C9.77972 724.436 10.0586 724.647 10.3802 724.757L10.0871 726.821C9.51713 726.658 9.0408 726.39 8.65811 726.015C8.27134 725.641 7.98229 725.183 7.79094 724.641C7.59552 724.1 7.49781 723.501 7.49781 722.846C7.49781 722.394 7.55074 721.944 7.65659 721.496C7.76244 721.048 7.9375 720.639 8.18178 720.269C8.42198 719.898 8.74971 719.601 9.16497 719.377C9.58023 719.149 10.0993 719.035 10.7222 719.035L17 719.035L17 721.16L15.7115 721.16L15.7115 721.234C15.972 721.368 16.2163 721.557 16.4443 721.802C16.6682 722.042 16.8494 722.345 16.9878 722.711C17.1221 723.074 17.1893 723.499 17.1893 723.988ZM15.5649 723.414C15.5649 722.97 15.4774 722.585 15.3023 722.26C15.1232 721.934 14.887 721.683 14.5939 721.508C14.3008 721.329 13.9812 721.24 13.6352 721.24L12.5298 721.24C12.5868 721.309 12.6397 721.427 12.6886 721.594C12.7375 721.757 12.7802 721.94 12.8168 722.144C12.8535 722.347 12.8861 722.549 12.9146 722.748C12.943 722.948 12.9675 723.121 12.9878 723.267C13.0326 723.597 13.1059 723.892 13.2077 724.153C13.3095 724.413 13.4519 724.619 13.6352 724.769C13.8143 724.92 14.0463 724.995 14.3313 724.995C14.7385 724.995 15.0458 724.847 15.2535 724.55C15.4611 724.252 15.5649 723.874 15.5649 723.414ZM17.1832 713.237C17.1832 714.173 16.9776 714.977 16.5664 715.649C16.1552 716.316 15.5873 716.831 14.8626 717.194C14.1339 717.552 13.2952 717.731 12.3466 717.731C11.394 717.731 10.5533 717.548 9.82451 717.182C9.09169 716.815 8.52172 716.298 8.1146 715.63C7.70341 714.959 7.49781 714.165 7.49781 713.249C7.49781 712.488 7.63827 711.814 7.91918 711.227C8.19603 710.637 8.5889 710.167 9.0978 709.817C9.60263 709.467 10.193 709.267 10.8688 709.218L10.8688 711.331C10.4169 711.417 10.0403 711.62 9.73901 711.942C9.43367 712.26 9.281 712.685 9.281 713.218C9.281 713.67 9.40314 714.067 9.64741 714.409C9.88761 714.751 10.2337 715.018 10.6856 715.209C11.1375 715.396 11.6789 715.49 12.31 715.49C12.9492 715.49 13.4988 715.396 13.9588 715.209C14.4148 715.022 14.7669 714.759 15.0153 714.421C15.2596 714.079 15.3817 713.678 15.3817 713.218C15.3817 712.893 15.3206 712.602 15.1985 712.345C15.0723 712.084 14.8911 711.867 14.655 711.692C14.4189 711.517 14.1318 711.396 13.7939 711.331L13.7939 709.218C14.4575 709.271 15.0458 709.467 15.5588 709.805C16.0677 710.143 16.4667 710.603 16.7557 711.185C17.0407 711.767 17.1832 712.451 17.1832 713.237ZM7.61995 703.235L9.32986 703.235L9.32986 708.627L7.61995 708.627L7.61995 703.235ZM5.37265 707.296L5.37265 705.085L14.1787 705.085C14.4759 705.085 14.7038 705.041 14.8626 704.951C15.0173 704.857 15.1232 704.735 15.1802 704.585C15.2372 704.434 15.2657 704.267 15.2657 704.084C15.2657 703.946 15.2555 703.819 15.2351 703.705C15.2148 703.587 15.1965 703.498 15.1802 703.437L16.9084 703.064C16.9491 703.182 16.9939 703.351 17.0428 703.571C17.0916 703.787 17.1201 704.051 17.1282 704.365C17.1445 704.919 17.0611 705.417 16.8779 705.861C16.6906 706.305 16.4015 706.657 16.0107 706.917C15.6199 707.174 15.1313 707.3 14.5451 707.296L5.37265 707.296ZM13.055 692.174L7.61995 692.174L7.61995 689.963L17 689.963L17 692.107L15.3328 692.107L15.3328 692.204C15.858 692.416 16.2875 692.764 16.6214 693.249C16.9552 693.729 17.1221 694.321 17.1221 695.026C17.1221 695.641 16.9858 696.184 16.713 696.656C16.4361 697.124 16.0351 697.491 15.5099 697.756C14.9807 698.02 14.3415 698.152 13.5924 698.152L7.61995 698.152L7.61995 695.942L13.2504 695.942C13.8448 695.942 14.3171 695.779 14.6672 695.453C15.0173 695.128 15.1924 694.7 15.1924 694.171C15.1924 693.845 15.113 693.53 14.9542 693.224C14.7954 692.919 14.5593 692.669 14.2458 692.473C13.9283 692.274 13.5313 692.174 13.055 692.174ZM10.0993 680.792L10.3192 682.807C10.1156 682.864 9.92425 682.964 9.74512 683.107C9.56599 683.245 9.42146 683.432 9.31154 683.669C9.20161 683.905 9.14665 684.194 9.14665 684.536C9.14665 684.996 9.2464 685.382 9.44588 685.696C9.64537 686.005 9.9039 686.158 10.2214 686.154C10.4942 686.158 10.7161 686.058 10.8871 685.855C11.0581 685.647 11.1985 685.305 11.3085 684.829L11.6504 683.229C11.8418 682.341 12.1451 681.682 12.5604 681.25C12.9756 680.815 13.5191 680.595 14.1909 680.591C14.7812 680.595 15.3023 680.768 15.7542 681.11C16.202 681.448 16.5522 681.918 16.8046 682.52C17.057 683.123 17.1832 683.815 17.1832 684.597C17.1832 685.745 16.943 686.669 16.4626 687.369C15.9781 688.069 15.3043 688.487 14.4413 688.621L14.2336 686.465C14.657 686.368 14.9766 686.16 15.1924 685.843C15.4082 685.525 15.5161 685.112 15.5161 684.603C15.5161 684.078 15.4082 683.656 15.1924 683.339C14.9766 683.017 14.71 682.856 14.3924 682.856C14.1237 682.856 13.9018 682.96 13.7268 683.168C13.5517 683.371 13.4173 683.689 13.3237 684.12L12.9878 685.72C12.8006 686.62 12.485 687.286 12.0413 687.717C11.5934 688.149 11.0275 688.363 10.3436 688.359C9.76547 688.363 9.26472 688.206 8.84131 687.888C8.41383 687.567 8.08407 687.121 7.85201 686.551C7.61588 685.977 7.49781 685.315 7.49781 684.566C7.49781 683.467 7.73191 682.602 8.2001 681.971C8.66829 681.336 9.30136 680.943 10.0993 680.792ZM11.5039 673.323L17 673.323L17 675.534L7.61995 675.534L7.61995 673.421L9.21383 673.421L9.21383 673.311C8.68864 673.095 8.27134 672.751 7.96193 672.279C7.65252 671.803 7.49781 671.214 7.49781 670.514C7.49781 669.867 7.63624 669.303 7.91308 668.823C8.18992 668.338 8.59093 667.964 9.11612 667.699C9.6413 667.43 10.2784 667.298 11.0275 667.302L17 667.302L17 669.513L11.3695 669.513C10.7426 669.513 10.252 669.676 9.89779 670.001C9.54359 670.323 9.3665 670.769 9.3665 671.339C9.3665 671.725 9.45199 672.069 9.62298 672.371C9.7899 672.668 10.0321 672.902 10.3497 673.073C10.6672 673.24 11.052 673.323 11.5039 673.323ZM17.1832 661.479C17.1832 662.395 16.9817 663.189 16.5786 663.861C16.1756 664.532 15.6117 665.054 14.887 665.424C14.1624 665.79 13.3156 665.974 12.3466 665.974C11.3777 665.974 10.5288 665.79 9.80008 665.424C9.07133 665.054 8.50544 664.532 8.10239 663.861C7.69934 663.189 7.49781 662.395 7.49781 661.479C7.49781 660.563 7.69934 659.769 8.10239 659.097C8.50544 658.426 9.07133 657.907 9.80008 657.54C10.5288 657.17 11.3777 656.984 12.3466 656.984C13.3156 656.984 14.1624 657.17 14.887 657.54C15.6117 657.907 16.1756 658.426 16.5786 659.097C16.9817 659.769 17.1832 660.563 17.1832 661.479ZM15.4122 661.467C15.4122 660.97 15.2758 660.555 15.0031 660.221C14.7262 659.887 14.3558 659.639 13.8916 659.476C13.4275 659.309 12.9105 659.226 12.3405 659.226C11.7665 659.226 11.2474 659.309 10.7833 659.476C10.3151 659.639 9.94257 659.887 9.66573 660.221C9.38889 660.555 9.25047 660.97 9.25047 661.467C9.25047 661.976 9.38889 662.399 9.66573 662.737C9.94257 663.071 10.3151 663.321 10.7833 663.488C11.2474 663.651 11.7665 663.732 12.3405 663.732C12.9105 663.732 13.4275 663.651 13.8916 663.488C14.3558 663.321 14.7262 663.071 15.0031 662.737C15.2758 662.399 15.4122 661.976 15.4122 661.467ZM17 653.957L7.61995 656.607L7.61995 654.354L14.2153 652.705L14.2153 652.619L7.61995 650.934L7.61995 648.705L14.1787 647.02L14.1787 646.928L7.61995 645.304L7.61995 643.044L17 645.7L17 648.003L10.6611 649.761L10.6611 649.89L17 651.648L17 653.957ZM4.49327 639.311L13.3237 639.513L13.3237 641.479L4.49327 641.674L4.49327 639.311ZM17.1344 640.496C17.1344 640.866 17.0041 641.184 16.7435 641.448C16.483 641.709 16.1654 641.839 15.7909 641.839C15.4244 641.839 15.111 641.709 14.8504 641.448C14.5899 641.184 14.4596 640.866 14.4596 640.496C14.4596 640.133 14.5899 639.82 14.8504 639.555C15.111 639.287 15.4244 639.152 15.7909 639.152C16.0392 639.152 16.2652 639.215 16.4687 639.342C16.6723 639.464 16.8351 639.627 16.9573 639.83C17.0753 640.03 17.1344 640.252 17.1344 640.496ZM6.15432 591.9L9.72069 595.466L6.15432 599.081L2.53909 595.466L6.15432 591.9ZM10.7466 587.307L14.3619 590.874L10.7466 594.44L7.18026 590.874L10.7466 587.307ZM10.7466 596.492L14.3619 600.107L10.7466 603.722L7.18026 600.107L10.7466 596.492ZM15.3878 591.9L18.9542 595.466L15.3878 599.081L11.7726 595.466L15.3878 591.9ZM8.71307 545.006L8.71307 547.29C8.33852 547.355 8.00672 547.475 7.71766 547.65C7.42453 547.825 7.17619 548.043 6.97263 548.304C6.76907 548.564 6.6164 548.861 6.51462 549.195C6.40877 549.525 6.35584 549.881 6.35584 550.264C6.35584 550.944 6.52683 551.546 6.86881 552.072C7.20672 552.597 7.70341 553.008 8.35888 553.305C9.01027 553.602 9.80619 553.751 10.7466 553.751C11.7034 553.751 12.5095 553.602 13.1649 553.305C13.8163 553.004 14.3089 552.593 14.6428 552.072C14.9725 551.546 15.1374 550.946 15.1374 550.27C15.1374 549.895 15.0886 549.545 14.9909 549.22C14.8891 548.89 14.7405 548.595 14.5451 548.334C14.3497 548.07 14.1095 547.848 13.8245 547.669C13.5395 547.485 13.2138 547.359 12.8474 547.29L12.8596 545.006C13.454 545.091 14.0117 545.277 14.5329 545.562C15.054 545.843 15.514 546.211 15.913 546.667C16.3079 547.123 16.6173 547.656 16.8412 548.267C17.0611 548.878 17.171 549.556 17.171 550.301C17.171 551.4 16.9165 552.381 16.4076 553.244C15.8987 554.107 15.1639 554.787 14.2031 555.284C13.2423 555.78 12.0901 556.029 10.7466 556.029C9.39907 556.029 8.24692 555.778 7.29018 555.278C6.32938 554.777 5.59453 554.095 5.08563 553.232C4.57673 552.369 4.32228 551.392 4.32228 550.301C4.32228 549.604 4.41998 548.957 4.6154 548.359C4.81082 547.76 5.09784 547.227 5.47646 546.759C5.85101 546.29 6.31106 545.906 6.8566 545.604C7.39807 545.299 8.01689 545.1 8.71307 545.006ZM17.1832 539.453C17.1832 540.369 16.9817 541.163 16.5786 541.835C16.1756 542.507 15.6117 543.028 14.8871 543.398C14.1624 543.765 13.3156 543.948 12.3466 543.948C11.3777 543.948 10.5288 543.765 9.80008 543.398C9.07134 543.028 8.50544 542.507 8.10239 541.835C7.69934 541.163 7.49782 540.369 7.49782 539.453C7.49782 538.537 7.69934 537.743 8.10239 537.072C8.50544 536.4 9.07134 535.881 9.80008 535.514C10.5288 535.144 11.3777 534.959 12.3466 534.959C13.3156 534.959 14.1624 535.144 14.8871 535.514C15.6117 535.881 16.1756 536.4 16.5786 537.072C16.9817 537.743 17.1832 538.537 17.1832 539.453ZM15.4122 539.441C15.4122 538.944 15.2759 538.529 15.0031 538.195C14.7262 537.861 14.3558 537.613 13.8916 537.45C13.4275 537.283 12.9105 537.2 12.3405 537.2C11.7665 537.2 11.2474 537.283 10.7833 537.45C10.3151 537.613 9.94257 537.861 9.66573 538.195C9.38889 538.529 9.25047 538.944 9.25047 539.441C9.25047 539.95 9.38889 540.373 9.66573 540.711C9.94257 541.045 10.3151 541.295 10.7833 541.462C11.2474 541.625 11.7665 541.707 12.3405 541.707C12.9105 541.707 13.4275 541.625 13.8916 541.462C14.3558 541.295 14.7262 541.045 15.0031 540.711C15.2759 540.373 15.4122 539.95 15.4122 539.441ZM11.5039 531.388L17 531.388L17 533.598L7.61995 533.598L7.61995 531.485L9.21383 531.485L9.21383 531.375C8.68864 531.16 8.27134 530.816 7.96193 530.343C7.65252 529.867 7.49782 529.279 7.49782 528.578C7.49782 527.931 7.63624 527.367 7.91308 526.887C8.18992 526.402 8.59093 526.028 9.11612 525.763C9.6413 525.494 10.2784 525.362 11.0275 525.366L17 525.366L17 527.577L11.3695 527.577C10.7426 527.577 10.252 527.74 9.89779 528.065C9.5436 528.387 9.3665 528.833 9.3665 529.403C9.3665 529.79 9.45199 530.134 9.62298 530.435C9.7899 530.732 10.0321 530.966 10.3497 531.137C10.6672 531.304 11.052 531.388 11.5039 531.388ZM7.61995 518.951L9.32986 518.951L9.32986 524.343L7.61995 524.343L7.61995 518.951ZM5.37265 523.012L5.37265 520.801L14.1787 520.801C14.4759 520.801 14.7038 520.756 14.8626 520.667C15.0173 520.573 15.1232 520.451 15.1802 520.301C15.2372 520.15 15.2657 519.983 15.2657 519.8C15.2657 519.661 15.2555 519.535 15.2351 519.421C15.2148 519.303 15.1965 519.213 15.1802 519.152L16.9084 518.78C16.9491 518.898 16.9939 519.067 17.0428 519.287C17.0916 519.503 17.1201 519.767 17.1282 520.081C17.1445 520.634 17.0611 521.133 16.8779 521.577C16.6906 522.021 16.4015 522.373 16.0107 522.633C15.6199 522.89 15.1313 523.016 14.5451 523.012L5.37265 523.012ZM17.1893 514.919C17.1893 515.513 17.0835 516.049 16.8718 516.525C16.656 516.997 16.3384 517.372 15.9191 517.649C15.4998 517.921 14.9827 518.058 14.368 518.058C13.8387 518.058 13.4011 517.96 13.055 517.765C12.709 517.569 12.4321 517.302 12.2245 516.965C12.0169 516.627 11.8601 516.246 11.7543 515.823C11.6443 515.395 11.5649 514.953 11.5161 514.497C11.4591 513.948 11.4082 513.502 11.3634 513.16C11.3146 512.818 11.2413 512.57 11.1436 512.415C11.0418 512.256 10.8851 512.177 10.6734 512.177L10.6367 512.177C10.1767 512.177 9.82044 512.313 9.56802 512.586C9.31561 512.859 9.1894 513.252 9.1894 513.765C9.1894 514.306 9.30747 514.736 9.5436 515.053C9.77973 515.367 10.0586 515.578 10.3802 515.688L10.0871 517.752C9.51713 517.589 9.0408 517.321 8.65811 516.946C8.27134 516.572 7.98229 516.114 7.79094 515.572C7.59553 515.031 7.49782 514.432 7.49782 513.777C7.49782 513.325 7.55074 512.875 7.65659 512.427C7.76244 511.979 7.93751 511.57 8.18178 511.2C8.42198 510.829 8.74971 510.532 9.16497 510.308C9.58024 510.08 10.0993 509.966 10.7222 509.966L17 509.966L17 512.091L15.7115 512.091L15.7115 512.165C15.972 512.299 16.2163 512.488 16.4443 512.733C16.6682 512.973 16.8494 513.276 16.9878 513.642C17.1221 514.005 17.1893 514.43 17.1893 514.919ZM15.5649 514.345C15.5649 513.901 15.4774 513.516 15.3023 513.191C15.1232 512.865 14.8871 512.614 14.5939 512.439C14.3008 512.26 13.9812 512.171 13.6352 512.171L12.5298 512.171C12.5868 512.24 12.6397 512.358 12.6886 512.525C12.7375 512.688 12.7802 512.871 12.8168 513.075C12.8535 513.278 12.8861 513.48 12.9146 513.679C12.9431 513.879 12.9675 514.052 12.9878 514.198C13.0326 514.528 13.1059 514.823 13.2077 515.084C13.3095 515.344 13.452 515.55 13.6352 515.7C13.8143 515.851 14.0463 515.926 14.3313 515.926C14.7385 515.926 15.0458 515.778 15.2535 515.481C15.4611 515.183 15.5649 514.805 15.5649 514.345ZM17.1832 504.168C17.1832 505.104 16.9776 505.908 16.5664 506.58C16.1552 507.247 15.5873 507.762 14.8626 508.125C14.1339 508.483 13.2952 508.662 12.3466 508.662C11.394 508.662 10.5533 508.479 9.82451 508.113C9.09169 507.746 8.52172 507.229 8.1146 506.561C7.70341 505.89 7.49782 505.096 7.49782 504.18C7.49782 503.418 7.63827 502.745 7.91919 502.158C8.19603 501.568 8.5889 501.098 9.0978 500.748C9.60263 500.398 10.193 500.198 10.8688 500.149L10.8688 502.262C10.4169 502.348 10.0403 502.551 9.73901 502.873C9.43367 503.191 9.281 503.616 9.281 504.149C9.281 504.601 9.40314 504.998 9.64741 505.34C9.88761 505.682 10.2337 505.949 10.6856 506.14C11.1375 506.327 11.6789 506.421 12.31 506.421C12.9492 506.421 13.4988 506.327 13.9588 506.14C14.4148 505.953 14.767 505.69 15.0153 505.352C15.2596 505.01 15.3817 504.609 15.3817 504.149C15.3817 503.824 15.3206 503.532 15.1985 503.276C15.0723 503.015 14.8911 502.798 14.655 502.623C14.4189 502.448 14.1318 502.327 13.7939 502.262L13.7939 500.149C14.4575 500.202 15.0458 500.398 15.5588 500.736C16.0677 501.073 16.4667 501.534 16.7557 502.116C17.0407 502.698 17.1832 503.382 17.1832 504.168ZM7.61995 494.166L9.32986 494.166L9.32986 499.558L7.61995 499.558L7.61995 494.166ZM5.37265 498.227L5.37265 496.016L14.1787 496.016C14.4759 496.016 14.7038 495.972 14.8626 495.882C15.0173 495.788 15.1232 495.666 15.1802 495.516C15.2372 495.365 15.2657 495.198 15.2657 495.015C15.2657 494.876 15.2555 494.75 15.2351 494.636C15.2148 494.518 15.1965 494.429 15.1802 494.368L16.9084 493.995C16.9491 494.113 16.9939 494.282 17.0428 494.502C17.0916 494.718 17.1201 494.982 17.1282 495.296C17.1445 495.849 17.0611 496.348 16.8779 496.792C16.6906 497.236 16.4015 497.588 16.0107 497.848C15.6199 498.105 15.1313 498.231 14.5451 498.227L5.37265 498.227ZM13.055 483.105L7.61995 483.105L7.61995 480.894L17 480.894L17 483.038L15.3328 483.038L15.3328 483.135C15.858 483.347 16.2875 483.695 16.6214 484.18C16.9552 484.66 17.1221 485.252 17.1221 485.957C17.1221 486.572 16.9858 487.115 16.713 487.587C16.4361 488.055 16.0351 488.422 15.5099 488.686C14.9807 488.951 14.3415 489.083 13.5924 489.083L7.61995 489.083L7.61995 486.873L13.2504 486.873C13.8448 486.873 14.3171 486.71 14.6672 486.384C15.0173 486.059 15.1924 485.631 15.1924 485.102C15.1924 484.776 15.113 484.461 14.9542 484.155C14.7954 483.85 14.5593 483.6 14.2458 483.404C13.9283 483.205 13.5313 483.105 13.055 483.105ZM10.0993 471.723L10.3192 473.738C10.1156 473.795 9.92425 473.895 9.74512 474.038C9.56599 474.176 9.42146 474.363 9.31154 474.599C9.20162 474.836 9.14665 475.125 9.14665 475.467C9.14665 475.927 9.2464 476.313 9.44589 476.627C9.64538 476.936 9.9039 477.089 10.2215 477.085C10.4942 477.089 10.7161 476.989 10.8871 476.786C11.0581 476.578 11.1985 476.236 11.3085 475.76L11.6504 474.16C11.8418 473.272 12.1451 472.613 12.5604 472.181C12.9756 471.746 13.5191 471.526 14.1909 471.522C14.7812 471.526 15.3023 471.699 15.7542 472.041C16.2021 472.379 16.5522 472.849 16.8046 473.451C17.057 474.054 17.1832 474.746 17.1832 475.528C17.1832 476.676 16.943 477.6 16.4626 478.3C15.9781 479 15.3044 479.418 14.4413 479.552L14.2336 477.396C14.657 477.299 14.9766 477.091 15.1924 476.774C15.4082 476.456 15.5161 476.043 15.5161 475.534C15.5161 475.009 15.4082 474.587 15.1924 474.27C14.9766 473.948 14.71 473.787 14.3924 473.787C14.1237 473.787 13.9018 473.891 13.7268 474.099C13.5517 474.302 13.4173 474.62 13.3237 475.051L12.9878 476.651C12.8006 477.551 12.485 478.217 12.0413 478.648C11.5934 479.08 11.0276 479.294 10.3436 479.29C9.76548 479.294 9.26472 479.137 8.84131 478.819C8.41384 478.498 8.08407 478.052 7.85201 477.482C7.61588 476.908 7.49782 476.246 7.49782 475.497C7.49782 474.398 7.73191 473.533 8.2001 472.902C8.66829 472.267 9.30136 471.874 10.0993 471.723ZM11.5039 464.254L17 464.254L17 466.465L7.61995 466.465L7.61995 464.352L9.21383 464.352L9.21383 464.242C8.68864 464.026 8.27135 463.682 7.96193 463.21C7.65252 462.734 7.49782 462.145 7.49782 461.445C7.49782 460.798 7.63624 460.234 7.91308 459.754C8.18992 459.269 8.59093 458.895 9.11612 458.63C9.64131 458.361 10.2784 458.229 11.0276 458.233L17 458.233L17 460.444L11.3695 460.444C10.7426 460.444 10.252 460.607 9.89779 460.932C9.5436 461.254 9.3665 461.7 9.3665 462.27C9.3665 462.656 9.45199 463 9.62299 463.302C9.7899 463.599 10.0321 463.833 10.3497 464.004C10.6672 464.171 11.052 464.254 11.5039 464.254ZM17.1832 452.41C17.1832 453.326 16.9817 454.12 16.5786 454.792C16.1756 455.463 15.6117 455.985 14.8871 456.355C14.1624 456.721 13.3156 456.905 12.3466 456.905C11.3777 456.905 10.5288 456.721 9.80008 456.355C9.07134 455.985 8.50544 455.463 8.10239 454.792C7.69934 454.12 7.49782 453.326 7.49782 452.41C7.49782 451.494 7.69934 450.7 8.10239 450.028C8.50544 449.357 9.07134 448.838 9.80008 448.471C10.5288 448.101 11.3777 447.915 12.3466 447.915C13.3156 447.915 14.1624 448.101 14.8871 448.471C15.6117 448.838 16.1756 449.357 16.5786 450.028C16.9817 450.7 17.1832 451.494 17.1832 452.41ZM15.4122 452.398C15.4122 451.901 15.2759 451.486 15.0031 451.152C14.7262 450.818 14.3558 450.57 13.8916 450.407C13.4275 450.24 12.9105 450.157 12.3405 450.157C11.7665 450.157 11.2474 450.24 10.7833 450.407C10.3151 450.57 9.94257 450.818 9.66573 451.152C9.38889 451.486 9.25047 451.901 9.25047 452.398C9.25047 452.907 9.38889 453.33 9.66573 453.668C9.94257 454.002 10.3151 454.252 10.7833 454.419C11.2474 454.582 11.7665 454.663 12.3405 454.663C12.9105 454.663 13.4275 454.582 13.8916 454.419C14.3558 454.252 14.7262 454.002 15.0031 453.668C15.2759 453.33 15.4122 452.907 15.4122 452.398ZM17 444.888L7.61995 447.538L7.61995 445.285L14.2153 443.636L14.2153 443.55L7.61995 441.865L7.61995 439.636L14.1787 437.951L14.1787 437.859L7.61995 436.235L7.61995 433.975L17 436.631L17 438.934L10.6611 440.692L10.6611 440.821L17 442.579L17 444.888ZM4.49327 430.242L13.3237 430.444L13.3237 432.41L4.49327 432.605L4.49327 430.242ZM17.1344 431.427C17.1344 431.797 17.0041 432.115 16.7435 432.38C16.483 432.64 16.1654 432.77 15.7909 432.77C15.4245 432.77 15.111 432.64 14.8504 432.38C14.5899 432.115 14.4596 431.797 14.4596 431.427C14.4596 431.065 14.5899 430.751 14.8504 430.486C15.111 430.218 15.4245 430.083 15.7909 430.083C16.0392 430.083 16.2652 430.146 16.4687 430.273C16.6723 430.395 16.8351 430.558 16.9573 430.761C17.0753 430.961 17.1344 431.183 17.1344 431.427ZM6.15432 382.831L9.72069 386.397L6.15432 390.012L2.53909 386.397L6.15432 382.831ZM10.7466 378.238L14.3619 381.805L10.7466 385.371L7.18026 381.805L10.7466 378.238ZM10.7466 387.423L14.3619 391.038L10.7466 394.653L7.18026 391.038L10.7466 387.423ZM15.3878 382.831L18.9542 386.397L15.3878 390.012L11.7726 386.397L15.3878 382.831ZM8.71307 335.937L8.71307 338.221C8.33852 338.286 8.00672 338.406 7.71766 338.581C7.42454 338.756 7.17619 338.974 6.97263 339.235C6.76907 339.495 6.6164 339.792 6.51462 340.126C6.40877 340.456 6.35585 340.812 6.35585 341.195C6.35585 341.875 6.52684 342.477 6.86882 343.003C7.20673 343.528 7.70341 343.939 8.35888 344.236C9.01027 344.533 9.80619 344.682 10.7466 344.682C11.7034 344.682 12.5095 344.533 13.1649 344.236C13.8163 343.935 14.3089 343.524 14.6428 343.003C14.9725 342.477 15.1374 341.877 15.1374 341.201C15.1374 340.827 15.0886 340.476 14.9909 340.151C14.8891 339.821 14.7405 339.526 14.5451 339.265C14.3497 339.001 14.1095 338.779 13.8245 338.6C13.5395 338.416 13.2138 338.29 12.8474 338.221L12.8596 335.937C13.454 336.022 14.0117 336.208 14.5329 336.493C15.054 336.774 15.514 337.142 15.913 337.598C16.3079 338.054 16.6173 338.587 16.8412 339.198C17.0611 339.809 17.171 340.487 17.171 341.232C17.171 342.331 16.9165 343.312 16.4076 344.175C15.8987 345.038 15.1639 345.718 14.2031 346.215C13.2423 346.711 12.0901 346.96 10.7466 346.96C9.39907 346.96 8.24692 346.709 7.29019 346.209C6.32938 345.708 5.59453 345.026 5.08563 344.163C4.57673 343.3 4.32228 342.323 4.32228 341.232C4.32228 340.535 4.41999 339.888 4.61541 339.29C4.81082 338.691 5.09784 338.158 5.47647 337.69C5.85102 337.221 6.31106 336.837 6.8566 336.535C7.39807 336.23 8.0169 336.031 8.71307 335.937ZM17.1832 330.384C17.1832 331.3 16.9817 332.094 16.5786 332.766C16.1756 333.438 15.6117 333.959 14.8871 334.329C14.1624 334.696 13.3156 334.879 12.3466 334.879C11.3777 334.879 10.5288 334.696 9.80008 334.329C9.07134 333.959 8.50544 333.438 8.10239 332.766C7.69934 332.094 7.49782 331.3 7.49782 330.384C7.49782 329.468 7.69934 328.674 8.10239 328.003C8.50544 327.331 9.07134 326.812 9.80008 326.445C10.5288 326.075 11.3777 325.89 12.3466 325.89C13.3156 325.89 14.1624 326.075 14.8871 326.445C15.6117 326.812 16.1756 327.331 16.5786 328.003C16.9817 328.674 17.1832 329.468 17.1832 330.384ZM15.4122 330.372C15.4122 329.875 15.2759 329.46 15.0031 329.126C14.7262 328.792 14.3558 328.544 13.8916 328.381C13.4275 328.214 12.9105 328.131 12.3405 328.131C11.7665 328.131 11.2474 328.214 10.7833 328.381C10.3151 328.544 9.94258 328.792 9.66573 329.126C9.38889 329.46 9.25047 329.875 9.25047 330.372C9.25047 330.881 9.38889 331.304 9.66573 331.642C9.94258 331.976 10.3151 332.226 10.7833 332.393C11.2474 332.556 11.7665 332.638 12.3405 332.638C12.9105 332.638 13.4275 332.556 13.8916 332.393C14.3558 332.226 14.7262 331.976 15.0031 331.642C15.2759 331.304 15.4122 330.881 15.4122 330.372ZM11.5039 322.319L17 322.319L17 324.529L7.61995 324.529L7.61995 322.416L9.21383 322.416L9.21383 322.306C8.68865 322.091 8.27135 321.747 7.96194 321.274C7.65252 320.798 7.49782 320.21 7.49782 319.509C7.49782 318.862 7.63624 318.298 7.91308 317.818C8.18992 317.333 8.59094 316.959 9.11612 316.694C9.64131 316.425 10.2785 316.293 11.0276 316.297L17 316.297L17 318.508L11.3695 318.508C10.7426 318.508 10.252 318.671 9.89779 318.996C9.5436 319.318 9.3665 319.764 9.3665 320.334C9.3665 320.721 9.452 321.065 9.62299 321.366C9.78991 321.663 10.0321 321.897 10.3497 322.068C10.6673 322.235 11.052 322.319 11.5039 322.319ZM7.61995 309.882L9.32986 309.882L9.32986 315.274L7.61995 315.274L7.61995 309.882ZM5.37265 313.943L5.37265 311.732L14.1787 311.732C14.4759 311.732 14.7038 311.688 14.8626 311.598C15.0173 311.504 15.1232 311.382 15.1802 311.232C15.2372 311.081 15.2657 310.914 15.2657 310.731C15.2657 310.592 15.2555 310.466 15.2351 310.352C15.2148 310.234 15.1965 310.145 15.1802 310.083L16.9084 309.711C16.9491 309.829 16.9939 309.998 17.0428 310.218C17.0916 310.434 17.1201 310.698 17.1283 311.012C17.1445 311.565 17.0611 312.064 16.8779 312.508C16.6906 312.952 16.4015 313.304 16.0107 313.564C15.6199 313.821 15.1313 313.947 14.5451 313.943L5.37265 313.943ZM17.1893 305.85C17.1893 306.444 17.0835 306.979 16.8718 307.456C16.656 307.928 16.3384 308.303 15.9191 308.579C15.4998 308.852 14.9827 308.989 14.368 308.989C13.8387 308.989 13.4011 308.891 13.055 308.696C12.709 308.5 12.4321 308.233 12.2245 307.896C12.0169 307.558 11.8601 307.177 11.7543 306.754C11.6443 306.326 11.565 305.884 11.5161 305.428C11.4591 304.879 11.4082 304.433 11.3634 304.091C11.3146 303.749 11.2413 303.501 11.1436 303.346C11.0418 303.187 10.8851 303.108 10.6734 303.108L10.6367 303.108C10.1767 303.108 9.82044 303.244 9.56803 303.517C9.31561 303.79 9.1894 304.183 9.1894 304.696C9.1894 305.237 9.30747 305.667 9.5436 305.984C9.77973 306.298 10.0586 306.509 10.3802 306.619L10.0871 308.683C9.51714 308.52 9.0408 308.252 8.65811 307.877C8.27135 307.503 7.98229 307.045 7.79095 306.503C7.59553 305.962 7.49782 305.363 7.49782 304.708C7.49782 304.256 7.55074 303.806 7.6566 303.358C7.76245 302.91 7.93751 302.501 8.18178 302.131C8.42198 301.76 8.74971 301.463 9.16498 301.239C9.58024 301.011 10.0993 300.897 10.7222 300.897L17 300.897L17 303.022L15.7115 303.022L15.7115 303.096C15.972 303.23 16.2163 303.419 16.4443 303.664C16.6682 303.904 16.8494 304.207 16.9878 304.573C17.1221 304.936 17.1893 305.361 17.1893 305.85ZM15.5649 305.276C15.5649 304.832 15.4774 304.447 15.3023 304.122C15.1232 303.796 14.8871 303.545 14.5939 303.37C14.3008 303.191 13.9812 303.102 13.6352 303.102L12.5298 303.102C12.5868 303.171 12.6397 303.289 12.6886 303.456C12.7375 303.619 12.7802 303.802 12.8168 304.005C12.8535 304.209 12.8861 304.411 12.9146 304.61C12.9431 304.81 12.9675 304.983 12.9878 305.129C13.0326 305.459 13.1059 305.754 13.2077 306.015C13.3095 306.275 13.452 306.481 13.6352 306.631C13.8143 306.782 14.0464 306.857 14.3313 306.857C14.7385 306.857 15.0458 306.709 15.2535 306.412C15.4611 306.114 15.5649 305.736 15.5649 305.276ZM17.1832 295.099C17.1832 296.035 16.9776 296.839 16.5664 297.511C16.1552 298.178 15.5873 298.693 14.8626 299.056C14.1339 299.414 13.2952 299.593 12.3466 299.593C11.394 299.593 10.5533 299.41 9.82451 299.044C9.09169 298.677 8.52173 298.16 8.11461 297.492C7.70341 296.821 7.49782 296.027 7.49782 295.111C7.49782 294.35 7.63828 293.676 7.91919 293.089C8.19603 292.499 8.5889 292.029 9.0978 291.679C9.60263 291.329 10.193 291.129 10.8688 291.08L10.8688 293.193C10.4169 293.279 10.0403 293.482 9.73902 293.804C9.43368 294.122 9.28101 294.547 9.28101 295.08C9.28101 295.532 9.40314 295.929 9.64741 296.271C9.88762 296.613 10.2337 296.88 10.6856 297.071C11.1375 297.258 11.6789 297.352 12.31 297.352C12.9492 297.352 13.4988 297.258 13.9588 297.071C14.4148 296.884 14.767 296.621 15.0153 296.283C15.2596 295.941 15.3817 295.54 15.3817 295.08C15.3817 294.755 15.3206 294.464 15.1985 294.207C15.0723 293.946 14.8911 293.729 14.655 293.554C14.4189 293.379 14.1318 293.258 13.7939 293.193L13.7939 291.08C14.4575 291.133 15.0458 291.329 15.5588 291.667C16.0677 292.005 16.4667 292.465 16.7557 293.047C17.0407 293.629 17.1832 294.313 17.1832 295.099ZM7.61995 285.097L9.32986 285.097L9.32986 290.489L7.61995 290.489L7.61995 285.097ZM5.37265 289.158L5.37265 286.947L14.1787 286.947C14.4759 286.947 14.7039 286.903 14.8626 286.813C15.0173 286.719 15.1232 286.597 15.1802 286.447C15.2372 286.296 15.2657 286.129 15.2657 285.946C15.2657 285.808 15.2555 285.681 15.2351 285.567C15.2148 285.449 15.1965 285.36 15.1802 285.299L16.9084 284.926C16.9491 285.044 16.9939 285.213 17.0428 285.433C17.0916 285.649 17.1201 285.913 17.1283 286.227C17.1445 286.781 17.0611 287.279 16.8779 287.723C16.6906 288.167 16.4015 288.519 16.0107 288.779C15.6199 289.036 15.1313 289.162 14.5451 289.158L5.37265 289.158ZM13.055 274.036L7.61995 274.036L7.61995 271.825L17 271.825L17 273.969L15.3329 273.969L15.3329 274.066C15.858 274.278 16.2875 274.626 16.6214 275.111C16.9552 275.591 17.1221 276.183 17.1221 276.888C17.1221 277.502 16.9858 278.046 16.713 278.518C16.4361 278.986 16.0351 279.353 15.5099 279.617C14.9807 279.882 14.3415 280.014 13.5924 280.014L7.61995 280.014L7.61995 277.804L13.2504 277.804C13.8448 277.804 14.3171 277.641 14.6672 277.315C15.0173 276.989 15.1924 276.562 15.1924 276.033C15.1924 275.707 15.113 275.392 14.9542 275.086C14.7955 274.781 14.5593 274.53 14.2458 274.335C13.9283 274.136 13.5313 274.036 13.055 274.036ZM10.0993 262.654L10.3192 264.669C10.1156 264.726 9.92426 264.826 9.74512 264.969C9.56599 265.107 9.42146 265.294 9.31154 265.531C9.20162 265.767 9.14666 266.056 9.14666 266.398C9.14666 266.858 9.2464 267.244 9.44589 267.558C9.64538 267.867 9.9039 268.02 10.2215 268.016C10.4942 268.02 10.7161 267.92 10.8871 267.717C11.0581 267.509 11.1985 267.167 11.3085 266.691L11.6504 265.091C11.8418 264.203 12.1451 263.544 12.5604 263.112C12.9756 262.677 13.5191 262.457 14.1909 262.453C14.7812 262.457 15.3023 262.63 15.7542 262.972C16.2021 263.31 16.5522 263.78 16.8046 264.382C17.057 264.985 17.1832 265.677 17.1832 266.459C17.1832 267.607 16.943 268.531 16.4626 269.231C15.9781 269.931 15.3044 270.349 14.4413 270.483L14.2336 268.327C14.657 268.23 14.9766 268.022 15.1924 267.705C15.4082 267.387 15.5161 266.974 15.5161 266.465C15.5161 265.94 15.4082 265.518 15.1924 265.201C14.9766 264.879 14.71 264.718 14.3924 264.718C14.1237 264.718 13.9018 264.822 13.7268 265.03C13.5517 265.233 13.4173 265.551 13.3237 265.982L12.9878 267.582C12.8006 268.482 12.485 269.148 12.0413 269.579C11.5935 270.011 11.0276 270.225 10.3436 270.221C9.76548 270.225 9.26472 270.068 8.84132 269.75C8.41384 269.429 8.08407 268.983 7.85201 268.413C7.61588 267.839 7.49782 267.177 7.49782 266.428C7.49782 265.329 7.73191 264.464 8.2001 263.833C8.66829 263.198 9.30136 262.805 10.0993 262.654ZM11.5039 255.185L17 255.185L17 257.396L7.61996 257.396L7.61996 255.283L9.21383 255.283L9.21383 255.173C8.68865 254.957 8.27135 254.613 7.96194 254.141C7.65253 253.665 7.49782 253.076 7.49782 252.376C7.49782 251.729 7.63624 251.165 7.91308 250.685C8.18992 250.2 8.59094 249.826 9.11612 249.561C9.64131 249.292 10.2785 249.16 11.0276 249.164L17 249.164L17 251.375L11.3695 251.375C10.7426 251.375 10.252 251.538 9.89779 251.863C9.5436 252.185 9.3665 252.631 9.3665 253.201C9.3665 253.587 9.452 253.931 9.62299 254.233C9.78991 254.53 10.0321 254.764 10.3497 254.935C10.6673 255.102 11.052 255.185 11.5039 255.185ZM17.1832 243.341C17.1832 244.257 16.9817 245.051 16.5786 245.723C16.1756 246.394 15.6117 246.916 14.8871 247.286C14.1624 247.652 13.3156 247.836 12.3466 247.836C11.3777 247.836 10.5288 247.652 9.80008 247.286C9.07134 246.916 8.50544 246.394 8.10239 245.723C7.69934 245.051 7.49782 244.257 7.49782 243.341C7.49782 242.425 7.69934 241.631 8.10239 240.959C8.50544 240.288 9.07134 239.769 9.80008 239.402C10.5288 239.032 11.3777 238.846 12.3466 238.846C13.3156 238.846 14.1624 239.032 14.8871 239.402C15.6117 239.769 16.1756 240.288 16.5786 240.959C16.9817 241.631 17.1832 242.425 17.1832 243.341ZM15.4122 243.329C15.4122 242.832 15.2759 242.417 15.0031 242.083C14.7262 241.749 14.3558 241.501 13.8916 241.338C13.4275 241.171 12.9105 241.088 12.3405 241.088C11.7665 241.088 11.2474 241.171 10.7833 241.338C10.3151 241.501 9.94258 241.749 9.66574 242.083C9.38889 242.417 9.25047 242.832 9.25047 243.329C9.25047 243.838 9.38889 244.261 9.66574 244.599C9.94258 244.933 10.3151 245.183 10.7833 245.35C11.2474 245.513 11.7665 245.594 12.3405 245.594C12.9105 245.594 13.4275 245.513 13.8916 245.35C14.3558 245.183 14.7262 244.933 15.0031 244.599C15.2759 244.261 15.4122 243.838 15.4122 243.329ZM17 235.819L7.61996 238.469L7.61996 236.216L14.2153 234.567L14.2153 234.481L7.61996 232.796L7.61996 230.567L14.1787 228.882L14.1787 228.79L7.61996 227.165L7.61996 224.906L17 227.562L17 229.865L10.6611 231.623L10.6611 231.752L17 233.51L17 235.819ZM4.49327 221.173L13.3237 221.375L13.3237 223.341L4.49327 223.536L4.49327 221.173ZM17.1344 222.358C17.1344 222.728 17.0041 223.046 16.7435 223.31C16.483 223.571 16.1654 223.701 15.7909 223.701C15.4245 223.701 15.111 223.571 14.8504 223.31C14.5899 223.046 14.4596 222.728 14.4596 222.358C14.4596 221.995 14.5899 221.682 14.8504 221.417C15.111 221.149 15.4245 221.014 15.7909 221.014C16.0392 221.014 16.2652 221.077 16.4687 221.204C16.6723 221.326 16.8351 221.489 16.9573 221.692C17.0753 221.892 17.1344 222.114 17.1344 222.358ZM6.15432 173.762L9.7207 177.328L6.15432 180.943L2.53909 177.328L6.15432 173.762ZM10.7466 169.169L14.3619 172.736L10.7466 176.302L7.18027 172.736L10.7466 169.169ZM10.7466 178.354L14.3619 181.969L10.7466 185.584L7.18027 181.969L10.7466 178.354ZM15.3878 173.762L18.9542 177.328L15.3878 180.943L11.7726 177.328L15.3878 173.762ZM8.71307 126.868L8.71307 129.152C8.33852 129.217 8.00672 129.337 7.71767 129.512C7.42454 129.687 7.1762 129.905 6.97263 130.166C6.76907 130.426 6.6164 130.723 6.51462 131.057C6.40877 131.387 6.35585 131.743 6.35585 132.126C6.35585 132.806 6.52684 133.408 6.86882 133.934C7.20673 134.459 7.70342 134.87 8.35888 135.167C9.01027 135.464 9.80619 135.613 10.7466 135.613C11.7034 135.613 12.5095 135.464 13.1649 135.167C13.8163 134.866 14.3089 134.455 14.6428 133.934C14.9726 133.408 15.1374 132.808 15.1374 132.132C15.1374 131.757 15.0886 131.407 14.9909 131.082C14.8891 130.752 14.7405 130.457 14.5451 130.196C14.3497 129.932 14.1095 129.71 13.8245 129.531C13.5395 129.347 13.2138 129.221 12.8474 129.152L12.8596 126.868C13.454 126.953 14.0117 127.139 14.5329 127.424C15.054 127.705 15.514 128.073 15.913 128.529C16.3079 128.985 16.6173 129.518 16.8412 130.129C17.0611 130.74 17.171 131.418 17.171 132.163C17.171 133.262 16.9166 134.243 16.4077 135.106C15.8988 135.969 15.1639 136.649 14.2031 137.146C13.2423 137.642 12.0901 137.891 10.7466 137.891C9.39907 137.891 8.24692 137.64 7.29019 137.14C6.32939 136.639 5.59453 135.957 5.08563 135.094C4.57673 134.231 4.32228 133.254 4.32228 132.163C4.32228 131.466 4.41999 130.819 4.61541 130.221C4.81083 129.622 5.09785 129.089 5.47647 128.621C5.85102 128.152 6.31106 127.768 6.85661 127.466C7.39808 127.161 8.0169 126.962 8.71307 126.868ZM17.1832 121.315C17.1832 122.231 16.9817 123.025 16.5786 123.697C16.1756 124.369 15.6117 124.89 14.8871 125.26C14.1624 125.627 13.3156 125.81 12.3466 125.81C11.3777 125.81 10.5288 125.627 9.80009 125.26C9.07134 124.89 8.50544 124.369 8.10239 123.697C7.69935 123.025 7.49782 122.231 7.49782 121.315C7.49782 120.399 7.69935 119.605 8.10239 118.934C8.50544 118.262 9.07134 117.743 9.80009 117.376C10.5288 117.006 11.3777 116.821 12.3466 116.821C13.3156 116.821 14.1624 117.006 14.8871 117.376C15.6117 117.743 16.1756 118.262 16.5786 118.934C16.9817 119.605 17.1832 120.399 17.1832 121.315ZM15.4122 121.303C15.4122 120.806 15.2759 120.391 15.0031 120.057C14.7262 119.723 14.3558 119.475 13.8916 119.312C13.4275 119.145 12.9105 119.062 12.3405 119.062C11.7665 119.062 11.2474 119.145 10.7833 119.312C10.3151 119.475 9.94258 119.723 9.66574 120.057C9.38889 120.391 9.25047 120.806 9.25047 121.303C9.25047 121.812 9.38889 122.235 9.66574 122.573C9.94258 122.907 10.3151 123.157 10.7833 123.324C11.2474 123.487 11.7665 123.569 12.3405 123.569C12.9105 123.569 13.4275 123.487 13.8916 123.324C14.3558 123.157 14.7262 122.907 15.0031 122.573C15.2759 122.235 15.4122 121.812 15.4122 121.303ZM11.5039 113.25L17 113.25L17 115.46L7.61996 115.46L7.61996 113.347L9.21383 113.347L9.21383 113.237C8.68865 113.022 8.27135 112.678 7.96194 112.205C7.65253 111.729 7.49782 111.141 7.49782 110.44C7.49782 109.793 7.63624 109.229 7.91308 108.749C8.18993 108.264 8.59094 107.89 9.11612 107.625C9.64131 107.356 10.2785 107.224 11.0276 107.228L17 107.228L17 109.439L11.3695 109.439C10.7426 109.439 10.252 109.602 9.8978 109.927C9.5436 110.249 9.3665 110.695 9.3665 111.265C9.3665 111.652 9.452 111.996 9.62299 112.297C9.78991 112.594 10.0321 112.828 10.3497 112.999C10.6673 113.166 11.052 113.25 11.5039 113.25ZM7.61996 100.813L9.32986 100.813L9.32986 106.205L7.61996 106.205L7.61996 100.813ZM5.37265 104.874L5.37265 102.663L14.1787 102.663C14.4759 102.663 14.7039 102.618 14.8626 102.529C15.0173 102.435 15.1232 102.313 15.1802 102.163C15.2372 102.012 15.2657 101.845 15.2657 101.662C15.2657 101.523 15.2555 101.397 15.2351 101.283C15.2148 101.165 15.1965 101.075 15.1802 101.014L16.9084 100.642C16.9491 100.76 16.9939 100.929 17.0428 101.149C17.0916 101.365 17.1201 101.629 17.1283 101.943C17.1445 102.496 17.0611 102.995 16.8779 103.439C16.6906 103.883 16.4015 104.235 16.0107 104.495C15.6199 104.752 15.1313 104.878 14.5451 104.874L5.37265 104.874ZM17.1893 96.7808C17.1893 97.3752 17.0835 97.9105 16.8718 98.3869C16.656 98.8591 16.3384 99.2337 15.9191 99.5105C15.4998 99.7833 14.9827 99.9197 14.368 99.9197C13.8387 99.9197 13.4011 99.822 13.055 99.6265C12.709 99.4311 12.4321 99.1645 12.2245 98.8266C12.0169 98.4886 11.8601 98.108 11.7543 97.6846C11.6443 97.2571 11.565 96.8154 11.5161 96.3594C11.4591 95.8098 11.4082 95.364 11.3634 95.022C11.3146 94.68 11.2413 94.4317 11.1436 94.277C11.0418 94.1182 10.8851 94.0388 10.6734 94.0388L10.6367 94.0388C10.1767 94.0388 9.82044 94.1752 9.56803 94.448C9.31561 94.7207 9.18941 95.1136 9.18941 95.6266C9.18941 96.1681 9.30747 96.5976 9.5436 96.9151C9.77973 97.2286 10.0586 97.4403 10.3802 97.5502L10.0871 99.6143C9.51714 99.4515 9.04081 99.1828 8.65811 98.8082C8.27135 98.4337 7.98229 97.9757 7.79095 97.4342C7.59553 96.8927 7.49782 96.2943 7.49782 95.6388C7.49782 95.1869 7.55075 94.737 7.6566 94.2892C7.76245 93.8414 7.93751 93.4322 8.18178 93.0617C8.42198 92.6912 8.74972 92.394 9.16498 92.1701C9.58024 91.9421 10.0993 91.8282 10.7222 91.8282L17 91.8282L17 93.9533L15.7115 93.9533L15.7115 94.0266C15.972 94.161 16.2163 94.3503 16.4443 94.5945C16.6682 94.8347 16.8494 95.138 16.9878 95.5044C17.1221 95.8668 17.1893 96.2922 17.1893 96.7808ZM15.5649 96.2067C15.5649 95.763 15.4774 95.3782 15.3023 95.0525C15.1232 94.7268 14.8871 94.4765 14.5939 94.3014C14.3008 94.1223 13.9812 94.0327 13.6352 94.0327L12.5298 94.0327C12.5868 94.1019 12.6398 94.22 12.6886 94.3869C12.7375 94.5498 12.7802 94.733 12.8168 94.9365C12.8535 95.1401 12.8861 95.3416 12.9146 95.5411C12.9431 95.7406 12.9675 95.9136 12.9878 96.0602C13.0326 96.3899 13.1059 96.6851 13.2077 96.9457C13.3095 97.2062 13.452 97.4118 13.6352 97.5624C13.8143 97.7131 14.0464 97.7884 14.3313 97.7884C14.7385 97.7884 15.0458 97.6398 15.2535 97.3426C15.4611 97.0454 15.5649 96.6668 15.5649 96.2067ZM17.1832 86.0296C17.1832 86.966 16.9776 87.77 16.5664 88.4418C16.1552 89.1095 15.5873 89.6245 14.8626 89.9868C14.1339 90.3451 13.2952 90.5242 12.3466 90.5242C11.394 90.5242 10.5533 90.341 9.82451 89.9746C9.0917 89.6082 8.52173 89.0911 8.11461 88.4235C7.70342 87.7517 7.49782 86.9578 7.49782 86.0418C7.49782 85.2805 7.63828 84.6067 7.91919 84.0205C8.19603 83.4301 8.5889 82.9599 9.0978 82.6098C9.60263 82.2597 10.193 82.0602 10.8688 82.0113L10.8688 84.1243C10.4169 84.2098 10.0403 84.4133 9.73902 84.735C9.43368 85.0525 9.28101 85.4779 9.28101 86.0113C9.28101 86.4632 9.40314 86.8601 9.64742 87.2021C9.88762 87.5441 10.2337 87.8107 10.6856 88.0021C11.1375 88.1894 11.6789 88.283 12.31 88.283C12.9492 88.283 13.4988 88.1894 13.9588 88.0021C14.4148 87.8148 14.767 87.5522 15.0153 87.2143C15.2596 86.8723 15.3817 86.4713 15.3817 86.0113C15.3817 85.6856 15.3206 85.3945 15.1985 85.138C15.0723 84.8774 14.8911 84.6596 14.655 84.4846C14.4189 84.3095 14.1318 84.1894 13.7939 84.1243L13.7939 82.0113C14.4575 82.0642 15.0458 82.2597 15.5588 82.5976C16.0677 82.9355 16.4667 83.3955 16.7557 83.9777C17.0407 84.5599 17.1832 85.2439 17.1832 86.0296ZM7.61996 76.0281L9.32986 76.0281L9.32986 81.4204L7.61996 81.4204L7.61996 76.0281ZM5.37265 80.0891L5.37265 77.8784L14.1787 77.8784C14.4759 77.8784 14.7039 77.8336 14.8626 77.7441C15.0173 77.6504 15.1232 77.5283 15.1802 77.3777C15.2372 77.227 15.2657 77.0601 15.2657 76.8769C15.2657 76.7385 15.2555 76.6123 15.2351 76.4983C15.2148 76.3802 15.1965 76.2906 15.1802 76.2296L16.9084 75.8571C16.9491 75.9751 16.9939 76.1441 17.0428 76.3639C17.0916 76.5797 17.1201 76.8443 17.1283 77.1578C17.1445 77.7115 17.0611 78.2102 16.8779 78.654C16.6906 79.0977 16.4015 79.4499 16.0107 79.7105C15.6199 79.9669 15.1313 80.0932 14.5451 80.0891L5.37265 80.0891ZM13.055 64.9669L7.61996 64.9669L7.61996 62.7562L17 62.7562L17 64.8997L15.3329 64.8997L15.3329 64.9974C15.858 65.2091 16.2876 65.5572 16.6214 66.0417C16.9552 66.5221 17.1221 67.1144 17.1221 67.8187C17.1221 68.4335 16.9858 68.977 16.713 69.4493C16.4361 69.9175 16.0351 70.2839 15.51 70.5485C14.9807 70.8131 14.3415 70.9454 13.5924 70.9454L7.61996 70.9454L7.61996 68.7348L13.2504 68.7348C13.8448 68.7348 14.3171 68.5719 14.6672 68.2462C15.0173 67.9205 15.1924 67.4931 15.1924 66.9638C15.1924 66.6381 15.113 66.3226 14.9542 66.0172C14.7955 65.7119 14.5593 65.4615 14.2458 65.2661C13.9283 65.0666 13.5313 64.9669 13.055 64.9669ZM10.0993 53.5852L10.3192 55.6004C10.1156 55.6574 9.92426 55.7572 9.74513 55.8997C9.56599 56.0381 9.42147 56.2254 9.31154 56.4615C9.20162 56.6976 9.14666 56.9867 9.14666 57.3286C9.14666 57.7887 9.2464 58.1755 9.44589 58.4889C9.64538 58.7984 9.9039 58.951 10.2215 58.947C10.4942 58.951 10.7161 58.8513 10.8871 58.6477C11.0581 58.4401 11.1985 58.0981 11.3085 57.6218L11.6504 56.0218C11.8418 55.1343 12.1451 54.4747 12.5604 54.0432C12.9756 53.6076 13.5191 53.3877 14.1909 53.3837C14.7812 53.3877 15.3023 53.5607 15.7542 53.9027C16.2021 54.2406 16.5522 54.7109 16.8046 55.3134C17.057 55.9159 17.1832 56.608 17.1832 57.3897C17.1832 58.5378 16.943 59.462 16.4626 60.1622C15.9781 60.8625 15.3044 61.2798 14.4413 61.4141L14.2336 59.2584C14.657 59.1607 14.9766 58.9531 15.1924 58.6355C15.4082 58.318 15.5161 57.9047 15.5161 57.3958C15.5161 56.8706 15.4082 56.4493 15.1924 56.1317C14.9766 55.8101 14.71 55.6493 14.3924 55.6493C14.1237 55.6493 13.9018 55.7531 13.7268 55.9607C13.5517 56.1643 13.4174 56.4818 13.3237 56.9134L12.9878 58.5134C12.8006 59.4131 12.485 60.0787 12.0413 60.5103C11.5935 60.9418 11.0276 61.1556 10.3436 61.1515C9.76548 61.1556 9.26472 60.9988 8.84132 60.6813C8.41384 60.3597 8.08407 59.9139 7.85202 59.3439C7.61589 58.7699 7.49782 58.1083 7.49782 57.3592C7.49782 56.26 7.73192 55.3948 8.2001 54.7638C8.66829 54.1287 9.30136 53.7358 10.0993 53.5852ZM11.5039 46.1163L17 46.1163L17 48.327L7.61996 48.327L7.61996 46.214L9.21383 46.214L9.21383 46.1041C8.68865 45.8883 8.27135 45.5443 7.96194 45.072C7.65253 44.5957 7.49782 44.0074 7.49782 43.3072C7.49782 42.6598 7.63624 42.096 7.91308 41.6156C8.18993 41.1311 8.59094 40.7566 9.11613 40.4919C9.64131 40.2232 10.2785 40.0909 11.0276 40.095L17 40.095L17 42.3057L11.3695 42.3057C10.7426 42.3057 10.252 42.4685 9.8978 42.7942C9.5436 43.1158 9.3665 43.5616 9.3665 44.1316C9.3665 44.5184 9.452 44.8624 9.62299 45.1636C9.78991 45.4608 10.0321 45.6949 10.3497 45.8659C10.6673 46.0328 11.052 46.1163 11.5039 46.1163ZM17.1832 34.272C17.1832 35.188 16.9817 35.9819 16.5786 36.6537C16.1756 37.3254 15.6117 37.8465 14.8871 38.217C14.1624 38.5834 13.3156 38.7666 12.3466 38.7666C11.3777 38.7666 10.5288 38.5834 9.80009 38.217C9.07134 37.8465 8.50544 37.3254 8.1024 36.6537C7.69935 35.9819 7.49782 35.188 7.49782 34.272C7.49782 33.356 7.69935 32.5621 8.1024 31.8904C8.50544 31.2186 9.07134 30.6995 9.80009 30.3331C10.5288 29.9627 11.3777 29.7774 12.3466 29.7774C13.3156 29.7774 14.1624 29.9627 14.8871 30.3331C15.6117 30.6995 16.1756 31.2186 16.5786 31.8904C16.9817 32.5621 17.1832 33.356 17.1832 34.272ZM15.4122 34.2598C15.4122 33.7631 15.2759 33.3479 15.0031 33.014C14.7262 32.6802 14.3558 32.4318 13.8916 32.269C13.4275 32.1021 12.9105 32.0186 12.3405 32.0186C11.7665 32.0186 11.2474 32.1021 10.7833 32.269C10.3151 32.4318 9.94258 32.6802 9.66574 33.014C9.3889 33.3479 9.25047 33.7631 9.25047 34.2598C9.25047 34.7687 9.3889 35.1921 9.66574 35.53C9.94258 35.8639 10.3151 36.1142 10.7833 36.2812C11.2474 36.444 11.7665 36.5254 12.3405 36.5254C12.9105 36.5254 13.4275 36.444 13.8916 36.2812C14.3558 36.1142 14.7262 35.8639 15.0031 35.53C15.2759 35.1921 15.4122 34.7687 15.4122 34.2598ZM17 26.7499L7.61996 29.4002L7.61996 27.1468L14.2153 25.498L14.2153 25.4125L7.61996 23.727L7.61996 21.498L14.1787 19.8125L14.1787 19.7209L7.61996 18.0965L7.61996 15.837L17 18.4935L17 20.7957L10.6611 22.5545L10.6611 22.6827L17 24.4415L17 26.7499ZM4.49327 12.1041L13.3237 12.3057L13.3237 14.272L4.49327 14.4675L4.49327 12.1041ZM17.1344 13.2889C17.1344 13.6593 17.0041 13.9769 16.7435 14.2415C16.483 14.5021 16.1654 14.6323 15.7909 14.6323C15.4245 14.6323 15.111 14.5021 14.8504 14.2415C14.5899 13.9769 14.4596 13.6593 14.4596 13.2889C14.4596 12.9265 14.5899 12.613 14.8504 12.3484C15.111 12.0797 15.4245 11.9454 15.7909 11.9454C16.0392 11.9454 16.2652 12.0085 16.4687 12.1347C16.6723 12.2568 16.8351 12.4196 16.9573 12.6232C17.0753 12.8227 17.1344 13.0446 17.1344 13.2889Z" fill="black"/>
</svg>
