<svg width="953" height="430" viewBox="0 0 953 430" fill="none" xmlns="http://www.w3.org/2000/svg">
<rect width="953" height="430" rx="109" fill="#FFD952"/>
<path d="M203.432 316.81V295.264H222.727C232.053 295.264 237.842 288.189 237.842 279.828V136.078C237.842 115.817 252.313 98.1301 275.146 98.1301H294.763V119.677H275.468C266.142 119.677 260.353 126.751 260.353 135.113V278.863C260.353 299.123 245.881 316.81 223.049 316.81H203.432ZM315.415 316.81V134.47C315.415 114.21 329.886 96.5222 352.719 96.5222H355.292C378.125 96.5222 392.596 114.21 392.596 134.47V316.81H370.085V272.109H337.926V316.81H315.415ZM337.926 250.885H370.085V133.183C370.085 124.822 364.296 117.747 354.97 117.747H353.041C343.715 117.747 337.926 124.822 337.926 133.183V250.885ZM421.579 316.81V98.1301H457.597C478.179 98.1301 494.258 114.853 494.258 133.826V151.514C494.258 159.875 493.615 169.201 482.681 174.347C494.902 179.814 498.761 191.069 498.761 201.682V316.81L476.249 317.132V201.36C476.249 193.963 470.782 187.21 462.099 187.21H444.091V316.81H421.579ZM444.091 165.985H457.597C466.28 165.985 471.747 159.232 471.747 151.835V133.505C471.747 126.108 466.28 119.355 457.597 119.355H444.091V165.985ZM546.119 316.81L517.498 98.1301H537.758L560.591 278.22H561.877L584.71 98.1301H604.97L576.67 316.81H546.119ZM626.969 316.81V98.1301H649.48V251.206H681.639V98.1301H704.15V316.81H681.639V272.431H649.48V316.81H626.969Z" fill="black"/>
<path d="M705.411 80.4532V60.2024C705.411 54.4743 710.097 50.3663 715.825 50.3663H721.033C726.703 50.3663 731.447 54.4743 731.447 60.2024V80.4532C731.447 86.1234 726.703 90.2893 721.033 90.2893H715.825C710.097 90.2893 705.411 86.1234 705.411 80.4532ZM707.956 80.4532C707.956 84.7348 711.486 87.7435 715.825 87.7435H721.033C725.488 87.7435 728.901 84.5612 728.901 80.4532V60.2024C728.901 55.9208 725.372 52.9121 721.033 52.9121H715.825C711.544 52.9121 707.956 55.8629 707.956 60.2024V80.4532ZM725.372 77.3288V78.2545C725.372 82.0154 722.768 85.1398 718.66 85.1398H718.197C714.089 85.1398 711.486 82.0154 711.486 78.2545V62.4011C711.486 58.7559 714.089 55.5736 718.197 55.5736H718.66C722.768 55.5736 725.372 58.7559 725.372 62.4011V63.3847H721.322V62.2275C721.322 60.7231 720.28 59.4502 718.603 59.4502H718.255C716.577 59.4502 715.536 60.7231 715.536 62.2275V78.486C715.536 79.9903 716.577 81.3211 718.255 81.3211H718.603C720.28 81.3211 721.322 79.9903 721.322 78.486V77.3288H725.372Z" fill="black"/>
<path d="M217.077 372.704V342.093H222.119C225 342.093 227.251 344.434 227.251 347.09V349.566C227.251 350.736 227.161 352.042 225.63 352.762C227.341 353.527 227.881 355.103 227.881 356.588V367.707C227.881 370.363 225.63 372.704 222.749 372.704H217.077ZM220.228 351.592H222.119C223.334 351.592 224.1 350.646 224.1 349.611V347.045C224.1 346.01 223.334 345.064 222.119 345.064H220.228V351.592ZM220.228 369.733H222.749C223.965 369.733 224.73 368.788 224.73 367.752V356.543C224.73 355.508 223.965 354.563 222.749 354.563H220.228V369.733ZM231.494 342.093H234.645V367.752C234.645 368.923 235.456 369.913 236.761 369.913H237.031C238.337 369.913 239.147 368.923 239.147 367.752V342.093H242.298V367.617C242.298 370.453 240.272 372.929 237.076 372.929H236.716C233.52 372.929 231.494 370.453 231.494 367.617V342.093ZM249.551 372.704V363.476C247.165 362.891 245.725 360.73 245.725 358.344V342.093H248.876V358.479C248.876 359.65 249.686 360.64 250.992 360.64H251.262C252.567 360.64 253.378 359.65 253.378 358.479V342.093H256.529V358.344C256.529 360.73 255.088 362.891 252.702 363.476V372.704H249.551Z" fill="black"/>
<path d="M587.109 363.476V360.505H589.945V357.579H593.096V360.505H595.887V363.476H593.096V366.357H589.945V363.476H587.109ZM616.812 366.852V367.572C616.812 370.498 614.786 372.929 611.59 372.929H611.23C608.034 372.929 606.008 370.498 606.008 367.572V347.18C606.008 344.344 608.034 341.868 611.23 341.868H611.59C614.786 341.868 616.812 344.344 616.812 347.18V347.945H613.661V347.045C613.661 345.875 612.851 344.884 611.545 344.884H611.275C609.97 344.884 609.159 345.875 609.159 347.045V367.752C609.159 368.923 609.97 369.958 611.275 369.958H611.545C612.851 369.958 613.661 368.923 613.661 367.752V366.852H616.812ZM619.768 367.572V347.18C619.768 344.344 621.794 341.868 624.99 341.868H625.35C628.546 341.868 630.572 344.344 630.572 347.18V367.572C630.572 370.498 628.546 372.929 625.35 372.929H624.99C621.794 372.929 619.768 370.498 619.768 367.572ZM622.919 367.752C622.919 368.923 623.73 369.958 625.035 369.958H625.305C626.611 369.958 627.421 368.923 627.421 367.752V347C627.421 345.83 626.611 344.839 625.305 344.839H625.035C623.73 344.839 622.919 345.83 622.919 347V367.752ZM634.453 372.704V347.18C634.453 344.344 636.479 341.868 639.675 341.868H640.035C643.231 341.868 645.257 344.344 645.257 347.18V372.704H642.106V347.045C642.106 345.875 641.296 344.884 639.99 344.884H639.72C638.415 344.884 637.604 345.875 637.604 347.045V372.704H634.453ZM649.224 372.704V347.18C649.224 344.344 651.25 341.868 654.446 341.868H654.806C658.002 341.868 660.028 344.344 660.028 347.18V372.704H656.877V347.045C656.877 345.875 656.067 344.884 654.761 344.884H654.491C653.186 344.884 652.375 345.875 652.375 347.045V372.704H649.224ZM664.085 372.704V342.093H674.214V345.064H667.236V351.547H672.863V354.518H667.236V369.733H674.889V372.704H664.085ZM688.644 366.852V367.572C688.644 370.498 686.619 372.929 683.423 372.929H683.062C679.866 372.929 677.841 370.498 677.841 367.572V347.18C677.841 344.344 679.866 341.868 683.062 341.868H683.423C686.619 341.868 688.644 344.344 688.644 347.18V347.945H685.493V347.045C685.493 345.875 684.683 344.884 683.378 344.884H683.108C681.802 344.884 680.992 345.875 680.992 347.045V367.752C680.992 368.923 681.802 369.958 683.108 369.958H683.378C684.683 369.958 685.493 368.923 685.493 367.752V366.852H688.644ZM694.436 372.704V345.064H690.61V342.093H701.414V345.064H697.588V372.704H694.436Z" fill="black"/>
<path d="M425.952 363.476V360.505H428.788V357.579H431.939V360.505H434.73V363.476H431.939V366.357H428.788V363.476H425.952ZM437.706 372.704V369.688H440.407C441.712 369.688 442.523 368.698 442.523 367.527V347.405C442.523 344.569 444.548 342.093 447.744 342.093H450.49V345.109H447.789C446.484 345.109 445.674 346.1 445.674 347.27V367.392C445.674 370.228 443.648 372.704 440.452 372.704H437.706ZM453.471 372.704V342.093H463.6V345.064H456.622V351.547H462.249V354.518H456.622V369.733H464.275V372.704H453.471ZM467.407 372.704V342.093H470.558V369.733H478.211V372.704H467.407ZM480.991 372.704V342.093H484.142V369.733H491.795V372.704H480.991Z" fill="black"/>
</svg>
